<svg xmlns="http://www.w3.org/2000/svg" xmlns:xlink="http://www.w3.org/1999/xlink" viewBox="0 0 108 108"><defs><clipPath id="6f1a44b2-4dda-47b5-ae62-79370f76df54"><path d="M30,52a4,4,0,0,0,8,0,2,2,0,0,1,4,0,2,2,0,0,1-.46,1.27L31,65.37A4,4,0,0,0,34,72H46a4,4,0,0,0,0-8H42.8l4.84-5.54A10,10,0,1,0,30,52m28.26-7.4-6,16A4,4,0,0,0,56,66H66v2a4,4,0,0,0,8,0V66a4,4,0,0,0,0-8V54a4,4,0,0,0-8,0v4H61.77l4-10.6a4,4,0,1,0-7.49-2.81M86,14v9.8A44,44,0,1,0,98,54a4,4,0,0,0-8,0,36,36,0,1,1-9.16-24H70a4,4,0,0,0,0,8H90a4,4,0,0,0,4-4V14a4,4,0,0,0-8,0" style="fill:none"/></clipPath></defs><title>around-the-clock</title><g id="30873d01-e222-4ec3-996c-39159216f99f" data-name="Layer 2"><g id="69e39e30-9119-430e-8664-da21ee285808" data-name="Layer 1"><g style="clip-path:url(#6f1a44b2-4dda-47b5-ae62-79370f76df54)"><rect width="108" height="108" style="fill:#eb4c4c"/></g></g></g></svg>