<svg xmlns="http://www.w3.org/2000/svg" viewBox="0 0 89.17 81.94"><title>cart</title><g id="54afbb76-7f15-4240-ae3b-8d5f64afa3be" data-name="Layer 2"><g id="e81e97a2-fd68-4a0d-8dd8-9d088b8df548" data-name="Слой 1"><path d="M85.18,14.41H62.41a4,4,0,1,0,0,8H80.27L74.94,48.29A4,4,0,0,1,71,51.48H31a4,4,0,0,1-4-3.41L23.27,22.41h14.8a4,4,0,0,0,0-8h-16l-1.63-11a4,4,0,0,0-4-3.41H4A4,4,0,1,0,4,8h9l6.12,41.27A12.07,12.07,0,0,0,31,59.49H71a12,12,0,0,0,11.73-9.55l6.32-30.72a4,4,0,0,0-3.92-4.81Z" style="fill:#eb4c4c"/><path d="M51,2.11a4,4,0,0,0-4,4V31.6l-4.42-3.66a4,4,0,1,0-5.07,6.19l11,9a4,4,0,0,0,5.07,0l11-9a4,4,0,0,0-5.12-6.19L55,31.59V6.11A4,4,0,0,0,51,2.11Z" style="fill:#eb4c4c"/><path d="M31.74,61.21v0A10.38,10.38,0,1,0,32,81.94h.25a10.37,10.37,0,0,0-.49-20.73Zm.07,14.3a4,4,0,1,1,4-4A4,4,0,0,1,31.81,75.51Z" style="fill:#eb4c4c"/><path d="M69.8,61.21v0A10.38,10.38,0,1,0,70,81.94h.25a10.37,10.37,0,0,0-.49-20.73Zm.07,14.3a4,4,0,1,1,4-4A4,4,0,0,1,69.88,75.51Z" style="fill:#eb4c4c"/></g></g></svg>