<svg xmlns="http://www.w3.org/2000/svg" xmlns:xlink="http://www.w3.org/1999/xlink" viewBox="0 0 107.93 96"><defs><clipPath id="4df2f90b-d1cb-4e1c-a153-e82e6c1d927f"><path d="M26,76V70H82v6a2,2,0,0,1-2,2H28a2,2,0,0,1-2-2M43.88,39.81,54,19.71l10.09,20.1A9,9,0,0,0,77.69,43L88.95,34.6,82.77,62H25.17L19,34.6,30.25,43a9.32,9.32,0,0,0,5.59,1.92,9,9,0,0,0,8-5.12m3.76-25.34L36.73,36.22a1,1,0,0,1-1.7.38l-14.77-11C14.64,21.36,8.85,24.94,10.2,32L18,66.44V76A10,10,0,0,0,28,86H80A10,10,0,0,0,90,76V66.44L97.74,32c1.35-7.05-4.44-10.63-10.07-6.42L72.9,36.6a1,1,0,0,1-1.7-.38L60.29,14.47C58.79,11.49,56.38,10,54,10s-4.83,1.49-6.32,4.47" style="fill:none"/></clipPath></defs><title>crown</title><g id="d2f14f3d-7834-4fcf-a63b-a4ccd83b9061" data-name="Layer 2"><g id="4e964ab3-5583-435f-a7d7-dcd6d453f1d5" data-name="Layer 1"><g style="clip-path:url(#4df2f90b-d1cb-4e1c-a153-e82e6c1d927f)"><rect width="107.93" height="96" style="fill:#eb4c4c"/></g></g></g></svg>