<svg xmlns="http://www.w3.org/2000/svg" xmlns:xlink="http://www.w3.org/1999/xlink" viewBox="0 0 108 108"><defs><clipPath id="c14232f9-60b1-4d35-afe6-72092c3ef0c6"><path d="M52.82,30.95l-2.93,5.7-6.55.91c-1.45.2-1.78,1.16-.73,2.15l4.74,4.43L46.24,50.4c-.25,1.39.6,2,1.9,1.33l5.86-3,5.86,3c1.3.65,2.15.06,1.9-1.33l-1.12-6.26,4.74-4.43c1-1,.72-1.95-.73-2.15l-6.55-.91-2.93-5.7c-.32-.63-.75-.95-1.18-.95s-.85.32-1.18.95M58,77.72V82a4,4,0,0,0,4,4h2a2,2,0,0,1,2,2v2H42V88a2,2,0,0,1,2-2h2a4,4,0,0,0,4-4V77.72a28.41,28.41,0,0,0,8,0M18,28a2,2,0,0,1,2-2h6V50c0,.22,0,.44,0,.66A35.85,35.85,0,0,1,18,28M82,50V26h6a2,2,0,0,1,2,2,35.83,35.83,0,0,1-8,22.63c0-.22,0-.44,0-.66M34,50V20a2,2,0,0,1,2-2H72a2,2,0,0,1,2,2V50a20,20,0,1,1-40,0m2-40a10,10,0,0,0-9.78,8H20A10,10,0,0,0,10,28,44,44,0,0,0,30.47,65.19,28.09,28.09,0,0,0,42,75.31V78.2A10,10,0,0,0,34,88v6a4,4,0,0,0,4,4H70a4,4,0,0,0,4-4V88a10,10,0,0,0-8-9.8v-2.9A28.12,28.12,0,0,0,77.52,65.2,44,44,0,0,0,98,28,10,10,0,0,0,88,18H81.8A10,10,0,0,0,72,10Z" style="fill:none"/></clipPath></defs><title>cup</title><g id="7011e464-6ac0-4da7-8261-823edc9fc7db" data-name="Layer 2"><g id="d22ab4a9-4a8b-4125-ba64-9c76624a0433" data-name="Layer 1"><g style="clip-path:url(#c14232f9-60b1-4d35-afe6-72092c3ef0c6)"><rect width="108" height="108" style="fill:#eb4c4c"/></g></g></g></svg>