<svg xmlns="http://www.w3.org/2000/svg" xmlns:xlink="http://www.w3.org/1999/xlink" viewBox="0 0 71 71"><defs><clipPath id="143c9309-c06d-4dc3-9e38-a59f01164f15"><rect width="71" height="71" style="fill:none"/></clipPath></defs><title>development</title><g id="d90d9dd6-05d5-48fc-aaca-6eb7de1bf734" data-name="Layer 2"><g id="64084ee0-2414-44ae-8a9d-9a2aa5e470c8" data-name="Layer 1"><g style="clip-path:url(#143c9309-c06d-4dc3-9e38-a59f01164f15)"><path d="M69.3,0H1.7A1.75,1.75,0,0,0,0,1.7V69.3A1.75,1.75,0,0,0,1.7,71H69.3A1.75,1.75,0,0,0,71,69.3V1.7A1.75,1.75,0,0,0,69.3,0M24.5,4a2.05,2.05,0,0,1,2.1,2.1,2.1,2.1,0,1,1-4.2,0A2.05,2.05,0,0,1,24.5,4M15.6,4a2.05,2.05,0,0,1,2.1,2.1,2.1,2.1,0,1,1-4.2,0A2.11,2.11,0,0,1,15.6,4M6.8,4A2.05,2.05,0,0,1,8.9,6.1,2.05,2.05,0,0,1,6.8,8.2,2.05,2.05,0,0,1,4.7,6.1,2.05,2.05,0,0,1,6.8,4M66,64.3A1.75,1.75,0,0,1,64.3,66H6.7A1.75,1.75,0,0,1,5,64.3V16a1.75,1.75,0,0,1,1.7-1.7H64.3A1.75,1.75,0,0,1,66,16Z" style="fill:#eb4c4c"/><path d="M49.7,50.9a2.47,2.47,0,0,1-1.9-.9,2.61,2.61,0,0,1,.2-3.5l5.9-5.9a1.39,1.39,0,0,0,0-1.9L48,32.8a2.6,2.6,0,0,1-.3-3.4,2.49,2.49,0,0,1,3.7-.2L60.2,38a2.41,2.41,0,0,1,.7,1.8,2.88,2.88,0,0,1-.7,1.8l-8.7,8.6a3.12,3.12,0,0,1-1.8.7" style="fill:#eb4c4c"/><path d="M21.3,50.9a2.57,2.57,0,0,1-1.8-.7l-8.8-8.8a2.41,2.41,0,0,1-.7-1.8,2.88,2.88,0,0,1,.7-1.8l8.7-8.7a2.6,2.6,0,0,1,3.4-.3,2.5,2.5,0,0,1,.2,3.7l-6,6a1.39,1.39,0,0,0,0,1.9l5.9,5.9a2.61,2.61,0,0,1,.2,3.5,1.92,1.92,0,0,1-1.8,1.1" style="fill:#eb4c4c"/><path d="M30.2,56.9a1.93,1.93,0,0,1-.8-.1,2.48,2.48,0,0,1-1.5-3.2L38.4,24.1a2.5,2.5,0,0,1,4.7,1.7L32.6,55.2a2.59,2.59,0,0,1-2.4,1.7" style="fill:#eb4c4c"/></g></g></g></svg>