<svg xmlns="http://www.w3.org/2000/svg" xmlns:xlink="http://www.w3.org/1999/xlink" viewBox="0 0 108 108"><defs><clipPath id="13f81a66-d9dd-49be-bee6-a8ab9d108474"><path d="M60,66a6,6,0,1,0,6-6,6,6,0,0,0-6,6M36,42a6,6,0,1,0,6-6,6,6,0,0,0-6,6m29.17-4.83-28,28a4,4,0,0,0,5.66,5.66l28-28a4,4,0,1,0-5.66-5.66M27.84,77.76V66.49a4,4,0,0,0-1.17-2.83l-8-8a2.4,2.4,0,0,1,0-3.39l8-8a4,4,0,0,0,1.17-2.83V30.24a2.4,2.4,0,0,1,2.4-2.4H41.51a4,4,0,0,0,2.83-1.17l8-8a2.4,2.4,0,0,1,3.39,0l8,8a4,4,0,0,0,2.83,1.17H77.76a2.4,2.4,0,0,1,2.4,2.4V41.51a4,4,0,0,0,1.17,2.83l8,8a2.4,2.4,0,0,1,0,3.39l-8,8a4,4,0,0,0-1.17,2.83V77.76a2.4,2.4,0,0,1-2.4,2.4H66.49a4,4,0,0,0-2.83,1.17l-8,8a2.4,2.4,0,0,1-3.39,0l-8-8a4,4,0,0,0-2.83-1.17H30.24a2.4,2.4,0,0,1-2.4-2.4M46.65,13l-6.8,6.79H30.24a10.4,10.4,0,0,0-10.4,10.4v9.61L13,46.65a10.4,10.4,0,0,0,0,14.7l6.8,6.8v9.61a10.4,10.4,0,0,0,10.4,10.4h9.61l6.8,6.8a10.4,10.4,0,0,0,14.7,0l6.8-6.8h9.61a10.4,10.4,0,0,0,10.4-10.4V68.15l6.8-6.8a10.4,10.4,0,0,0,0-14.7l-6.8-6.8V30.24a10.4,10.4,0,0,0-10.4-10.4H68.15L61.35,13a10.4,10.4,0,0,0-14.7,0" style="fill:none"/></clipPath></defs><title>discount</title><g id="4abf55c1-ed71-46f6-902a-22c57eecfebc" data-name="Layer 2"><g id="8a4e9b43-e297-4a44-8c3d-170238599474" data-name="Layer 1"><g style="clip-path:url(#13f81a66-d9dd-49be-bee6-a8ab9d108474)"><rect width="108" height="108" style="fill:#eb4c4c"/></g></g></g></svg>