<svg xmlns="http://www.w3.org/2000/svg" xmlns:xlink="http://www.w3.org/1999/xlink" viewBox="0 0 72.24 90"><defs><clipPath id="c230656a-9fcf-4423-8a7f-bab509dafd5b" transform="translate(0)"><rect width="72.24" height="90" style="fill:none"/></clipPath></defs><title>document</title><g id="28958093-ef7a-4abc-98a5-959538fb0e23" data-name="Layer 2"><g id="8e8df6c2-6a7f-4220-b1d0-ea72ffbdd24f" data-name="Layer 1"><path d="M9.18,14.16h18v4h-18Zm0,7.18H45.1v4H9.18Zm0,7.18H45.1v4H9.18Zm0,7.18H45.1v4H9.18Z" transform="translate(0)" style="fill:#07b"/><rect x="9.18" y="14.16" width="17.96" height="4" style="fill:#07b"/><rect x="9.18" y="21.35" width="35.92" height="4" style="fill:#07b"/><rect x="9.18" y="28.53" width="35.92" height="4" style="fill:#07b"/><rect x="9.18" y="35.71" width="35.92" height="4" style="fill:#07b"/><g style="clip-path:url(#c230656a-9fcf-4423-8a7f-bab509dafd5b)"><path d="M57.67,44.68V0H3.8V3.39H0V72H25.82A23.55,23.55,0,1,0,57.67,44.68m-32.46,20c0,.59-.08,1.19-.08,1.8s0,1.07.06,1.59H4V7.39H50.29V43c-.53,0-1.06-.06-1.59-.06a23.79,23.79,0,0,0-3.59.27l-.33.06H9.27v4H35.11a23.54,23.54,0,0,0-9.89,17.42M48.69,86A19.55,19.55,0,0,1,29.23,68.25c0-.07,0-.14,0-.2,0-.53-.08-1.06-.08-1.59s0-1.2.09-1.8A19.57,19.57,0,0,1,48.69,46.9c.54,0,1.06,0,1.59.08a19.44,19.44,0,0,1,3.8.69l.2.05A19.55,19.55,0,0,1,48.69,86" transform="translate(0)" style="fill:#07b"/><polygon points="58.54 68.43 54.29 71.15 52.89 72.04 50.63 73.49 50.63 72.04 50.65 68.25 50.66 64.65 50.69 55.68 50.29 55.68 46.69 55.67 46.66 64.65 46.65 68.04 46.65 68.25 46.63 72.04 46.63 73.43 44.54 72.04 39.02 68.38 36.81 71.71 37.31 72.04 48.6 79.54 60.7 71.8 58.54 68.43" style="fill:#07b"/></g></g></g></svg>