<svg xmlns="http://www.w3.org/2000/svg" xmlns:xlink="http://www.w3.org/1999/xlink" viewBox="0 0 104 108"><defs><clipPath id="17e91fb2-733e-4795-9400-df38dd2e8ab3"><path d="M46,54a6,6,0,1,1,6,6,6,6,0,0,1-6-6m-8,0A14,14,0,1,0,52,40,14,14,0,0,0,38,54M35.16,34.42a26.51,26.51,0,0,1,8.08-4.76,4,4,0,0,0,2.61-3.75V20a2.06,2.06,0,0,1,2.09-2h8.12a2,2,0,0,1,2.09,2v5.5a4,4,0,0,0,2.76,3.8,26.53,26.53,0,0,1,8.66,4.77,4,4,0,0,0,4.53.39l4.68-2.66a2.15,2.15,0,0,1,2.9.74l4.06,6.93a2,2,0,0,1-.77,2.7l-4.5,2.56A4,4,0,0,0,78.52,49a25.93,25.93,0,0,1,0,10,4,4,0,0,0,1.95,4.25L85,65.81a2,2,0,0,1,.77,2.7l-4.06,6.93a2.15,2.15,0,0,1-2.9.73L74.1,73.52a4,4,0,0,0-4.53.39,26.53,26.53,0,0,1-8.66,4.77,4,4,0,0,0-2.76,3.8V88a2.06,2.06,0,0,1-2.09,2H47.94a2,2,0,0,1-2.09-2v-5.9a4,4,0,0,0-2.61-3.75,26.51,26.51,0,0,1-8.08-4.76,4,4,0,0,0-4.59-.44l-5.35,3a2.15,2.15,0,0,1-2.9-.73l-4.06-6.93a2,2,0,0,1,.77-2.7l5.52-3.14a4,4,0,0,0,2-4.17,25.93,25.93,0,0,1,0-9,4,4,0,0,0-2-4.17L19,42.19a2,2,0,0,1-.77-2.7l4.06-6.93a2.15,2.15,0,0,1,2.9-.74l5.35,3a4,4,0,0,0,4.59-.44M47.94,10A10.06,10.06,0,0,0,37.85,20v3.24a34.4,34.4,0,0,0-5.66,3.33l-3-1.71a10.15,10.15,0,0,0-13.76,3.64l-4.06,6.93a10,10,0,0,0,3.71,13.7L18.26,51q-.14,1.51-.14,3t.14,3l-3.18,1.81a10,10,0,0,0-3.71,13.7l4.06,6.93a10.15,10.15,0,0,0,13.76,3.65l3-1.71a34.4,34.4,0,0,0,5.66,3.33V88A10,10,0,0,0,47.94,98h8.12A10.06,10.06,0,0,0,66.15,88V85.25a34.54,34.54,0,0,0,6.29-3.48l2.38,1.36a10.15,10.15,0,0,0,13.76-3.65l4.06-6.93a10,10,0,0,0-3.71-13.7l-2.11-1.2a33.83,33.83,0,0,0,0-7.31l2.11-1.2a10,10,0,0,0,3.71-13.7l-4.06-6.93a10.15,10.15,0,0,0-13.76-3.64l-2.38,1.36a34.54,34.54,0,0,0-6.29-3.48V20A10,10,0,0,0,56.06,10Z" style="fill:none"/></clipPath></defs><title>gear</title><g id="0095767b-df9d-4115-89ed-842e8575de76" data-name="Layer 2"><g id="491b3cbe-ca30-4070-9243-4c4bb4d018d6" data-name="Layer 1"><g style="clip-path:url(#17e91fb2-733e-4795-9400-df38dd2e8ab3)"><rect width="104" height="108" style="fill:#eb4c4c"/></g></g></g></svg>