<svg xmlns="http://www.w3.org/2000/svg" xmlns:xlink="http://www.w3.org/1999/xlink" viewBox="0 0 108 84"><defs><clipPath id="375101b8-e970-4cd1-ba66-625c1d0b640e"><path d="M61.45,52.57,76,46V59c0,1-1.65,2.6-5.17,4.09A45,45,0,0,1,54,66a44.94,44.94,0,0,1-16.83-2.91C33.65,61.6,32,60,32,59V46l14.55,6.55A18.62,18.62,0,0,0,54,54a18.63,18.63,0,0,0,7.45-1.43M49.83,45.27,20.34,32,49.83,18.73a12.3,12.3,0,0,1,8.34,0L87.66,32,58.17,45.27A10.75,10.75,0,0,1,54,46a10.77,10.77,0,0,1-4.17-.73M46.55,11.43,14.76,25.74c-6.34,2.85-6.35,9.67,0,12.52L24,42.42V59c0,9.23,13.65,15,30,15s30-5.77,30-15V42.42l9.24-4.16c6.34-2.85,6.35-9.67,0-12.52L61.45,11.43A18.63,18.63,0,0,0,54,10a18.62,18.62,0,0,0-7.45,1.43" style="fill:none"/></clipPath></defs><title>graduation-cap</title><g id="306291fe-a7a2-4dcf-acdd-2ccdfd1fa04e" data-name="Layer 2"><g id="6cdb7821-801d-4bb5-8f84-d2d00fe5c05f" data-name="Layer 1"><g style="clip-path:url(#375101b8-e970-4cd1-ba66-625c1d0b640e)"><rect width="108" height="84" style="fill:#eb4c4c"/></g></g></g></svg>