<svg xmlns="http://www.w3.org/2000/svg" viewBox="0 0 829.6 829.6"><title>inst</title><g id="f4688535-e91e-4831-be23-de0eba413a19" data-name="Layer 2"><g id="23d9829d-ead2-4762-a5ec-c9279b89bc1e" data-name="Layer 1"><circle cx="414.8" cy="423.7" r="104.5" style="fill:#83b4d0;stroke:#fff;stroke-miterlimit:10"/><path d="M551.3,162h-273A116.08,116.08,0,0,0,162.1,278.2v273A116.08,116.08,0,0,0,278.3,667.4h273A116.08,116.08,0,0,0,667.5,551.2v-273A116.08,116.08,0,0,0,551.3,162ZM414.8,584.2A160.5,160.5,0,1,1,575.3,423.7,160.55,160.55,0,0,1,414.8,584.2ZM583,289a36,36,0,1,1,36-36A36,36,0,0,1,583,289Z" style="fill:#83b4d0;stroke:#fff;stroke-miterlimit:10"/><path d="M605.9.5H223.7C100.4.5.5,100.4.5,223.7V605.9c0,123.3,99.9,223.2,223.2,223.2H605.9c123.3,0,223.2-99.9,223.2-223.2V223.7C829.1,100.4,729.2.5,605.9.5ZM723.6,551.2A172.31,172.31,0,0,1,551.3,723.5h-273A172.31,172.31,0,0,1,106,551.2v-273C106,183.1,183.2,106,278.3,106h273c95.1,0,172.2,77.1,172.3,172.2Z" style="fill:#83b4d0;stroke:#fff;stroke-miterlimit:10"/></g></g></svg>