<svg xmlns="http://www.w3.org/2000/svg" xmlns:xlink="http://www.w3.org/1999/xlink" viewBox="0 0 14.15 24.01"><defs><clipPath id="3b1702b0-223f-428c-a95e-d3e410bf5884" transform="translate(0 0)"><rect width="14.15" height="24.01" style="fill:none"/></clipPath></defs><title>lightning</title><g id="f8ced141-aa2d-4d75-82fe-138179eef0ad" data-name="Layer 2"><g id="d4556d64-443c-4a31-870d-3329725f55e8" data-name="Layer 1"><g style="clip-path:url(#3b1702b0-223f-428c-a95e-d3e410bf5884)"><path d="M13.63,1.5A1,1,0,0,0,12.76,0H6.7A1,1,0,0,0,5.8.55l-5.55,11A1,1,0,0,0,1.14,13H3.7L.07,22.65a1,1,0,0,0,1.69,1l12.14-14A1,1,0,0,0,13.14,8H9.88ZM3.91,18.13l2.17-5.77A1,1,0,0,0,5.14,11H2.77L7.31,2H11L7.28,8.5A1,1,0,0,0,8.14,10H11Z" transform="translate(0 0)" style="fill:#eb4c4c"/></g></g></g></svg>