<svg xmlns="http://www.w3.org/2000/svg" viewBox="0 0 14 14"><title>magnifier</title><g id="5a0e4171-61e1-4c15-87ea-c279eb11680e" data-name="Layer 2"><g id="5c34de96-6cf3-4199-bfb1-c399ec50bc42" data-name="Layer 1"><path d="M13.79,12.75,10.34,9.29a5.52,5.52,0,0,0,1.37-3.63A5.76,5.76,0,0,0,5.85,0,5.76,5.76,0,0,0,0,5.65,5.76,5.76,0,0,0,5.85,11.3a5.94,5.94,0,0,0,3.35-1l3.48,3.49a.78.78,0,0,0,1.08,0A.72.72,0,0,0,13.79,12.75ZM5.85,1.47a4.26,4.26,0,0,1,4.33,4.18A4.26,4.26,0,0,1,5.85,9.83,4.26,4.26,0,0,1,1.53,5.65,4.26,4.26,0,0,1,5.85,1.47Z" style="fill:#07b"/></g></g></svg>