<svg xmlns="http://www.w3.org/2000/svg" xmlns:xlink="http://www.w3.org/1999/xlink" viewBox="0 0 43.72 63"><defs><clipPath id="c58cf41d-b7a4-43db-bdbe-5312f8977895"><rect width="43.72" height="63" style="fill:none"/></clipPath></defs><title>medal</title><g id="16d4425d-812f-408e-9322-46e17bdbecd1" data-name="Layer 2"><g id="6923af4a-e22a-4bb4-a4d1-6d11f7a8bfc7" data-name="Layer 1"><g style="clip-path:url(#c58cf41d-b7a4-43db-bdbe-5312f8977895)"><path d="M30.22,28.58,43.1,23.06,35.58.5H8.14L.62,23.06,13.5,28.58a18,18,0,1,0,16.73,0m-12.3-9.39h0l-2.66,8L8.07,24.07l5.8-16.59ZM19,22.27l1.49,4.3a17.83,17.83,0,0,0-3.09.52Zm3.59,4.27-8.32-24h2.9l6.05,16.35,1.88-.69L19.3,2.5h8.85l7.5,21.57-7.22,3.09-2.6-7L24,20.85l2.3,6.22a18,18,0,0,0-3.68-.53m18-4.59-3.12,1.34L30.27,2.5h3.87ZM9.58,2.5h2.57l.67,1.94L6.23,23.28,3.1,21.94Zm12.28,58a16,16,0,1,1,16-16,16,16,0,0,1-16,16" style="fill:#eb4c4c"/><path d="M30.22,28.58,43.1,23.06,35.58.5H8.14L.62,23.06,13.5,28.58a18,18,0,1,0,16.73,0Zm-12.3-9.39h0l-2.66,8L8.07,24.07l5.8-16.59ZM19,22.27l1.49,4.3a17.83,17.83,0,0,0-3.09.52Zm3.59,4.27-8.32-24h2.9l6.05,16.35,1.88-.69L19.3,2.5h8.85l7.5,21.57-7.22,3.09-2.6-7L24,20.85l2.3,6.22A18,18,0,0,0,22.58,26.54Zm18-4.59-3.12,1.34L30.27,2.5h3.87ZM9.58,2.5h2.57l.67,1.94L6.23,23.28,3.1,21.94Zm12.28,58a16,16,0,1,1,16-16A16,16,0,0,1,21.86,60.5Z" style="fill:none;stroke:#eb4c4c;stroke-miterlimit:10"/><path d="M21.86,32.5a12,12,0,1,0,12,12,12,12,0,0,0-12-12m0,22a10,10,0,1,1,10-10,10,10,0,0,1-10,10" style="fill:#eb4c4c"/><path d="M21.86,32.5a12,12,0,1,0,12,12A12,12,0,0,0,21.86,32.5Zm0,22a10,10,0,1,1,10-10A10,10,0,0,1,21.86,54.5Z" style="fill:none;stroke:#eb4c4c;stroke-miterlimit:10"/></g></g></g></svg>