<svg xmlns="http://www.w3.org/2000/svg" xmlns:xlink="http://www.w3.org/1999/xlink" viewBox="0 0 100 70"><defs><clipPath id="2129679d-07d8-4580-b7ba-7b834ac2b2f4" transform="translate(0)"><rect width="100" height="70" style="fill:none"/></clipPath></defs><title>money</title><g id="c9eb62a9-b305-4d3d-9071-74aad63d4334" data-name="Layer 2"><g id="f07e93f4-2622-42e3-9377-70c83884f07a" data-name="Layer 1"><g style="clip-path:url(#2129679d-07d8-4580-b7ba-7b834ac2b2f4)"><path d="M82,48.48V3a2.77,2.77,0,0,0-2.71-3H3.53C1.86,0,0,1.36,0,3V48.48A3.94,3.94,0,0,0,3.53,52H79.29C81,52,82,50.16,82,48.48M61.13,45H21.69A15.15,15.15,0,0,0,7,30.33V21.19A15.16,15.16,0,0,0,21.71,6.06s0,0,0-.06H61.11s0,0,0,.06A15.16,15.16,0,0,0,76,21.2v9.12A15.16,15.16,0,0,0,61.13,45M76,15.14a9.09,9.09,0,0,1-8.83-9.08s0,0,0-.06H76ZM15.66,6s0,0,0,.06A9.09,9.09,0,0,1,7,15.13V6ZM7,36.39A9.09,9.09,0,0,1,15.63,45H7ZM67.19,45A9.09,9.09,0,0,1,76,36.38V45Z" transform="translate(0)" style="fill:#eb4c4c"/><path d="M91,57.58V12.12a3,3,0,1,0-6,0V55H12.62a3,3,0,1,0,0,6H88.38C90.05,61,91,59.25,91,57.58" transform="translate(0)" style="fill:#eb4c4c"/><path d="M97,18.18a3,3,0,0,0-3,3V64H21.71a3,3,0,1,0,0,6H97.47c1.68,0,2.53-1.66,2.53-3.33V21.21a3,3,0,0,0-3-3" transform="translate(0)" style="fill:#eb4c4c"/><path d="M41.41,12.12A13.64,13.64,0,1,0,55,25.76,13.65,13.65,0,0,0,41.41,12.12m0,21.21A7.58,7.58,0,1,1,49,25.76a7.58,7.58,0,0,1-7.58,7.57" transform="translate(0)" style="fill:#eb4c4c"/></g></g></g></svg>