<svg xmlns="http://www.w3.org/2000/svg" xmlns:xlink="http://www.w3.org/1999/xlink" viewBox="0 0 43.64 47.22"><defs><clipPath id="dc03d1a5-0150-4f22-8104-939668c8de49" transform="translate(0 0)"><rect width="43.64" height="47.22" style="fill:none"/></clipPath></defs><title>present</title><g id="7b4848cd-c566-421d-90b6-b4e2703ee742" data-name="Layer 2"><g id="7434e8e7-0caf-47a5-80d0-81a01f55b978" data-name="Layer 1"><g style="clip-path:url(#dc03d1a5-0150-4f22-8104-939668c8de49)"><path d="M7.28,47.22H36.37a3.83,3.83,0,0,0,3.83-3.83V24.85a3.82,3.82,0,0,0,3.44-3.79V14.68a3.83,3.83,0,0,0-3.83-3.83H32.54A6.53,6.53,0,0,0,34.9,6a6,6,0,0,0-6.19-6C25.08,0,23,2.68,21.82,5.54,20.64,2.69,18.57,0,14.93,0A6,6,0,0,0,8.74,6a6.53,6.53,0,0,0,2.36,4.87H3.83A3.83,3.83,0,0,0,0,14.68v6.38a3.82,3.82,0,0,0,3.45,3.79V43.39a3.83,3.83,0,0,0,3.83,3.83m-.77-3.83V24.89H20.29V44.16h-13a.77.77,0,0,1-.77-.77m29.86.77h-13V24.89H37.14v18.5a.77.77,0,0,1-.77.77m4.21-29.48v6.38a.77.77,0,0,1-.77.77H23.35V13.91H39.82a.77.77,0,0,1,.77.77M28.71,3.06A3,3,0,0,1,31.84,6,3.79,3.79,0,0,1,29.91,9a12.79,12.79,0,0,1-6.35,1.77c.44-2.71,1.72-7.73,5.15-7.73m-13.78,0c3.43,0,4.71,5,5.15,7.73A12.79,12.79,0,0,1,13.73,9,3.79,3.79,0,0,1,11.8,6a3,3,0,0,1,3.13-2.91m-11.87,18V14.68a.77.77,0,0,1,.77-.77H20.29v7.91H3.83a.77.77,0,0,1-.76-.77" transform="translate(0 0)" style="fill:#eb4c4c"/></g></g></g></svg>