<svg xmlns="http://www.w3.org/2000/svg" viewBox="0 0 272.13 159.33"><title>vk</title><g id="be291a1c-4605-4f08-b75c-d69f7b630a84" data-name="Layer 2"><g id="49e36bc7-a08d-428a-9533-a269df1dd409" data-name="Layer 1"><path d="M226.06,78.12s35.86-50.58,39.42-67.2c1.19-5.94-1.43-9.26-7.6-9.26H226.77c-7.12,0-9.74,3.09-11.87,7.6,0,0-16.82,35.83-37.28,58.42-6.57,7.3-9.91,9.5-13.54,9.5-2.92,0-4.27-2.44-4.27-9V10.45c0-8.07-.95-10.45-7.6-10.45H102.34c-3.8,0-6.17,2.21-6.17,5.22,0,7.6,11.64,9.32,11.64,29.92v42.5c0,8.55-.48,11.87-4.51,11.87C92.61,89.52,67.2,52.72,53,10.92,50.1,2.38,47,0,38.94,0H7.84C3.32,0,0,3.09,0,7.6c0,8.31,9.74,46.78,48,98.31,25.64,34.67,59.36,53.43,89.76,53.43,18.52,0,23-3.09,23-10.92v-26.6c0-6.65,2.61-9.5,6.41-9.5,4.27,0,11.82,1.37,29.44,18.76,20.9,19.95,22.32,28.26,33.72,28.26h34.91c3.56,0,6.89-1.66,6.89-7.6,0-7.84-10.21-21.85-25.88-38.47-6.41-8.55-16.86-17.81-20.18-22.08C221.31,86.2,222.73,83.35,226.06,78.12Z" style="fill:#83b4d0"/></g></g></svg>