<svg xmlns="http://www.w3.org/2000/svg" viewBox="0 0 108 108"><defs><clipPath id="a"><path d="M30 52a4 4 0 0 0 8 0 2 2 0 0 1 4 0 2 2 0 0 1-.46 1.27L31 65.37A4 4 0 0 0 34 72h12a4 4 0 0 0 0-8h-3.2l4.84-5.54A10 10 0 1 0 30 52m28.26-7.4l-6 16A4 4 0 0 0 56 66h10v2a4 4 0 0 0 8 0v-2a4 4 0 0 0 0-8v-4a4 4 0 0 0-8 0v4h-4.23l4-10.6a4 4 0 1 0-7.49-2.81M86 14v9.8A44 44 0 1 0 98 54a4 4 0 0 0-8 0 36 36 0 1 1-9.16-24H70a4 4 0 0 0 0 8h20a4 4 0 0 0 4-4V14a4 4 0 0 0-8 0" fill="none"/></clipPath></defs><title>around-the-clock</title><g clip-path="url(#a)" data-name="Layer 1"><path fill="#eb4c4c" d="M0 0h108v108H0z"/></g></svg>