<svg xmlns="http://www.w3.org/2000/svg" viewBox="0 0 89.17 81.94"><title>cart</title><g data-name="Слой 1" fill="#eb4c4c"><path d="M85.18 14.41H62.41a4 4 0 1 0 0 8h17.86l-5.33 25.88A4 4 0 0 1 71 51.48H31a4 4 0 0 1-4-3.41l-3.73-25.66h14.8a4 4 0 0 0 0-8h-16l-1.63-11a4 4 0 0 0-4-3.41H4a4 4 0 1 0 0 8h9l6.12 41.27A12.07 12.07 0 0 0 31 59.49h40a12 12 0 0 0 11.73-9.55l6.32-30.72a4 4 0 0 0-3.92-4.81z"/><path d="M51 2.11a4 4 0 0 0-4 4V31.6l-4.42-3.66a4 4 0 1 0-5.07 6.19l11 9a4 4 0 0 0 5.07 0l11-9a4 4 0 0 0-5.12-6.19L55 31.59V6.11a4 4 0 0 0-4-4zM31.74 61.21A10.38 10.38 0 1 0 32 81.94h.25a10.37 10.37 0 0 0-.49-20.73zm.07 14.3a4 4 0 1 1 4-4 4 4 0 0 1-4 4zM69.8 61.21a10.38 10.38 0 1 0 .2 20.73h.25a10.37 10.37 0 0 0-.49-20.73zm.07 14.3a4 4 0 1 1 4-4 4 4 0 0 1-3.99 4z"/></g></svg>