<svg xmlns="http://www.w3.org/2000/svg" viewBox="0 0 81 75.25"><defs><clipPath id="a"><path fill="none" d="M0 0h81v75.25H0z"/></clipPath></defs><title>certificate</title><g clip-path="url(#a)" fill="#eb4c4c" data-name="Layer 1"><path d="M50 20.5H22a1.5 1.5 0 0 0 0 3h28a1.5 1.5 0 1 0 0-3M33 30.5H22a1.5 1.5 0 0 0 0 3h11a1.5 1.5 0 1 0 0-3"/><path d="M77 0H4a4 4 0 0 0-4 4v53a4 4 0 0 0 4 4h34.18l-2.61 6.87a3.36 3.36 0 0 0-.23 1.2 3 3 0 0 0 .22 1.13 2.93 2.93 0 0 0 1.23 1.43 3.11 3.11 0 0 0 1.57.42A3.5 3.5 0 0 0 39 72l3.28-.59L44.32 74a3.35 3.35 0 0 0 .94.83 3 3 0 0 0 1.5.41 2.94 2.94 0 0 0 1.91-.71 3.27 3.27 0 0 0 .92-1.33l2.18-5.75L54 73.2a3.29 3.29 0 0 0 .92 1.33 3 3 0 0 0 1.91.71 3 3 0 0 0 1.5-.41 3.35 3.35 0 0 0 .94-.83l2.06-2.62 3.28.59a3.47 3.47 0 0 0 .62.06 3.16 3.16 0 0 0 1-.17 2.93 2.93 0 0 0 2-2.8 3.35 3.35 0 0 0-.23-1.19L65.37 61H77a4 4 0 0 0 4-4V4a4 4 0 0 0-4-4m-6.32 56l-4-4h4.26l4 4zM51.5 56a9.5 9.5 0 1 1 9.5-9.5 9.51 9.51 0 0 1-9.5 9.5m0-24a14.43 14.43 0 0 0-14.27 17H12V12h57v37h-3.23A14.43 14.43 0 0 0 51.5 32M72 50.94v-4.51l4 4v4.51zm0-6.63v-4.24l4 4v4.24zM5 56V5h71v36.95l-4-4V10a1 1 0 0 0-1-1H10a1 1 0 0 0-1 1v41a1 1 0 0 0 1 1h28.09a14.43 14.43 0 0 0 2.14 3.61l-.15.39zm41.13 12.23l-.26-.33a4.09 4.09 0 0 0-1.54-1.18 4.36 4.36 0 0 0-1.8-.4 3.82 3.82 0 0 0-.69.06l-.41.07 2.81-7.4A14.41 14.41 0 0 0 49 60.77zm15.57-1.84a3.73 3.73 0 0 0-.69-.06 4.36 4.36 0 0 0-1.8.4 4.12 4.12 0 0 0-1.54 1.18l-.26.33-2.87-7.56a14.39 14.39 0 0 0 4.63-1.89l2.91 7.67-.41-.07zm1.44-11.27a14.39 14.39 0 0 0 1.67-2.87L68.56 56h-5.09z"/><path d="M51.5 41a5.5 5.5 0 1 0 5.5 5.5 5.5 5.5 0 0 0-5.5-5.5m0 8a2.5 2.5 0 1 1 2.5-2.5 2.5 2.5 0 0 1-2.5 2.5"/></g></svg>