<svg xmlns="http://www.w3.org/2000/svg" viewBox="0 0 24.5 17.5"><title>chat</title><path d="M23.75 4.25h-9.5V.75a.5.5 0 0 0-.5-.5h-13a.5.5 0 0 0-.5.5v9a.5.5 0 0 0 .5.5h3.5v2.5a.51.51 0 0 0 .28.45.54.54 0 0 0 .22 0 .47.47 0 0 0 .3-.1l3.87-2.9h1.33v3.5a.5.5 0 0 0 .5.5h4.83l3.87 2.9a.47.47 0 0 0 .3.1.54.54 0 0 0 .22 0 .51.51 0 0 0 .28-.45v-2.5h3.5a.5.5 0 0 0 .5-.5v-9a.5.5 0 0 0-.5-.5zm-15 5a.54.54 0 0 0-.3.1l-3.2 2.4v-2a.5.5 0 0 0-.5-.5h-3.5v-8h12v8zm14.5 4h-3.5a.5.5 0 0 0-.5.5v2l-3.2-2.4a.54.54 0 0 0-.3-.1h-4.5v-3h2.5a.5.5 0 0 0 .5-.5v-4.5h9z" fill="#eb4c4c" stroke="#eb4c4c" stroke-miterlimit="10" stroke-width=".5" data-name="Слой 1"/></svg>