<svg xmlns="http://www.w3.org/2000/svg" viewBox="0 0 107.93 96"><defs><clipPath id="a"><path d="M26 76v-6h56v6a2 2 0 0 1-2 2H28a2 2 0 0 1-2-2m17.88-36.19L54 19.71l10.09 20.1A9 9 0 0 0 77.69 43l11.26-8.4L82.77 62h-57.6L19 34.6 30.25 43a9.32 9.32 0 0 0 5.59 1.92 9 9 0 0 0 8-5.12m3.76-25.34L36.73 36.22a1 1 0 0 1-1.7.38l-14.77-11c-5.62-4.24-11.41-.66-10.06 6.4L18 66.44V76a10 10 0 0 0 10 10h52a10 10 0 0 0 10-10v-9.56L97.74 32c1.35-7.05-4.44-10.63-10.07-6.42L72.9 36.6a1 1 0 0 1-1.7-.38L60.29 14.47C58.79 11.49 56.38 10 54 10s-4.83 1.49-6.32 4.47" fill="none"/></clipPath></defs><title>crown</title><g clip-path="url(#a)" data-name="Layer 1"><path fill="#eb4c4c" d="M0 0h107.93v96H0z"/></g></svg>