<svg xmlns="http://www.w3.org/2000/svg" viewBox="0 0 108 108"><defs><clipPath id="a"><path d="M52.82 30.95l-2.93 5.7-6.55.91c-1.45.2-1.78 1.16-.73 2.15l4.74 4.43-1.11 6.26c-.25 1.39.6 2 1.9 1.33l5.86-3 5.86 3c1.3.65 2.15.06 1.9-1.33l-1.12-6.26 4.74-4.43c1-1 .72-1.95-.73-2.15l-6.55-.91-2.93-5.7c-.32-.63-.75-.95-1.18-.95s-.85.32-1.18.95M58 77.72V82a4 4 0 0 0 4 4h2a2 2 0 0 1 2 2v2H42v-2a2 2 0 0 1 2-2h2a4 4 0 0 0 4-4v-4.28a28.41 28.41 0 0 0 8 0M18 28a2 2 0 0 1 2-2h6v24.66A35.85 35.85 0 0 1 18 28m64 22V26h6a2 2 0 0 1 2 2 35.83 35.83 0 0 1-8 22.63v-.66M34 50V20a2 2 0 0 1 2-2h36a2 2 0 0 1 2 2v30a20 20 0 1 1-40 0m2-40a10 10 0 0 0-9.78 8H20a10 10 0 0 0-10 10 44 44 0 0 0 20.47 37.19A28.09 28.09 0 0 0 42 75.31v2.89a10 10 0 0 0-8 9.8v6a4 4 0 0 0 4 4h32a4 4 0 0 0 4-4v-6a10 10 0 0 0-8-9.8v-2.9a28.12 28.12 0 0 0 11.52-10.1A44 44 0 0 0 98 28a10 10 0 0 0-10-10h-6.2a10 10 0 0 0-9.8-8z" fill="none"/></clipPath></defs><title>cup</title><g clip-path="url(#a)" data-name="Layer 1"><path fill="#eb4c4c" d="M0 0h108v108H0z"/></g></svg>