<svg xmlns="http://www.w3.org/2000/svg" viewBox="0 0 71 71"><defs><clipPath id="a"><path fill="none" d="M0 0h71v71H0z"/></clipPath></defs><title>development</title><g clip-path="url(#a)" fill="#eb4c4c" data-name="Layer 1"><path d="M69.3 0H1.7A1.75 1.75 0 0 0 0 1.7v67.6A1.75 1.75 0 0 0 1.7 71h67.6a1.75 1.75 0 0 0 1.7-1.7V1.7A1.75 1.75 0 0 0 69.3 0M24.5 4a2.05 2.05 0 0 1 2.1 2.1 2.1 2.1 0 1 1-4.2 0A2.05 2.05 0 0 1 24.5 4m-8.9 0a2.05 2.05 0 0 1 2.1 2.1 2.1 2.1 0 1 1-4.2 0A2.11 2.11 0 0 1 15.6 4M6.8 4a2.05 2.05 0 0 1 2.1 2.1 2.05 2.05 0 0 1-2.1 2.1 2.05 2.05 0 0 1-2.1-2.1A2.05 2.05 0 0 1 6.8 4M66 64.3a1.75 1.75 0 0 1-1.7 1.7H6.7A1.75 1.75 0 0 1 5 64.3V16a1.75 1.75 0 0 1 1.7-1.7h57.6A1.75 1.75 0 0 1 66 16z"/><path d="M49.7 50.9a2.47 2.47 0 0 1-1.9-.9 2.61 2.61 0 0 1 .2-3.5l5.9-5.9a1.39 1.39 0 0 0 0-1.9L48 32.8a2.6 2.6 0 0 1-.3-3.4 2.49 2.49 0 0 1 3.7-.2l8.8 8.8a2.41 2.41 0 0 1 .7 1.8 2.88 2.88 0 0 1-.7 1.8l-8.7 8.6a3.12 3.12 0 0 1-1.8.7M21.3 50.9a2.57 2.57 0 0 1-1.8-.7l-8.8-8.8a2.41 2.41 0 0 1-.7-1.8 2.88 2.88 0 0 1 .7-1.8l8.7-8.7a2.6 2.6 0 0 1 3.4-.3 2.5 2.5 0 0 1 .2 3.7l-6 6a1.39 1.39 0 0 0 0 1.9l5.9 5.9a2.61 2.61 0 0 1 .2 3.5 1.92 1.92 0 0 1-1.8 1.1M30.2 56.9a1.93 1.93 0 0 1-.8-.1 2.48 2.48 0 0 1-1.5-3.2l10.5-29.5a2.5 2.5 0 0 1 4.7 1.7L32.6 55.2a2.59 2.59 0 0 1-2.4 1.7"/></g></svg>