<svg xmlns="http://www.w3.org/2000/svg" viewBox="0 0 108 108"><defs><clipPath id="a"><path d="M60 66a6 6 0 1 0 6-6 6 6 0 0 0-6 6M36 42a6 6 0 1 0 6-6 6 6 0 0 0-6 6m29.17-4.83l-28 28a4 4 0 0 0 5.66 5.66l28-28a4 4 0 1 0-5.66-5.66M27.84 77.76V66.49a4 4 0 0 0-1.17-2.83l-8-8a2.4 2.4 0 0 1 0-3.39l8-8a4 4 0 0 0 1.17-2.83v-11.2a2.4 2.4 0 0 1 2.4-2.4h11.27a4 4 0 0 0 2.83-1.17l8-8a2.4 2.4 0 0 1 3.39 0l8 8a4 4 0 0 0 2.83 1.17h11.2a2.4 2.4 0 0 1 2.4 2.4v11.27a4 4 0 0 0 1.17 2.83l8 8a2.4 2.4 0 0 1 0 3.39l-8 8a4 4 0 0 0-1.17 2.83v11.2a2.4 2.4 0 0 1-2.4 2.4H66.49a4 4 0 0 0-2.83 1.17l-8 8a2.4 2.4 0 0 1-3.39 0l-8-8a4 4 0 0 0-2.83-1.17h-11.2a2.4 2.4 0 0 1-2.4-2.4M46.65 13l-6.8 6.79h-9.61a10.4 10.4 0 0 0-10.4 10.4v9.61L13 46.65a10.4 10.4 0 0 0 0 14.7l6.8 6.8v9.61a10.4 10.4 0 0 0 10.4 10.4h9.61l6.8 6.8a10.4 10.4 0 0 0 14.7 0l6.8-6.8h9.61a10.4 10.4 0 0 0 10.4-10.4v-9.61l6.8-6.8a10.4 10.4 0 0 0 0-14.7l-6.8-6.8v-9.61a10.4 10.4 0 0 0-10.4-10.4h-9.57L61.35 13a10.4 10.4 0 0 0-14.7 0" fill="none"/></clipPath></defs><title>discount</title><g clip-path="url(#a)" data-name="Layer 1"><path fill="#eb4c4c" d="M0 0h108v108H0z"/></g></svg>