<svg xmlns="http://www.w3.org/2000/svg" viewBox="0 0 72.24 90"><defs><clipPath id="a"><path fill="none" d="M0 0h72.24v90H0z"/></clipPath></defs><title>document</title><g data-name="Layer 1" fill="#07b"><path d="M9.18 14.16h18v4h-18zm0 7.18H45.1v4H9.18zm0 7.18H45.1v4H9.18zm0 7.18H45.1v4H9.18z"/><path d="M9.18 14.16h17.96v4H9.18zM9.18 21.35H45.1v4H9.18zM9.18 28.53H45.1v4H9.18zM9.18 35.71H45.1v4H9.18z"/><g clip-path="url(#a)"><path d="M57.67 44.68V0H3.8v3.39H0V72h25.82a23.55 23.55 0 1 0 31.85-27.32m-32.46 20c0 .59-.08 1.19-.08 1.8s0 1.07.06 1.59H4V7.39h46.29V43c-.53 0-1.06-.06-1.59-.06a23.79 23.79 0 0 0-3.59.27l-.33.06H9.27v4h25.84a23.54 23.54 0 0 0-9.89 17.42M48.69 86a19.55 19.55 0 0 1-19.46-17.75v-.2c0-.53-.08-1.06-.08-1.59s0-1.2.09-1.8A19.57 19.57 0 0 1 48.69 46.9c.54 0 1.06 0 1.59.08a19.44 19.44 0 0 1 3.8.69l.2.05A19.55 19.55 0 0 1 48.69 86"/><path d="M58.54 68.43l-4.25 2.72-1.4.89-2.26 1.45v-1.45l.02-3.79.01-3.6.03-8.97h-.4l-3.6-.01-.03 8.98-.01 3.39v.21l-.02 3.79v1.39l-2.09-1.39-5.52-3.66-2.21 3.33.5.33 11.29 7.5 12.1-7.74-2.16-3.37z"/></g></g></svg>