<svg xmlns="http://www.w3.org/2000/svg" viewBox="0 0 1215.87 613.55"><title>error-picture</title><g data-name="404"><path d="M729.41 580.61V429.26a13.69 13.69 0 0 0-13.69-13.69h-85.91a13.69 13.69 0 0 0-13.69 13.69v151.35h27.37V443H702v137.61zM856.87 324H779a13.69 13.69 0 0 0-13.69 13.69v242.9h27.37v-229.2h50.52v107.25a34.81 34.81 0 1 0 27.37.71V337.71a13.69 13.69 0 0 0-13.7-13.71zm-.82 180.62A13.69 13.69 0 1 1 869.74 491a13.69 13.69 0 0 1-13.69 13.64z" fill="#006aa2"/><path d="M259.86 278.88a3.78 3.78 0 0 1-3.78-3.78v-14.34a19.15 19.15 0 0 1 19.13-19.13h58a3.78 3.78 0 1 1 0 7.55h-58a11.59 11.59 0 0 0-11.58 11.58v14.35a3.78 3.78 0 0 1-3.77 3.77z" fill="#feed50"/><path d="M275.22 249.18h-1.88a11.59 11.59 0 0 0-11.58 11.58v14.35a3.76 3.76 0 0 1-1.9 3.26 3.91 3.91 0 0 0 .94.39 3.77 3.77 0 0 0 2.84-3.64v-14.36a11.59 11.59 0 0 1 11.58-11.58z" fill="#ffd90d"/><rect x="253.82" y="259.39" width="12.08" height="26.43" rx="2.11" ry="2.11" fill="#7b888b"/><path d="M263.79 259.39h-2.42v26.43h2.42a2.11 2.11 0 0 0 2.11-2.11V261.5a2.11 2.11 0 0 0-2.11-2.11z" fill="#657477"/><path d="M64 225.45a4.53 4.53 0 0 1-4.42-5.56l25.47-109.23a4.53 4.53 0 0 1 8.83 2.05L68.45 221.95a4.53 4.53 0 0 1-4.45 3.5zM78.57 225.45a4.53 4.53 0 0 1-4.42-5.56l25.43-109.23a4.53 4.53 0 1 1 8.83 2.05L83 221.95a4.53 4.53 0 0 1-4.43 3.5z" fill="#9aacad"/><path d="M58.7 227.33a4.53 4.53 0 0 1-4.42-5.56l25.44-109.22a4.53 4.53 0 0 1 8.83 2.05L63.11 223.83a4.53 4.53 0 0 1-4.41 3.5z" fill="#00abca"/><path d="M88 111.17a4.5 4.5 0 0 0-1.76 2.62L60.78 223a4.51 4.51 0 0 0 .58 3.43 4.5 4.5 0 0 0 1.76-2.63l25.42-109.2a4.51 4.51 0 0 0-.54-3.43z" fill="#0093ae"/><path d="M62.85 199.43a1.88 1.88 0 0 1-1.83-2.3l3.11-13.34a1.87 1.87 0 1 1 3.65.85L64.68 198a1.88 1.88 0 0 1-1.83 1.43z" fill="#b5dfe9"/><path d="M75.32 225.45a4.53 4.53 0 0 1-4.42-5.56l25.44-109.23a4.53 4.53 0 1 1 8.83 2.05L79.73 221.95a4.53 4.53 0 0 1-4.41 3.5z" fill="#eb6e17"/><path d="M104.59 109.29a4.5 4.5 0 0 0-1.76 2.62L77.4 221.14a4.51 4.51 0 0 0 .58 3.43 4.5 4.5 0 0 0 1.76-2.63l25.43-109.23a4.51 4.51 0 0 0-.58-3.42z" fill="#e95a10"/><path d="M360.8 319.41H341v-28.19A25.17 25.17 0 0 0 315.85 266h-58.4a25.17 25.17 0 0 0-25.17 25.17v28.19h-62.4l67.05-288A25.61 25.61 0 0 0 212 0h-47.3a40.44 40.44 0 0 0-39.39 31.27l-21.37 91.8h3.28L87 210h-3.3L39.92 398a24.53 24.53 0 0 0 23.89 30.09h168.47v160.15a25.17 25.17 0 0 0 25.17 25.17h58.4A25.17 25.17 0 0 0 341 588.24V428.15h21.28a23 23 0 0 0 23-23v-61.21a24.53 24.53 0 0 0-24.48-24.53z" fill="#b8bfbf"/><path d="M224.34 31.42l-67.05 288h12.59l67.05-288A25.61 25.61 0 0 0 212 0h-12.6a25.61 25.61 0 0 1 24.94 31.42z" fill="#9aacad"/><path fill="#9aacad" d="M178.84 170.33l24.76 4.21 2.28-9.77-23.5-3.62-3.54 9.18zM203.16 58.5l24.76 4.21 2.28-9.77-23.5-3.63-3.54 9.19zM328.44 291.22v28.19H341v-28.19A25.17 25.17 0 0 0 315.85 266h-12.58a25.17 25.17 0 0 1 25.17 25.22zM360.8 319.41h-12.59a24.53 24.53 0 0 1 24.53 24.53v61.19a23 23 0 0 1-23 23h12.59a23 23 0 0 0 23-23v-61.19a24.53 24.53 0 0 0-24.53-24.53zM328.44 588.24a25.17 25.17 0 0 1-25.17 25.17h12.59A25.17 25.17 0 0 0 341 588.24V428.15h-12.56z"/><path d="M237.29 29.48A25.61 25.61 0 0 0 212 0h-47.3a40.42 40.42 0 0 0-38.89 29.48z" fill="#cdd5d4"/><path d="M333.22 306.32h-11.69a6 6 0 0 1 0-12.08h11.69a6 6 0 0 1 0 12.08z" fill="#7b888b"/><path d="M339.26 300.28a6 6 0 0 0-6-6h-.09a6 6 0 1 0 0 12.08h.09a6 6 0 0 0 6-6.08z" fill="#5f7276"/><path d="M316.16 303a6 6 0 0 0 5.37 3.33h11.69a6 6 0 0 0 5.37-3.33z" fill="#687a7c"/><path d="M321.53 319.41h-19.77v-28.19A25.17 25.17 0 0 0 276.58 266h-58.4A25.17 25.17 0 0 0 193 291.22v28.19h-62.39l67.05-288A25.61 25.61 0 0 0 172.71 0h-47.27A40.44 40.44 0 0 0 86 31.27l-18.4 79a10.41 10.41 0 0 0 10.14 12.78h16.6a10.18 10.18 0 0 1 9.92 12.49l-15.5 66.57a10.18 10.18 0 0 1-9.87 7.89H52.7a10.41 10.41 0 0 0-10.14 8.05l-41.91 180a24.53 24.53 0 0 0 23.89 30.09H193v160.1a25.17 25.17 0 0 0 25.17 25.17h58.4a25.17 25.17 0 0 0 25.17-25.17V428.15H323a23 23 0 0 0 23-23v-61.21a24.53 24.53 0 0 0-24.47-24.53z" fill="#fff"/><path d="M211 291.78l-2.71-4.78 2.76-4.78h5.52l2.76 4.78-2.76 4.78zm71.41 0l2.76-4.78-2.76-4.78h-5.52l-2.72 4.78 2.76 4.78z" fill="#647071"/><path fill="#e7edf0" d="M213.57 282.22h-2.52l-2.77 4.78 2.77 4.78h2.52l-2.76-4.78 2.76-4.78zM279.45 282.22h-2.52l-2.76 4.78 2.76 4.78h2.52l-2.76-4.78 2.76-4.78z"/><path d="M210.29 502.61H197a1.51 1.51 0 1 1 0-3h13.25a3.32 3.32 0 0 0 2.36-1l10-10a6.31 6.31 0 0 1 4.49-1.86h20.29a1.51 1.51 0 1 1 0 3H227.1a3.32 3.32 0 0 0-2.36 1l-10 10a6.31 6.31 0 0 1-4.45 1.86z" fill="#b8bfbf"/><path d="M297.73 502.61h-13.25a6.31 6.31 0 0 1-4.5-1.86l-10-10a3.32 3.32 0 0 0-2.36-1h-20.23a1.51 1.51 0 0 1 0-3h20.29a6.31 6.31 0 0 1 4.5 1.86l10 10a3.36 3.36 0 0 0 2.36 1h13.25a1.51 1.51 0 0 1 0 3zM210.29 423.71H197a1.51 1.51 0 1 1 0-3h13.25a3.32 3.32 0 0 0 2.36-1l10-10a6.31 6.31 0 0 1 4.49-1.86h20.29a1.51 1.51 0 1 1 0 3H227.1a3.32 3.32 0 0 0-2.36 1l-10 10a6.31 6.31 0 0 1-4.45 1.86z" fill="#b8bfbf"/><path d="M297.73 423.71h-13.25a6.31 6.31 0 0 1-4.5-1.86l-10-10a3.32 3.32 0 0 0-2.36-1h-20.23a1.51 1.51 0 0 1 0-3h20.29a6.31 6.31 0 0 1 4.5 1.86l10 10a3.36 3.36 0 0 0 2.36 1h13.25a1.51 1.51 0 0 1 0 3zM267.67 339.75h-20.28a1.51 1.51 0 0 1 0-3h20.29a3.32 3.32 0 0 0 2.36-1l10-10a6.4 6.4 0 0 1 4.5-1.86h13.25a1.51 1.51 0 0 1 0 3h-13.31a3.36 3.36 0 0 0-2.36 1l-10 10a6.32 6.32 0 0 1-4.45 1.86z" fill="#b8bfbf"/><path d="M247.39 339.75H227.1a6.31 6.31 0 0 1-4.49-1.86l-10-10a3.32 3.32 0 0 0-2.36-1H197a1.51 1.51 0 1 1 0-3h13.25a6.31 6.31 0 0 1 4.49 1.86l10 10a3.32 3.32 0 0 0 2.36 1h20.29a1.51 1.51 0 0 1 0 3z" fill="#b8bfbf"/><path d="M172.71 7.55A18 18 0 0 1 188 16a18.69 18.69 0 0 1 2.2 14.28L123.25 317.7l-1.38 5.94a2.71 2.71 0 0 0 2.64 3.32h72.77a3.29 3.29 0 0 0 3.29-3.29v-32.45a17.62 17.62 0 0 1 17.62-17.62h58.4a17.62 17.62 0 0 1 17.62 17.62v32.46a3.29 3.29 0 0 0 3.29 3.29h24a17 17 0 0 1 17 17v61.19A15.47 15.47 0 0 1 323 420.6h-25.51a3.29 3.29 0 0 0-3.29 3.29v164.35a17.62 17.62 0 0 1-17.62 17.62h-58.4a17.62 17.62 0 0 1-17.62-17.62V423.88a3.29 3.29 0 0 0-3.29-3.29H25.06a17.58 17.58 0 0 1-12.27-4.71A16.94 16.94 0 0 1 8 399.77l41.91-180a2.86 2.86 0 0 1 2.79-2.21h26.19a17.74 17.74 0 0 0 17.27-13.71l15.38-66.05a18.35 18.35 0 0 0-2.16-14 17.68 17.68 0 0 0-15-8.26H77.79A2.86 2.86 0 0 1 75 112l18.4-79a32.89 32.89 0 0 1 32-25.43zm0-7.55h-47.27A40.44 40.44 0 0 0 86 31.27l-18.4 79a10.41 10.41 0 0 0 10.14 12.78h16.6a10.18 10.18 0 0 1 9.92 12.49l-15.5 66.57a10.18 10.18 0 0 1-9.87 7.89H52.7a10.41 10.41 0 0 0-10.14 8.05l-41.91 180a24.53 24.53 0 0 0 23.89 30.09H193v160.1a25.17 25.17 0 0 0 25.17 25.17h58.4a25.17 25.17 0 0 0 25.17-25.17V428.15H323a23 23 0 0 0 23-23v-61.21a24.53 24.53 0 0 0-24.53-24.53h-19.71v-28.19A25.17 25.17 0 0 0 276.58 266h-58.4A25.17 25.17 0 0 0 193 291.22v28.19h-62.39l67.05-288A25.61 25.61 0 0 0 172.71 0z" fill="#e7edf0"/><path d="M85.29 54.83a3.75 3.75 0 0 1-3.66-4.6l.37-1.77a3.75 3.75 0 1 1 7.31 1.7l-.41 1.76a3.75 3.75 0 0 1-3.61 2.91zM92 38.94l1.39-6A32.8 32.8 0 0 1 125.43 7.5h10.29a3.75 3.75 0 1 0 0-7.5h-10.29A40.27 40.27 0 0 0 86 31.27l-1.39 6A3.75 3.75 0 1 0 92 38.94zM200.52 300v-8.81a17.69 17.69 0 0 1 17.67-17.67h4a3.75 3.75 0 1 0 0-7.5h-4a25.2 25.2 0 0 0-25.19 25.2V300a3.75 3.75 0 1 0 7.5 0zm135.24 28.33a3.75 3.75 0 0 0-1.17-5.17 24.43 24.43 0 0 0-13.06-3.77h-6.32a3.75 3.75 0 0 0 0 7.5h6.32a16.94 16.94 0 0 1 9.06 2.61 3.75 3.75 0 0 0 5.17-1.17zm-135.24 243v-54.58a3.75 3.75 0 0 0-7.5 0v54.65a3.75 3.75 0 0 0 7.5 0zM13.08 377.72l3.17-13.63A3.75 3.75 0 1 0 9 362.4L5.78 376a3.75 3.75 0 1 0 7.31 1.7zM22 339.63l10.37-44.53a3.75 3.75 0 1 0-7.31-1.7l-10.41 44.52a3.75 3.75 0 1 0 7.31 1.7zm22.84-98.08l5.07-21.78a2.9 2.9 0 0 1 2.84-2.25 3.75 3.75 0 0 0 0-7.5 10.37 10.37 0 0 0-10.14 8.05l-5.07 21.78a3.75 3.75 0 1 0 7.31 1.7zm27.69-27.78a3.75 3.75 0 0 0-3.8-3.77h-3.92a3.75 3.75 0 1 0 0 7.5h3.91a3.75 3.75 0 0 0 3.76-3.74zM97.23 199l1.41-6a3.75 3.75 0 1 0-7.31-1.7l-1.41 6.06a3.75 3.75 0 1 0 7.31 1.7zm3.27-14l3-12.87a3.75 3.75 0 1 0-7.31-1.7l-3 12.87a3.75 3.75 0 1 0 7.31 1.7zm-25.6-65.26a3.75 3.75 0 0 0 .6-5.27A2.9 2.9 0 0 1 75 112l1.87-8a3.75 3.75 0 1 0-7.31-1.7l-1.87 8a10.36 10.36 0 0 0 2 8.84 3.75 3.75 0 0 0 5.27.6z" fill="#fff"/><path d="M276.27 576v7.68a2.58 2.58 0 0 1-2.58 2.58h-52.61a2.58 2.58 0 0 1-2.58-2.58V576a2.58 2.58 0 0 1 2.58-2.58h52.61a2.58 2.58 0 0 1 2.58 2.58zm-2.58-22.59h-52.61a2.58 2.58 0 0 0-2.58 2.59v7.68a2.58 2.58 0 0 0 2.58 2.58h52.61a2.58 2.58 0 0 0 2.58-2.58V556a2.58 2.58 0 0 0-2.58-2.63zm0-20h-52.61a2.58 2.58 0 0 0-2.58 2.58v7.68a2.58 2.58 0 0 0 2.58 2.58h52.61a2.58 2.58 0 0 0 2.58-2.58v-7.68a2.58 2.58 0 0 0-2.58-2.63zm0-20h-52.61a2.58 2.58 0 0 0-2.58 2.58v7.68a2.58 2.58 0 0 0 2.58 2.58h52.61a2.58 2.58 0 0 0 2.58-2.58v-7.68a2.58 2.58 0 0 0-2.58-2.64z" fill="#9aacad"/><path d="M218.5 541v-2.52a5.16 5.16 0 0 1 5.16-5.16h6.17a5.16 5.16 0 0 0-5.16 5.16V541a5.16 5.16 0 0 0 5.16 5.16h-6.17a5.16 5.16 0 0 1-5.16-5.16zm5.16-14.85h6.17a5.16 5.16 0 0 1-5.16-5.16v-2.52a5.16 5.16 0 0 1 5.16-5.16h-6.17a5.16 5.16 0 0 0-5.16 5.16V521a5.16 5.16 0 0 0 5.16 5.19zm0 40h6.17a5.16 5.16 0 0 1-5.16-5.16v-2.52a5.16 5.16 0 0 1 5.16-5.16h-6.17a5.16 5.16 0 0 0-5.16 5.16v2.52a5.16 5.16 0 0 0 5.16 5.22zm1 14.85v-2.52a5.16 5.16 0 0 1 5.16-5.16h-6.17a5.16 5.16 0 0 0-5.16 5.16V581a5.16 5.16 0 0 0 5.16 5.16h6.17a5.16 5.16 0 0 1-5.15-5.1z" fill="#e7edf0"/><path d="M108.88 24.3l-2.76-4.78 2.76-4.78h5.52l2.76 4.78-2.76 4.78zm71.41 0l2.76-4.78-2.76-4.78h-5.52L172 19.52l2.76 4.78z" fill="#647071"/><path fill="#e7edf0" d="M111.41 14.74h-2.53l-2.76 4.78 2.76 4.78h2.53l-2.77-4.78 2.77-4.78zM177.29 14.74h-2.52l-2.76 4.78 2.76 4.78h2.52l-2.76-4.78 2.76-4.78z"/><path d="M333.22 304.05a3.78 3.78 0 1 1 0-7.55 11.59 11.59 0 0 0 11.58-11.58v-24.16a11.59 11.59 0 0 0-11.58-11.58 3.78 3.78 0 1 1 0-7.55 19.15 19.15 0 0 1 19.13 19.13v24.16a19.15 19.15 0 0 1-19.13 19.13z" fill="#feed50"/><path d="M333.22 241.63a3.73 3.73 0 0 0-1.16.2 19.14 19.14 0 0 1 16.51 18.93v24.16a19.14 19.14 0 0 1-16.51 18.93 3.73 3.73 0 0 0 1.16.2 19.15 19.15 0 0 0 19.13-19.13v-24.16a19.15 19.15 0 0 0-19.13-19.13z" fill="#ffd90d"/><path d="M79.47 197.55a1.88 1.88 0 0 1-1.83-2.3L82 176.71a1.87 1.87 0 1 1 3.65.85l-4.31 18.53a1.88 1.88 0 0 1-1.87 1.46zM85.26 172.67a1.83 1.83 0 0 1-.43 0 1.87 1.87 0 0 1-1.4-2.25l.44-1.91a1.88 1.88 0 1 1 3.65.85l-.44 1.91a1.88 1.88 0 0 1-1.82 1.4z" fill="#fbd2b8"/><rect x="274.35" y="242.21" width="52.67" height="2.97" rx=".74" ry=".74" fill="#fffbd9"/><path d="M56.07 342.62h-.24a5.38 5.38 0 0 0-2.27 10.52 5.6 5.6 0 0 0 1.23.14 5.38 5.38 0 0 0 1.28-10.61z" fill="#009f2f"/><path d="M53.36 343.58h3.57a2.13 2.13 0 0 1 2.13 2.13V350a2.13 2.13 0 0 1-2.13 2.13h-3.57v-8.54-.01z" fill="#009634"/><path d="M54.27 343.7h-.19a4.26 4.26 0 0 0-1.8 8.34 4.44 4.44 0 0 0 1 .11 4.27 4.27 0 0 0 1-8.41z" fill="#009634"/><path d="M52 344.68h-.34a1.6 1.6 0 0 0-.41 3.17 1.67 1.67 0 0 0 .37 0 1.6 1.6 0 0 0 .38-3.16z" fill="#ecf4e3"/><path d="M75.83 342.62h-.24a5.38 5.38 0 0 0-2.27 10.52 5.6 5.6 0 0 0 1.23.14 5.38 5.38 0 0 0 1.28-10.61z" fill="#009f2f"/><path d="M73.12 343.58h3.57a2.13 2.13 0 0 1 2.13 2.13V350a2.13 2.13 0 0 1-2.13 2.13h-3.57v-8.54-.01z" fill="#009634"/><path d="M74 343.7h-.19A4.26 4.26 0 0 0 72 352a4.44 4.44 0 0 0 1 .11 4.27 4.27 0 0 0 1-8.41z" fill="#009634"/><path d="M71.78 344.68h-.34a1.6 1.6 0 0 0-.44 3.12 1.67 1.67 0 0 0 .37 0 1.6 1.6 0 0 0 .38-3.16z" fill="#ecf4e3"/><path d="M95.59 342.62h-.24a5.38 5.38 0 0 0-2.27 10.52 5.6 5.6 0 0 0 1.23.14 5.38 5.38 0 0 0 1.28-10.61z" fill="#009f2f"/><path d="M92.88 343.58h3.57a2.13 2.13 0 0 1 2.13 2.13V350a2.13 2.13 0 0 1-2.13 2.13h-3.57v-8.54-.01z" fill="#009634"/><path d="M93.79 343.7h-.19a4.26 4.26 0 0 0-1.8 8.3 4.44 4.44 0 0 0 1 .11 4.27 4.27 0 0 0 1-8.41z" fill="#009634"/><path d="M91.54 344.68h-.34a1.6 1.6 0 0 0-.41 3.17 1.67 1.67 0 0 0 .37 0 1.6 1.6 0 0 0 .38-3.16z" fill="#ecf4e3"/><path d="M115.36 342.62h-.24a5.38 5.38 0 0 0-2.27 10.52 5.6 5.6 0 0 0 1.23.14 5.38 5.38 0 0 0 1.28-10.61z" fill="#009f2f"/><path d="M112.64 343.58h3.57a2.13 2.13 0 0 1 2.13 2.13V350a2.13 2.13 0 0 1-2.13 2.13h-3.57v-8.54-.01z" fill="#009634"/><path d="M113.55 343.7h-.19a4.26 4.26 0 0 0-1.8 8.34 4.44 4.44 0 0 0 1 .11 4.27 4.27 0 0 0 1-8.41z" fill="#009634"/><path d="M111.31 344.68h-.34a1.6 1.6 0 0 0-.41 3.17 1.67 1.67 0 0 0 .37 0 1.6 1.6 0 0 0 .38-3.16z" fill="#ecf4e3"/><path d="M135.12 342.62h-.24a5.38 5.38 0 0 0-2.27 10.52 5.6 5.6 0 0 0 1.23.14 5.38 5.38 0 0 0 1.28-10.61z" fill="#009f2f"/><path d="M132.4 343.58h3.6a2.13 2.13 0 0 1 2.13 2.13V350a2.13 2.13 0 0 1-2.13 2.13h-3.6v-8.54-.01z" fill="#009634"/><path d="M133.31 343.7h-.19a4.26 4.26 0 0 0-1.8 8.34 4.44 4.44 0 0 0 1 .11 4.27 4.27 0 0 0 1-8.41z" fill="#009634"/><path d="M131.07 344.68h-.34a1.6 1.6 0 0 0-.41 3.17 1.67 1.67 0 0 0 .37 0 1.6 1.6 0 0 0 .38-3.16z" fill="#ecf4e3"/><path d="M154.88 342.62h-.24a5.38 5.38 0 0 0-2.27 10.52 5.6 5.6 0 0 0 1.23.14 5.38 5.38 0 0 0 1.28-10.61z" fill="#009f2f"/><path d="M152.16 343.58h3.57a2.13 2.13 0 0 1 2.13 2.13V350a2.13 2.13 0 0 1-2.13 2.13h-3.57v-8.54-.01z" fill="#009634"/><path d="M153.07 343.7h-.19a4.26 4.26 0 0 0-1.8 8.34 4.44 4.44 0 0 0 1 .11 4.27 4.27 0 0 0 1-8.41z" fill="#009634"/><path d="M150.83 344.68h-.34a1.6 1.6 0 0 0-.41 3.17 1.67 1.67 0 0 0 .37 0 1.6 1.6 0 0 0 .38-3.16z" fill="#ecf4e3"/><path d="M174.64 342.62h-.24a5.38 5.38 0 0 0-2.27 10.52 5.6 5.6 0 0 0 1.23.14 5.38 5.38 0 0 0 1.28-10.61z" fill="#009f2f"/><path d="M171.92 343.58h3.57a2.13 2.13 0 0 1 2.13 2.13V350a2.13 2.13 0 0 1-2.13 2.13h-3.57v-8.54-.01z" fill="#009634"/><path d="M172.83 343.7h-.19a4.26 4.26 0 0 0-1.8 8.34 4.44 4.44 0 0 0 1 .11 4.27 4.27 0 0 0 1-8.41z" fill="#009634"/><path d="M170.59 344.68h-.34a1.6 1.6 0 0 0-.41 3.17 1.67 1.67 0 0 0 .37 0 1.6 1.6 0 0 0 .38-3.16z" fill="#ecf4e3"/><path d="M318 343.68h-.24a5.38 5.38 0 0 0-2.27 10.52 5.61 5.61 0 0 0 1.23.14 5.38 5.38 0 0 0 1.28-10.66z" fill="#f4a467"/><path d="M315.32 344.64h3.57a2.13 2.13 0 0 1 2.13 2.13V351a2.13 2.13 0 0 1-2.13 2.13h-3.57v-8.54.05z" fill="#ee7d2e"/><path d="M316.23 344.76h-.19a4.26 4.26 0 0 0-1.8 8.34 4.44 4.44 0 0 0 1 .11 4.27 4.27 0 0 0 1-8.41z" fill="#ee7d2e"/><path d="M314 345.74h-.34a1.6 1.6 0 0 0-.41 3.17 1.67 1.67 0 0 0 .37 0 1.6 1.6 0 0 0 .38-3.16z" fill="#fff"/><path d="M318 362.07h-.24a5.38 5.38 0 0 0-2.27 10.52 5.61 5.61 0 0 0 1.23.14 5.38 5.38 0 0 0 1.28-10.66z" fill="#009f2f"/><path d="M315.32 363h3.57a2.13 2.13 0 0 1 2.13 2.13v4.27a2.13 2.13 0 0 1-2.13 2.13h-3.57V363z" fill="#009634"/><path d="M316.23 363.15h-.19a4.26 4.26 0 0 0-1.8 8.34 4.44 4.44 0 0 0 1 .11 4.27 4.27 0 0 0 1-8.41z" fill="#009634"/><path d="M314 364.13h-.34a1.6 1.6 0 0 0-.41 3.17 1.67 1.67 0 0 0 .37 0 1.6 1.6 0 0 0 .38-3.16z" fill="#ecf4e3"/><path d="M247.39 394.67a20.89 20.89 0 0 1-11.68-38.21 3 3 0 0 1 3.38 5 14.85 14.85 0 1 0 16.41-.12 3 3 0 0 1 3.31-5.06 20.89 20.89 0 0 1-11.42 38.38z" fill="#50bedc"/><path d="M247.39 379.69a3 3 0 0 1-3-3v-23.46a3 3 0 1 1 6 0v23.44a3 3 0 0 1-3 3.02z" fill="#50bedc"/><path d="M231.83 78.65h-17.54a7.55 7.55 0 0 1 0-15.1h17.54a7.55 7.55 0 0 1 0 15.1z" fill="#7b888b"/><path d="M207.78 74.86a7.52 7.52 0 0 0 6.51 3.79h17.54a7.52 7.52 0 0 0 6.51-3.79z" fill="#687a7c"/><path d="M239.38 71.1a7.55 7.55 0 0 0-7.55-7.55H231a7.55 7.55 0 1 0 0 15.1h.82a7.55 7.55 0 0 0 7.56-7.55z" fill="#5f7276"/><path d="M207.3 190.41h-17.54a7.55 7.55 0 1 1 0-15.1h17.54a7.55 7.55 0 0 1 0 15.1z" fill="#7b888b"/><path d="M183.24 186.62a7.52 7.52 0 0 0 6.51 3.79h17.55a7.52 7.52 0 0 0 6.51-3.79z" fill="#687a7c"/><path d="M214.85 182.86a7.55 7.55 0 0 0-7.55-7.55h-.82a7.55 7.55 0 1 0 0 15.1h.82a7.55 7.55 0 0 0 7.55-7.55z" fill="#5f7276"/><path d="M208.82 188.14h-1.52a5.29 5.29 0 0 1 0-10.57h1.53a18.41 18.41 0 0 0 18.07-14.47l16.27-72.56a11.62 11.62 0 0 0-11.34-14.16 5.29 5.29 0 0 1 0-10.57 22.19 22.19 0 0 1 21.65 27l-16.27 72.56a28.93 28.93 0 0 1-28.39 22.77z" fill="#f08a36"/><path d="M207.3 188.14h1.52a28.93 28.93 0 0 0 28.39-22.72l16.27-72.56a22.19 22.19 0 0 0-21.65-27 5.29 5.29 0 0 0-5.29 5.29h5.29a16.9 16.9 0 0 1 16.49 20.6L232 164.26a23.8 23.8 0 0 1-23.23 18.6H202a5.29 5.29 0 0 0 5.3 5.28z" fill="#eb6e17"/><rect x="220.22" y="136.22" width="32.19" height="18.12" rx="3.83" ry="3.83" transform="matrix(.22 -.98 .98 .22 42.85 344.08)" fill="#7b888b"/><path d="M234.47 161.36l3.43.77a3.83 3.83 0 0 0 4.58-2.9l5.37-23.94a3.83 3.83 0 0 0-2.9-4.58l-3.43-.77z" fill="#6a797c"/><path d="M221.93 58.63h-17.55a7.55 7.55 0 0 1 0-15.1h17.54a7.55 7.55 0 1 1 0 15.1zM197.39 170.39h-17.54a7.55 7.55 0 1 1 0-15.1h17.54a7.55 7.55 0 0 1 0 15.1z" fill="#7b888b"/><path d="M173.34 166.6a7.52 7.52 0 0 0 6.51 3.79h17.54a7.52 7.52 0 0 0 6.51-3.79zM197.87 54.84a7.52 7.52 0 0 0 6.51 3.79h17.54a7.52 7.52 0 0 0 6.51-3.79z" fill="#687a7c"/><path d="M204.94 162.84a7.55 7.55 0 0 0-7.55-7.55h-.82a7.55 7.55 0 1 0 0 15.1h.82a7.55 7.55 0 0 0 7.55-7.55zM229.48 51.08a7.55 7.55 0 0 0-7.55-7.55h-.82a7.55 7.55 0 0 0 0 15.1h.82a7.55 7.55 0 0 0 7.55-7.55z" fill="#5f7276"/><path d="M198.92 168.12h-1.53a5.29 5.29 0 1 1 0-10.57h1.53A18.42 18.42 0 0 0 217 143.09l16.27-72.56a11.62 11.62 0 0 0-11.34-14.16 5.29 5.29 0 1 1 0-10.57 22.19 22.19 0 0 1 21.65 27l-16.28 72.6a28.93 28.93 0 0 1-28.38 22.72z" fill="#50bedc"/><path d="M197.39 168.12h1.53a28.93 28.93 0 0 0 28.38-22.72l16.27-72.56a22.19 22.19 0 0 0-21.65-27 5.29 5.29 0 0 0-5.29 5.29h5.29a16.9 16.9 0 0 1 16.49 20.6l-16.27 72.56a23.8 23.8 0 0 1-23.23 18.6h-6.81a5.29 5.29 0 0 0 5.29 5.23z" fill="#00abca"/><rect x="209.41" y="120.37" width="32.19" height="18.12" rx="3.83" ry="3.83" transform="rotate(-77.36 225.498 129.43)" fill="#7b888b"/><path d="M223.66 145.51l3.43.77a3.83 3.83 0 0 0 4.58-2.9l5.33-23.94a3.83 3.83 0 0 0-2.9-4.58l-3.43-.77z" fill="#6a797c"/><path d="M120.56 213.23a4.07 4.07 0 0 1-4-5l18.84-80.93a4.07 4.07 0 0 1 7.92 1.85l-18.84 80.93a4.07 4.07 0 0 1-3.92 3.15z" fill="#545859"/><path d="M120.46 139.18l-.9 3.86a2.88 2.88 0 0 0 2.81 3.54h26.51a5.09 5.09 0 0 0 5-3.94l.9-3.86a2.88 2.88 0 0 0-2.81-3.54h-26.55a5.09 5.09 0 0 0-4.96 3.94z" fill="#5f574d"/><path d="M120.46 136.54l-.9 3.86a2.88 2.88 0 0 0 2.81 3.54h26.51a5.09 5.09 0 0 0 5-3.94l.9-3.86a2.88 2.88 0 0 0-2.81-3.54h-26.55a5.09 5.09 0 0 0-4.96 3.94z" fill="#b8bfbf"/><path d="M151 137.24l.25-1.13a2.88 2.88 0 0 0-2.8-3.5h-22.84a5.28 5.28 0 0 0-5.14 4.08l-.25 1.13a2.88 2.88 0 0 0 2.8 3.5h22.81a5.28 5.28 0 0 0 5.17-4.08zM101.21 39.22h.09c.13.06.26.09.4.14a4.17 4.17 0 0 0 .4.14 3.89 3.89 0 0 0 1 .12 4.27 4.27 0 0 0 1-8.43 4.22 4.22 0 0 0-1.86 0h-.09a4.3 4.3 0 0 0-.55.16 4 4 0 0 0-1.56.94 4.22 4.22 0 0 0 1.24 6.87zM96.46 63.53a3.89 3.89 0 0 0 1 .12 4.3 4.3 0 1 0-1-.12z" fill="#e7edf0"/><path d="M96 84.35a4.27 4.27 0 0 0-3.07-5.08h-.12a4.26 4.26 0 0 0-5.11 3.16 4.27 4.27 0 0 0 3.18 5.14 4.51 4.51 0 0 0 1 .11A4.35 4.35 0 0 0 96 84.35z" fill="#25a22d"/><path d="M87.25 103.23h-.19a4.26 4.26 0 0 0-1.8 8.34 4.44 4.44 0 0 0 1 .11 4.27 4.27 0 0 0 1-8.41z" fill="#008f36"/><path d="M90.05 91.24h-.19a4.26 4.26 0 0 0-1.8 8.34 4.44 4.44 0 0 0 1 .11 4.27 4.27 0 0 0 1-8.41z" fill="#009634"/><path d="M93.66 75.54a4.44 4.44 0 0 0 1 .11 4.27 4.27 0 0 0 1-8.41h-.19a4.26 4.26 0 0 0-1.8 8.34zM99.26 51.55a4.44 4.44 0 0 0 1 .11 4.27 4.27 0 0 0 1-8.41h-.19a4.26 4.26 0 0 0-1.8 8.34zM113.9 39.22h.09c.13.06.26.09.4.14a4.17 4.17 0 0 0 .4.14 3.89 3.89 0 0 0 1 .12 4.27 4.27 0 0 0 1-8.43 4.22 4.22 0 0 0-1.86 0h-.09a4.3 4.3 0 0 0-.55.16 4 4 0 0 0-1.56.94 4.22 4.22 0 0 0 1.24 6.87z" fill="#e7edf0"/><path d="M114.28 60.35a4.27 4.27 0 1 0-5.13 3.18 3.89 3.89 0 0 0 1 .12 4.29 4.29 0 0 0 4.13-3.3z" fill="#a8c500"/><path d="M108.68 84.35a4.27 4.27 0 0 0-3.07-5.08h-.12a4.26 4.26 0 0 0-5.11 3.16 4.27 4.27 0 0 0 3.18 5.14 4.51 4.51 0 0 0 1 .11 4.35 4.35 0 0 0 4.16-3.31z" fill="#25a22d"/><path d="M99.94 103.23h-.19a4.26 4.26 0 0 0-1.8 8.34 4.44 4.44 0 0 0 1 .11 4.27 4.27 0 0 0 1-8.41z" fill="#008f36"/><path d="M102.74 91.24h-.19a4.26 4.26 0 0 0-1.8 8.34 4.44 4.44 0 0 0 1 .11 4.27 4.27 0 0 0 1-8.41z" fill="#009634"/><path d="M108.29 67.23h-.14a4.26 4.26 0 0 0-1.8 8.34 4.44 4.44 0 0 0 1 .11 4.27 4.27 0 0 0 1-8.41z" fill="#76b31f"/><path d="M112 51.55a4.44 4.44 0 0 0 1 .11 4.27 4.27 0 0 0 1-8.41h-.19a4.26 4.26 0 0 0-1.8 8.34z" fill="#e7edf0"/><path d="M126.59 39.22h.09c.13.06.26.09.4.14a4.17 4.17 0 0 0 .4.14 3.89 3.89 0 0 0 1 .12 4.27 4.27 0 0 0 1-8.43 4.22 4.22 0 0 0-1.86 0h-.09a4.3 4.3 0 0 0-.55.16 4 4 0 0 0-1.56.94 4.22 4.22 0 0 0 1.24 6.87z" fill="#fceb41"/><path d="M127 60.35a4.27 4.27 0 1 0-5.13 3.18 3.89 3.89 0 0 0 1 .12 4.29 4.29 0 0 0 4.13-3.3z" fill="#a8c500"/><path d="M121.37 84.35a4.27 4.27 0 0 0-3.07-5.08h-.12a4.26 4.26 0 0 0-5.11 3.16 4.27 4.27 0 0 0 3.18 5.14 4.51 4.51 0 0 0 1 .11 4.35 4.35 0 0 0 4.16-3.31z" fill="#25a22d"/><path d="M112.63 103.23h-.19a4.26 4.26 0 0 0-1.8 8.34 4.44 4.44 0 0 0 1 .11 4.27 4.27 0 0 0 1-8.41z" fill="#008f36"/><path d="M115.43 91.24h-.19a4.26 4.26 0 0 0-1.8 8.34 4.44 4.44 0 0 0 1 .11 4.27 4.27 0 0 0 1-8.41z" fill="#009634"/><path d="M121 67.23h-.14a4.26 4.26 0 0 0-1.8 8.34 4.44 4.44 0 0 0 1 .11 4.27 4.27 0 0 0 1-8.41z" fill="#76b31f"/><path d="M124.64 51.55a4.44 4.44 0 0 0 1 .11 4.27 4.27 0 0 0 1-8.41h-.19a4.26 4.26 0 0 0-1.8 8.34z" fill="#d2d600"/><path d="M139.28 39.22h.09c.13.06.26.09.4.14a4.18 4.18 0 0 0 .4.14 3.89 3.89 0 0 0 1 .12 4.27 4.27 0 0 0 1-8.43 4.22 4.22 0 0 0-1.86 0h-.09a4.3 4.3 0 0 0-.55.16 4 4 0 0 0-1.56.94 4.22 4.22 0 0 0 1.24 6.87z" fill="#e7edf0"/><path d="M139.66 60.35a4.27 4.27 0 1 0-5.13 3.18 3.89 3.89 0 0 0 1 .12 4.29 4.29 0 0 0 4.13-3.3z" fill="#a8c500"/><path d="M134.06 84.35a4.27 4.27 0 0 0-3.06-5.09h-.12a4.26 4.26 0 0 0-5.11 3.16 4.27 4.27 0 0 0 3.18 5.14 4.51 4.51 0 0 0 1 .11 4.35 4.35 0 0 0 4.16-3.31z" fill="#25a22d"/><path d="M125.32 103.23h-.19a4.26 4.26 0 0 0-1.8 8.34 4.44 4.44 0 0 0 1 .11 4.27 4.27 0 0 0 1-8.41z" fill="#008f36"/><path d="M128.12 91.24h-.19a4.26 4.26 0 0 0-1.8 8.34 4.44 4.44 0 0 0 1 .11 4.27 4.27 0 0 0 1-8.41z" fill="#009634"/><path d="M133.67 67.23h-.14a4.26 4.26 0 0 0-1.8 8.34 4.44 4.44 0 0 0 1 .11 4.27 4.27 0 0 0 1-8.41z" fill="#76b31f"/><path d="M137.33 51.55a4.44 4.44 0 0 0 1 .11 4.27 4.27 0 0 0 1-8.41h-.19a4.26 4.26 0 0 0-1.8 8.34zM152 39.22h.09c.13.06.26.09.4.14a4.18 4.18 0 0 0 .4.14 3.89 3.89 0 0 0 1 .12 4.27 4.27 0 0 0 1-8.43 4.22 4.22 0 0 0-1.86 0h-.09a4.3 4.3 0 0 0-.55.16 4 4 0 0 0-1.56.94 4.22 4.22 0 0 0 1.17 6.93zM152.35 60.35a4.27 4.27 0 1 0-5.13 3.18 3.89 3.89 0 0 0 1 .12 4.29 4.29 0 0 0 4.13-3.3z" fill="#e7edf0"/><path d="M146.75 84.35a4.27 4.27 0 0 0-3.07-5.08h-.12a4.26 4.26 0 0 0-5.11 3.16 4.27 4.27 0 0 0 3.18 5.14 4.51 4.51 0 0 0 1 .11 4.35 4.35 0 0 0 4.16-3.31z" fill="#25a22d"/><path d="M138 103.23h-.19a4.26 4.26 0 0 0-1.8 8.34 4.44 4.44 0 0 0 1 .11 4.27 4.27 0 0 0 1-8.41z" fill="#008f36"/><path d="M140.81 91.24h-.19a4.26 4.26 0 0 0-1.8 8.34 4.44 4.44 0 0 0 1 .11 4.27 4.27 0 0 0 1-8.41z" fill="#009634"/><path d="M146.36 67.23h-.14a4.26 4.26 0 0 0-1.8 8.34 4.44 4.44 0 0 0 1 .11 4.27 4.27 0 0 0 1-8.41z" fill="#76b31f"/><path d="M150 51.55a4.44 4.44 0 0 0 1 .11 4.27 4.27 0 0 0 1-8.41h-.19a4.26 4.26 0 0 0-1.8 8.34zM164.66 39.22h.09c.13.06.26.09.4.14a4.18 4.18 0 0 0 .4.14 3.89 3.89 0 0 0 1 .12 4.27 4.27 0 0 0 1-8.43 4.22 4.22 0 0 0-1.86 0h-.09a4.3 4.3 0 0 0-.55.16 4 4 0 0 0-1.56.94 4.22 4.22 0 0 0 1.24 6.87zM165 60.35a4.27 4.27 0 1 0-5.13 3.18 3.89 3.89 0 0 0 1 .12 4.29 4.29 0 0 0 4.13-3.3z" fill="#e7edf0"/><path d="M159.44 84.35a4.27 4.27 0 0 0-3.07-5.08h-.12a4.26 4.26 0 0 0-5.11 3.16 4.27 4.27 0 0 0 3.18 5.14 4.51 4.51 0 0 0 1 .11 4.35 4.35 0 0 0 4.16-3.31z" fill="#25a22d"/><path d="M150.7 103.23h-.19a4.26 4.26 0 0 0-1.8 8.34 4.44 4.44 0 0 0 1 .11 4.27 4.27 0 0 0 1-8.41z" fill="#008f36"/><path d="M153.5 91.24h-.19a4.26 4.26 0 0 0-1.8 8.34 4.44 4.44 0 0 0 1 .11 4.27 4.27 0 0 0 1-8.41z" fill="#009634"/><path d="M159.05 67.23h-.14a4.26 4.26 0 0 0-1.8 8.34 4.44 4.44 0 0 0 1 .11 4.27 4.27 0 0 0 1-8.41zM162.71 51.55a4.44 4.44 0 0 0 1 .11 4.27 4.27 0 0 0 1-8.41h-.19a4.26 4.26 0 0 0-1.8 8.34zM180.17 31.23a4.22 4.22 0 0 0-1.86 0h-.09a4.3 4.3 0 0 0-.55.16 4 4 0 0 0-1.56.94 4.22 4.22 0 0 0 1.24 6.87h.09c.13.06.26.09.4.14a4.17 4.17 0 0 0 .4.14 3.89 3.89 0 0 0 1 .12 4.27 4.27 0 0 0 1-8.43z" fill="#e7edf0"/><path d="M174.53 55.23a4.26 4.26 0 0 0-1.94 8.31 3.89 3.89 0 0 0 1 .12 4.27 4.27 0 0 0 1-8.43z" fill="#a8c500"/><path d="M169.06 79.26h-.12a4.26 4.26 0 0 0-5.11 3.16 4.27 4.27 0 0 0 3.17 5.12 4.51 4.51 0 0 0 1 .11 4.26 4.26 0 0 0 1.09-8.39z" fill="#25a22d"/><path d="M163.39 103.23h-.19a4.26 4.26 0 0 0-1.8 8.34 4.44 4.44 0 0 0 1 .11 4.27 4.27 0 0 0 1-8.41z" fill="#008f36"/><path d="M166.19 91.24H166a4.26 4.26 0 0 0-1.8 8.34 4.44 4.44 0 0 0 1 .11 4.27 4.27 0 0 0 1-8.41z" fill="#009634"/><path d="M171.79 67.24h-.19a4.26 4.26 0 0 0-1.8 8.34 4.44 4.44 0 0 0 1 .11 4.27 4.27 0 0 0 1-8.41z" fill="#76b31f"/><path d="M177.39 43.25h-.19a4.26 4.26 0 0 0-1.8 8.34 4.44 4.44 0 0 0 1 .11 4.27 4.27 0 0 0 1-8.41z" fill="#e7edf0"/><path d="M626.15 13.59c75.69 0 137.26 61.58 137.26 137.26v311.7c0 75.69-61.58 137.26-137.26 137.26H548.2c-75.69 0-137.26-61.58-137.26-137.26V150.86c0-75.69 61.58-137.26 137.26-137.26zM548.2 518.26h77.94a55.77 55.77 0 0 0 55.71-55.71V150.86a55.77 55.77 0 0 0-55.71-55.71H548.2a55.77 55.77 0 0 0-55.71 55.71v311.69a55.77 55.77 0 0 0 55.71 55.71zM626.15 0H548.2C465 0 397.35 67.67 397.35 150.86v311.69c0 83.18 67.67 150.86 150.86 150.86h77.94c83.18 0 150.86-67.67 150.86-150.86V150.86C777 67.67 709.33 0 626.15 0zM548.2 504.67a42.17 42.17 0 0 1-42.12-42.12V150.86a42.16 42.16 0 0 1 42.12-42.12h77.94a42.16 42.16 0 0 1 42.12 42.12v311.69a42.17 42.17 0 0 1-42.12 42.12z" fill="#fff"/><rect x="620.8" y="487.34" width="7.16" height="27.42" rx="1.79" ry="1.79" transform="rotate(-45 624.37 501.047)" fill="#d7800a"/><rect x="607.07" y="487.34" width="7.16" height="27.42" rx="1.79" ry="1.79" transform="rotate(-45 610.652 501.05)" fill="#d7800a"/><rect x="593.35" y="487.34" width="7.16" height="27.42" rx="1.79" ry="1.79" transform="rotate(-45 596.933 501.052)" fill="#d7800a"/><rect x="579.62" y="487.34" width="7.16" height="27.42" rx="1.79" ry="1.79" transform="rotate(-45 583.202 501.05)" fill="#d7800a"/><path d="M665.42 613.41h-77.95c-83.18 0-150.86-67.67-150.86-150.86V150.86C436.62 67.67 504.29 0 587.47 0h77.94c83.19 0 150.86 67.67 150.86 150.86v311.69c0 83.18-67.67 150.86-150.85 150.86zm-77.95-504.67a42.16 42.16 0 0 0-42.12 42.12v311.69a42.17 42.17 0 0 0 42.12 42.12h77.94a42.17 42.17 0 0 0 42.12-42.12V150.86a42.17 42.17 0 0 0-42.12-42.12z" fill="#b8bfbf"/><path d="M545.35 462.55V150.86a42.16 42.16 0 0 1 42.12-42.12h-13.59a42.16 42.16 0 0 0-42.12 42.12v311.69a42.17 42.17 0 0 0 42.12 42.12h13.59a42.17 42.17 0 0 1-42.12-42.12zM665.42 0h-13.6C735 0 802.68 67.67 802.68 150.86v311.69c0 83.18-67.67 150.86-150.86 150.86h13.59c83.18 0 150.86-67.67 150.86-150.86V150.86C816.27 67.67 748.6 0 665.42 0z" fill="#9aacad"/><path d="M548.2 606.61c-79.43 0-144.06-64.63-144.06-144.06V150.86C404.14 71.42 468.77 6.8 548.2 6.8h77.94c79.44 0 144.06 64.63 144.06 144.06v311.69c0 79.44-64.63 144.06-144.06 144.06zm0-504.67a49 49 0 0 0-48.91 48.91v311.7a49 49 0 0 0 48.91 48.91h77.94a49 49 0 0 0 48.91-48.91V150.86a49 49 0 0 0-48.91-48.91z" fill="#009168"/><path d="M749.22 408.91h-67.36v-24.38H737v-62.3h-55.14v-24.39h67.36A12.19 12.19 0 0 1 761.41 310v86.69a12.19 12.19 0 0 1-12.19 12.22zm21 38.4v-24.38H704a12.19 12.19 0 0 0-12.19 12.19v73.24a12.19 12.19 0 0 0 3.57 8.62l38.75 38.75 17.24-17.24-35.18-35.18v-56zM639.63 548.52h-70.21v-37.06H545v49.24a12.19 12.19 0 0 0 12.19 12.19h94.6A12.19 12.19 0 0 0 664 560.71v-56.55h-24.37zM471 479.69a12.19 12.19 0 0 0-8.62-3.57h-39.25v-31H458a12.19 12.19 0 0 0 8.62-3.57l41.29-41.29L490.67 383 453 420.75h-42a12.19 12.19 0 0 0-12.19 12.19v55.37A12.19 12.19 0 0 0 411 500.5h46.39l30.9 30.9-33.79 33.74 17.24 17.24L514.09 540a12.19 12.19 0 0 0 0-17.24zm-60.06-163.45h86.66v-24.38h-74.47v-77.18h12.27a12.19 12.19 0 0 0 8.62-3.57l33.81-33.81a12.19 12.19 0 0 0 3.57-8.62v-35l67.94-67.94h106.55l45 45a12.19 12.19 0 0 0 8.62 3.57h52V90h-46.92l-45-45a12.19 12.19 0 0 0-8.62-3.57H544.29a12.19 12.19 0 0 0-8.62 3.57l-31.29 31.21-38.77-38.77-17.24 17.24 38.77 38.77L460.59 120a12.19 12.19 0 0 0-3.57 8.62v35l-26.67 26.68h-19.41v12.19h-12.19v101.56a12.19 12.19 0 0 0 12.19 12.19z" fill="#4daa45"/><path d="M771.87 288.89h-62.62a1.87 1.87 0 0 0-1.87 1.88v3.38a3.75 3.75 0 1 0 3.75 0v-1.51h11.27V294a3.74 3.74 0 1 0 3.75.24v-1.63h11.28v1.18a3.74 3.74 0 1 0 3.75.87v-2h11.28v1.21a3.75 3.75 0 1 0 3.75.78v-2h15.67a1.88 1.88 0 0 0 0-3.75zM769 479.13h-13.45v-47.36h13.2a1.88 1.88 0 0 0 1.88-1.87v-23.68a1.87 1.87 0 0 0-1.87-1.87h-13v-62.82a3.76 3.76 0 1 0-3.75.2v64.5a1.88 1.88 0 0 0 1.88 1.88h13V428h-13.2a1.88 1.88 0 0 0-1.87 1.88V481a1.87 1.87 0 0 0 1.88 1.88H769a1.88 1.88 0 0 0 0-3.75zM601.28 551.33h80.58a1.88 1.88 0 0 0 1.33-.55L736 498a1.88 1.88 0 0 0 .55-1.33V348.71a1.88 1.88 0 0 0-1.87-1.87h-49.39a1.88 1.88 0 0 0 0 3.75h47.51v145.27l-51.72 51.72h-77.93v-31.42h9.47v21.1a1.87 1.87 0 0 0 1.87 1.87h60.56a1.88 1.88 0 0 0 1.33-.55l45-45a1.88 1.88 0 0 0 .55-1.33V363a1.87 1.87 0 0 0-1.87-1.87h-34.77a1.87 1.87 0 0 0-1.87 1.87v20.42a1.87 1.87 0 0 0 1.88 1.87h19.76v97.26L668 519.67h-23.5v-6.31a1.87 1.87 0 1 0-3.75 0v8.19a1.87 1.87 0 0 0 1.88 1.88h26.11a1.88 1.88 0 0 0 1.33-.55l38.19-38.2a1.87 1.87 0 0 0 .55-1.33v-99.91a1.87 1.87 0 0 0-1.87-1.87h-19.77V364.9h31v126.56l-43.93 43.93h-57.87v-21.1a1.88 1.88 0 0 0-1.87-1.87h-13.22a1.88 1.88 0 0 0-1.87 1.88v35.16a1.87 1.87 0 0 0 1.87 1.87zM486.3 288.42a3.74 3.74 0 0 0 1.88-7v-47.78a3.72 3.72 0 0 0 0-6.46v-55.39a1.87 1.87 0 0 0-.6-1.37l-21.74-20.3v-31a3.65 3.65 0 0 0 1.74-4.18L498.44 84a3.69 3.69 0 0 0 4.56-1.59h29.29a3.72 3.72 0 0 0 6.46 0h28.51a1.87 1.87 0 1 0 0-3.75h-28.52a3.74 3.74 0 0 0-1.36-1.36V56.54a3.74 3.74 0 0 0 1.36-1.36h28.51a1.88 1.88 0 0 0 0-3.75h-28.51a3.74 3.74 0 0 0-1.36-1.36v-18a3.74 3.74 0 0 0 1.36-1.36H565a1.88 1.88 0 0 0 0-3.71h-26.26a3.72 3.72 0 0 0-6.46 0H503a3.65 3.65 0 0 0-4.19-1.74L488.55 15a1.88 1.88 0 1 0-2.65 2.65l10.25 10.25a3.73 3.73 0 0 0 6.85 2.8h29.29a3.74 3.74 0 0 0 1.36 1.36v7.06H503a3.73 3.73 0 0 0-7 1.71l-30.5 30.53a3.72 3.72 0 0 0-5.09 2.31h-39.07a1.87 1.87 0 1 0 0 3.75h40a3.75 3.75 0 0 0 6.42-2.64v-.31l30.22-30.22a3.69 3.69 0 0 0 5.02-1.38h30.65v7.2a3.74 3.74 0 0 0-1.36 1.36H503a3.73 3.73 0 0 0-6.84 2.83l-30.87 30.86a3.69 3.69 0 0 0-4.55 1.62h-42.53a1.88 1.88 0 0 0 0 3.75h42.53a3.72 3.72 0 0 0 6.92-2.44l31.14-31.13a3.65 3.65 0 0 0 4.2-1.74h29.29a3.74 3.74 0 0 0 1.36 1.36v8.6H503a3.73 3.73 0 0 0-7 1.71l-30.5 30.53a3.72 3.72 0 0 0-5.09 2.31h-39.07a1.88 1.88 0 0 0 0 3.75h40a3.75 3.75 0 0 0 6.42-2.64v-.31l30.22-30.22a3.69 3.69 0 0 0 5.02-1.38h30.65v8.41a3.74 3.74 0 0 0-1.36 1.36H503a3.72 3.72 0 0 0-6.92 2.45l-31.13 31.13a3.65 3.65 0 0 0-4.2 1.74h-42.54a1.88 1.88 0 0 0 0 3.75h42.53a3.74 3.74 0 0 0 1.36 1.36v31.85a1.87 1.87 0 0 0 .6 1.37l21.74 20.3v54.57a3.74 3.74 0 0 0-1.36 1.36h-5.23v-48.85a1.88 1.88 0 0 0-.55-1.33l-23.74-23.74v-27.44a1.87 1.87 0 0 0-1.87-1.87h-35.8a1.88 1.88 0 0 0 0 3.75h33.91v26.35a1.87 1.87 0 0 0 .55 1.33l23.74 23.74v48.06h-6.58v-43.09a1.88 1.88 0 0 0-.55-1.33l-24-24v-20.75a1.88 1.88 0 0 0-1.96-1.87h-25.11a1.88 1.88 0 0 0 0 3.75h23.29v19.62a1.88 1.88 0 0 0 .55 1.33l24 24v42.3h-51.15a1.87 1.87 0 0 0-1.87 1.88v54.27a1.88 1.88 0 0 0 1.88 1.88h70.49a3.73 3.73 0 0 0 3.22 1.89zm-12.21-56.14v5.21a3.74 3.74 0 0 0-1.36 1.36h-5.23v-6.56zm-59.63 40.2v-4.69h47.94a3.74 3.74 0 1 0 5.11-5.11v-10.3a3.72 3.72 0 0 0 0-6.46v-3.32h5.23a3.75 3.75 0 0 0 1.36 1.36v27.18a3.74 3.74 0 0 0-1.36 1.36zm0-8.44v-4.63h36.7a3.75 3.75 0 1 0 0-3.75h-36.7V251h47.94a3.74 3.74 0 0 0 1.36 1.36v10.3a3.74 3.74 0 0 0-1.36 1.34zm49.3-18.12a3.74 3.74 0 0 0-1.36 1.36h-47.94v-4.68h49.3zm0-13.65v6.56h-49.3v-6.56zm-49.3 44h58.28a3.74 3.74 0 1 0 5.11-5.11V244a3.72 3.72 0 0 0 0-6.46v-5.21h5.23a3.74 3.74 0 0 0 1.36 1.36v47.81a3.74 3.74 0 0 0-1.36 1.36h-68.62zM435.13 315.23a1.88 1.88 0 0 0-1.87 1.88v14.73a3.75 3.75 0 1 0 3.75 0V317.1a1.88 1.88 0 0 0-1.88-1.87z" fill="#007f54"/><path d="M745.24 336.94H742a3.75 3.75 0 0 0-6.92 0h-7.6a3.75 3.75 0 0 0-6.92 0h-7.89a3.75 3.75 0 0 0-6.92 0H679.2a1.87 1.87 0 1 0 0 3.75h27.1a3.71 3.71 0 0 0 5.89 0h8.91a3.71 3.71 0 0 0 5.89 0h8.62a3.71 3.71 0 0 0 5.89 0h1.85v160.56l-57.44 57.44h-93.45v-42.76a1.87 1.87 0 1 0-3.75 0v42.76h-3.51v-42.52a1.87 1.87 0 1 0-3.75 0v42.53h-57l-66.78-66.8V348.19a3.65 3.65 0 0 0 1.7-4.29l5.64-5.16a3.74 3.74 0 0 0 2.49-6.95V317.1a1.87 1.87 0 1 0-3.75 0v14.77a3.67 3.67 0 0 0-1.6 4.41l-5.52 5a3.74 3.74 0 0 0-2.72 6.88v144.52a1.87 1.87 0 0 0 .55 1.33l67.89 67.89a1.88 1.88 0 0 0 1.33.55h57.76v5.42h-57.72l-76.39-76.39V348.19a3.65 3.65 0 0 0 1.7-4.29l5.64-5.16a3.74 3.74 0 0 0 2.49-6.95V317.1a1.88 1.88 0 0 0-3.75 0v14.77a3.67 3.67 0 0 0-1.6 4.4l-5.52 5a3.74 3.74 0 0 0-2.72 6.88v144.1a1.88 1.88 0 0 0 .55 1.33l77.49 77.49a1.88 1.88 0 0 0 1.33.55h60.37a1.88 1.88 0 0 0 1.87-1.87v-7.3h3.52v15.12h-65.61L437 491.48V348.19a3.65 3.65 0 0 0 1.7-4.29l5.64-5.16a3.74 3.74 0 0 0 2.49-6.95V317.1a1.88 1.88 0 1 0-3.75 0v14.77a3.67 3.67 0 0 0-1.6 4.4l-5.52 5a3.74 3.74 0 0 0-2.72 6.88v144.1a1.87 1.87 0 0 0 .55 1.33L521 580.77a1.87 1.87 0 0 0 1.33.55h68.28a1.88 1.88 0 0 0 1.87-1.87v-17h94.22a1.88 1.88 0 0 0 1.33-.55l58.54-58.54a1.88 1.88 0 0 0 .55-1.33V338.82a1.88 1.88 0 0 0-1.88-1.88z" fill="#007f54"/><path d="M468 491.9V348.2a3.65 3.65 0 0 0 1.7-4.29l5.64-5.16a3.74 3.74 0 0 0 2.49-6.95v-14.7a1.87 1.87 0 1 0-3.75 0v14.77a3.67 3.67 0 0 0-1.6 4.41l-5.52 5a3.74 3.74 0 0 0-2.72 6.88v144.52a1.88 1.88 0 0 0 .55 1.33l60.46 60.46a1.88 1.88 0 0 0 1.33.55h45.24a1.88 1.88 0 0 0 1.88-1.87v-39.8a1.88 1.88 0 0 0-3.75 0v37.91h-42.58zM657.19 76.28a3.74 3.74 0 0 0-3.19 1.88h-38.59s0-.09-.06-.13a3.75 3.75 0 1 0-1.17 5.17 3.71 3.71 0 0 0 1.23-1.3H654a3.74 3.74 0 0 0 6.89-2.67l44.57-44.57a1.88 1.88 0 1 0-2.69-2.66l-44.46 44.47a3.71 3.71 0 0 0-1.12-.19z" fill="#007f54"/><path d="M612.18 58.18a3.74 3.74 0 0 0 3.23-1.88h28.47a3.73 3.73 0 0 0 6.82-2.91l36-36a1.88 1.88 0 0 0-2.7-2.61l-36 36a3.67 3.67 0 0 0-4.11 1.76h-28.48a3.74 3.74 0 1 0-3.23 5.63zM612.18 32.58a3.74 3.74 0 0 0 3.23-1.88h20a3.73 3.73 0 0 0 6.85-2.79L657.16 13a1.88 1.88 0 0 0-2.65-2.65l-14.84 14.88a3.65 3.65 0 0 0-4.23 1.77h-20a3.74 3.74 0 1 0-3.23 5.63zM705.42 157.62a1.87 1.87 0 0 0-1.87 1.88v77.87a1.87 1.87 0 0 0 1.88 1.88h40.71a1.88 1.88 0 0 0 1.88-1.87v-77.89a1.88 1.88 0 0 0-1.87-1.87zm11.1 77.87v-67H735v67zm27.74 0h-5.47v-68.92a1.87 1.87 0 0 0-1.87-1.87h-22.28a1.87 1.87 0 0 0-1.87 1.88v68.92h-5.47v-74.13h37zM772.75 179.83H759a3.74 3.74 0 1 0-5.11 5.11v96.65a1.88 1.88 0 0 0 3.75 0v-96.66a3.74 3.74 0 0 0 1.36-1.36h13.74a1.88 1.88 0 0 0 0-3.75z" fill="#007f54"/><path d="M696.88 147.19a3.74 3.74 0 0 0-1.87 7v122.52a1.88 1.88 0 1 0 3.75 0V154.17a3.74 3.74 0 0 0 1.36-1.36h72.64a1.88 1.88 0 0 0 0-3.75h-72.65a3.73 3.73 0 0 0-3.23-1.87z" fill="#007f54"/><path d="M729.52 178a3.75 3.75 0 1 0-5.63 3.23v41.54a3.75 3.75 0 1 0 3.75 0v-41.59a3.73 3.73 0 0 0 1.88-3.18zM476.46 341.21a3.74 3.74 0 0 0-1.88 7v144.47a1.88 1.88 0 0 0 .55 1.33l50.17 50.17a1.87 1.87 0 0 0 1.33.55h37.58a1.87 1.87 0 0 0 1.87-1.87v-29.5a1.87 1.87 0 1 0-3.75 0V541h-34.92l-49.07-49.1V348.2a3.65 3.65 0 0 0 1.7-4.29l5.64-5.16a3.74 3.74 0 0 0 2.49-6.95v-14.7a1.87 1.87 0 1 0-3.75 0v14.77a3.67 3.67 0 0 0-1.6 4.41l-5.52 5a3.73 3.73 0 0 0-.84-.07zM428.21 317.82a3.75 3.75 0 1 0-5.63 3.23v10.78a3.75 3.75 0 1 0 3.75 0V321a3.73 3.73 0 0 0 1.88-3.18zM755.42 421.42a3.73 3.73 0 0 0 3.23-1.88h5.44a1.88 1.88 0 0 0 0-3.75h-5.44a3.74 3.74 0 1 0-3.23 5.63z" fill="#007f54"/><path d="M423.28 189.56a6.53 6.53 0 0 0 6.53-6.53 6.53 6.53 0 0 1 6.53-6.53h32.2a6.53 6.53 0 0 0 0-13.05h-12.28a6.53 6.53 0 0 1 0-13.05h12.27a6.53 6.53 0 0 0 0-13.05h-56.92c-.44 4.45-.67 9-.67 13.52v38.7z" fill="#1c1c1a"/><path d="M487.23 313.27v-7.84h.43a.91.91 0 0 0 .91-.91v-9.66a.91.91 0 0 0-.91-.91h-2.74a.91.91 0 0 0-.91.91v9.66a.91.91 0 0 0 .91.91h.43v7.84a3.63 3.63 0 1 0 1.87 0zm-.93 5.26a1.76 1.76 0 1 1 1.76-1.76 1.77 1.77 0 0 1-1.76 1.76zM476.9 313.27v-7.84h.43a.91.91 0 0 0 .91-.91v-9.66a.91.91 0 0 0-.91-.91h-2.73a.91.91 0 0 0-.91.91v9.66a.91.91 0 0 0 .91.91h.4v7.84a3.63 3.63 0 1 0 1.87 0zm-.93 5.26a1.76 1.76 0 1 1 1.76-1.76 1.77 1.77 0 0 1-1.73 1.76zM466.57 313.27v-7.84h.43a.91.91 0 0 0 .91-.91v-9.66a.91.91 0 0 0-.91-.91h-2.74a.91.91 0 0 0-.91.91v9.66a.91.91 0 0 0 .91.91h.43v7.84a3.63 3.63 0 1 0 1.87 0zm-.93 5.26a1.76 1.76 0 1 1 1.76-1.76 1.77 1.77 0 0 1-1.77 1.76zM456.23 313.27v-7.84h.43a.91.91 0 0 0 .91-.91v-9.66a.91.91 0 0 0-.91-.91h-2.74a.91.91 0 0 0-.91.91v9.66a.91.91 0 0 0 .91.91h.43v7.84a3.63 3.63 0 1 0 1.87 0zm-.93 5.26a1.76 1.76 0 1 1 1.76-1.76 1.77 1.77 0 0 1-1.76 1.76zM445.9 313.27v-7.84h.43a.91.91 0 0 0 .91-.91v-9.66a.91.91 0 0 0-.91-.91h-2.73a.91.91 0 0 0-.91.91v9.66a.91.91 0 0 0 .91.91h.4v7.84a3.63 3.63 0 1 0 1.87 0zm-.93 5.26a1.76 1.76 0 1 1 1.76-1.76 1.77 1.77 0 0 1-1.73 1.76zM436.06 313.27v-7.84h.43a.91.91 0 0 0 .91-.91v-9.66a.91.91 0 0 0-.91-.91h-2.74a.91.91 0 0 0-.91.91v9.66a.91.91 0 0 0 .91.91h.43v7.84a3.63 3.63 0 1 0 1.87 0zm-.93 5.26a1.76 1.76 0 1 1 1.76-1.76 1.77 1.77 0 0 1-1.76 1.76z" fill="#ccd759"/><path d="M634.51 95.15h-77.94a55.7 55.7 0 0 0-46.69 25.37 48.84 48.84 0 0 1 38.32-18.57h77.94a49 49 0 0 1 48.91 48.91v311.69a49 49 0 0 1-48.91 48.91H548.2a48.84 48.84 0 0 1-38.32-18.57 55.7 55.7 0 0 0 46.68 25.37h77.94a55.77 55.77 0 0 0 55.65-53.2c0-.79.06-1.6.06-2.4v-311.8q0-1.26-.06-2.51a55.77 55.77 0 0 0-55.64-53.2z" fill="#b8bfbf"/><path d="M404.14 150.86v311.69c0 79.44 64.63 144.06 144.06 144.06h15.15c-79.43 0-144.06-64.63-144.06-144.06V150.86C419.3 71.42 483.93 6.8 563.36 6.8H548.2c-79.43 0-144.06 64.62-144.06 144.06z" fill="#b8bfbf"/><path d="M464.77 41.43a1.49 1.49 0 0 0-2.11 0l-15.81 15.82a1.49 1.49 0 0 0 0 2.1l8.15 8.2a12.67 12.67 0 1 0 18-17.92zM709.12 67.55a12.67 12.67 0 0 0 17.92 0l8.19-8.19a1.49 1.49 0 0 0 0-2.1l-15.81-15.83a1.49 1.49 0 0 0-2.11 0l-8.19 8.19a12.67 12.67 0 0 0 0 17.92zM727 546.39a12.67 12.67 0 0 0-17.92 0 12.67 12.67 0 0 0 0 17.92l8.19 8.19a1.49 1.49 0 0 0 2.11 0l15.82-15.81a1.49 1.49 0 0 0 0-2.11zM473 546.39a12.67 12.67 0 0 0-17.92 0l-8.19 8.19a1.49 1.49 0 0 0 0 2.11l15.82 15.81a1.49 1.49 0 0 0 2.11 0l8.19-8.19a12.67 12.67 0 0 0 0-17.92z" fill="#b8bfbf"/><path d="M460.372 39.947l13.21 13.21a6.33 6.33 0 0 1 0 8.951l-8.967 8.966a6.33 6.33 0 0 1-8.952 0l-13.209-13.209a.74.74 0 0 1 0-1.046l16.872-16.872a.74.74 0 0 1 1.046 0z" fill="#fff"/><circle cx="460.62" cy="58.12" r="6.8" transform="rotate(-45 460.622 58.114)" fill="#e7edf0"/><path d="M462.22 51.53a6.76 6.76 0 1 0 3.21 1.78 6.74 6.74 0 0 0-3.21-1.78z" fill="#a3aeb3"/><path d="M731.893 57.872l-13.209 13.209a6.33 6.33 0 0 1-8.952 0l-8.966-8.966a6.33 6.33 0 0 1 0-8.952l13.209-13.21a.74.74 0 0 1 1.046 0l16.872 16.872a.74.74 0 0 1 0 1.047z" fill="#fff"/><circle cx="713.73" cy="58.12" r="6.8" transform="rotate(-45 713.735 58.121)" fill="#e7edf0"/><path d="M715.33 64.7a6.76 6.76 0 1 1 3.21-1.78 6.74 6.74 0 0 1-3.21 1.78z" fill="#a3aeb3"/><path d="M713.968 572.083l-13.208-13.21a6.33 6.33 0 0 1 0-8.951l8.966-8.966a6.33 6.33 0 0 1 8.952 0l13.208 13.209a.74.74 0 0 1 0 1.046l-16.864 16.865a.74.74 0 0 1-1.054.007z" fill="#fff"/><circle cx="713.73" cy="553.91" r="6.8" transform="rotate(-45 713.729 553.914)" fill="#e7edf0"/><path d="M715.33 547.33a6.76 6.76 0 1 0 3.21 1.78 6.74 6.74 0 0 0-3.21-1.78z" fill="#a3aeb3"/><path d="M442.448 554.158l13.208-13.209a6.33 6.33 0 0 1 8.952 0l8.967 8.966a6.33 6.33 0 0 1 0 8.952l-13.21 13.21a.74.74 0 0 1-1.046 0l-16.864-16.865a.74.74 0 0 1-.007-1.054z" fill="#fff"/><circle cx="460.62" cy="553.91" r="6.8" transform="rotate(-45 460.616 553.907)" fill="#e7edf0"/><path d="M462.22 560.49a6.76 6.76 0 1 1 3.21-1.78 6.74 6.74 0 0 1-3.21 1.78z" fill="#a3aeb3"/><path d="M626.15 13.59c75.69 0 137.26 61.58 137.26 137.26v311.7c0 75.69-61.58 137.26-137.26 137.26H548.2c-75.69 0-137.26-61.58-137.26-137.26V150.86c0-75.69 61.58-137.26 137.26-137.26zM548.2 518.26h77.94a55.77 55.77 0 0 0 55.71-55.71V150.86a55.77 55.77 0 0 0-55.71-55.71H548.2a55.77 55.77 0 0 0-55.71 55.71v311.69a55.77 55.77 0 0 0 55.71 55.71zM626.15 0H548.2C465 0 397.35 67.67 397.35 150.86v311.69c0 83.18 67.67 150.86 150.86 150.86h77.94c83.18 0 150.86-67.67 150.86-150.86V150.86C777 67.67 709.33 0 626.15 0zM548.2 504.67a42.17 42.17 0 0 1-42.12-42.12V150.86a42.16 42.16 0 0 1 42.12-42.12h77.94a42.16 42.16 0 0 1 42.12 42.12v311.69a42.17 42.17 0 0 1-42.12 42.12z" fill="#fff"/><path d="M435.13 374.37h-2.19a2.81 2.81 0 0 1 0-5.63h2.19a2.81 2.81 0 0 1 0 5.63z" fill="#b4bdbd"/><path d="M432.94 386.25a2.81 2.81 0 0 1-2.81-2.81v-11.88a2.81 2.81 0 1 1 5.63 0v11.88a2.81 2.81 0 0 1-2.82 2.81z" fill="#dee5e7"/><path d="M445.46 374.37h-2.19a2.81 2.81 0 0 1 0-5.63h2.19a2.81 2.81 0 0 1 0 5.63z" fill="#b4bdbd"/><path d="M443.27 386.25a2.81 2.81 0 0 1-2.81-2.81v-11.88a2.81 2.81 0 1 1 5.63 0v11.88a2.81 2.81 0 0 1-2.82 2.81z" fill="#dee5e7"/><path d="M455.8 374.37h-2.19a2.81 2.81 0 0 1 0-5.63h2.19a2.81 2.81 0 1 1 0 5.63z" fill="#b4bdbd"/><path d="M453.61 386.25a2.81 2.81 0 0 1-2.81-2.81v-11.88a2.81 2.81 0 1 1 5.63 0v11.88a2.81 2.81 0 0 1-2.82 2.81z" fill="#dee5e7"/><path d="M466.13 374.37h-2.19a2.81 2.81 0 0 1 0-5.63h2.19a2.81 2.81 0 1 1 0 5.63z" fill="#b4bdbd"/><path d="M463.94 386.25a2.81 2.81 0 0 1-2.81-2.81v-11.88a2.81 2.81 0 1 1 5.63 0v11.88a2.81 2.81 0 0 1-2.82 2.81z" fill="#dee5e7"/><path d="M476.46 374.37h-2.19a2.81 2.81 0 0 1 0-5.63h2.19a2.81 2.81 0 0 1 0 5.63z" fill="#b4bdbd"/><path d="M474.28 386.25a2.81 2.81 0 0 1-2.81-2.81v-11.88a2.81 2.81 0 1 1 5.63 0v11.88a2.81 2.81 0 0 1-2.82 2.81z" fill="#dee5e7"/><path d="M435.13 405.47h-2.19a2.81 2.81 0 1 1 0-5.63h2.19a2.81 2.81 0 1 1 0 5.63z" fill="#b4bdbd"/><path d="M432.94 405.47a2.81 2.81 0 0 1-2.81-2.81v-11.88a2.81 2.81 0 1 1 5.63 0v11.88a2.81 2.81 0 0 1-2.82 2.81z" fill="#dee5e7"/><path d="M445.46 405.47h-2.19a2.81 2.81 0 0 1 0-5.63h2.19a2.81 2.81 0 0 1 0 5.63z" fill="#b4bdbd"/><path d="M443.27 405.47a2.81 2.81 0 0 1-2.81-2.81v-11.88a2.81 2.81 0 1 1 5.63 0v11.88a2.81 2.81 0 0 1-2.82 2.81z" fill="#dee5e7"/><path d="M455.8 405.47h-2.19a2.81 2.81 0 0 1 0-5.63h2.19a2.81 2.81 0 1 1 0 5.63z" fill="#b4bdbd"/><path d="M453.61 405.47a2.81 2.81 0 0 1-2.81-2.81v-11.88a2.81 2.81 0 1 1 5.63 0v11.88a2.81 2.81 0 0 1-2.82 2.81z" fill="#dee5e7"/><path d="M466.13 405.47h-2.19a2.81 2.81 0 1 1 0-5.63h2.19a2.81 2.81 0 1 1 0 5.63z" fill="#b4bdbd"/><path d="M463.94 405.47a2.81 2.81 0 0 1-2.81-2.81v-11.88a2.81 2.81 0 1 1 5.63 0v11.88a2.81 2.81 0 0 1-2.82 2.81z" fill="#dee5e7"/><path d="M476.46 405.47h-2.19a2.81 2.81 0 1 1 0-5.63h2.19a2.81 2.81 0 0 1 0 5.63z" fill="#b4bdbd"/><path d="M474.28 405.47a2.81 2.81 0 0 1-2.81-2.81v-11.88a2.81 2.81 0 1 1 5.63 0v11.88a2.81 2.81 0 0 1-2.82 2.81z" fill="#dee5e7"/><rect x="429.15" y="376.44" width="53.68" height="21.33" rx="1.91" ry="1.91" fill="#313637"/><rect x="425.4" y="376.44" width="53.68" height="21.33" rx="1.91" ry="1.91" fill="#545859"/><path d="M429.23 376.44a3.83 3.83 0 0 0-3.83 3.83v10.51h37.72a8.19 8.19 0 0 0 8.19-8.19v-6.15z" fill="#636564"/><rect x="430.52" y="379.2" width="20.47" height="6.72" rx=".35" ry=".35" fill="#c4cbcc"/><rect x="430.52" y="386.99" width="16.1" height="2.6" rx=".19" ry=".19" fill="#c4cbcc"/><path d="M435.13 419.38h-2.19a2.81 2.81 0 1 1 0-5.63h2.19a2.81 2.81 0 1 1 0 5.63z" fill="#b4bdbd"/><path d="M432.94 431.26a2.81 2.81 0 0 1-2.81-2.81v-11.88a2.81 2.81 0 0 1 5.63 0v11.88a2.81 2.81 0 0 1-2.82 2.81z" fill="#dee5e7"/><path d="M445.46 419.38h-2.19a2.81 2.81 0 0 1 0-5.63h2.19a2.81 2.81 0 0 1 0 5.63z" fill="#b4bdbd"/><path d="M443.27 431.26a2.81 2.81 0 0 1-2.81-2.81v-11.88a2.81 2.81 0 0 1 5.63 0v11.88a2.81 2.81 0 0 1-2.82 2.81z" fill="#dee5e7"/><path d="M455.8 419.38h-2.19a2.81 2.81 0 0 1 0-5.63h2.19a2.81 2.81 0 1 1 0 5.63z" fill="#b4bdbd"/><path d="M453.61 431.26a2.81 2.81 0 0 1-2.81-2.81v-11.88a2.81 2.81 0 0 1 5.63 0v11.88a2.81 2.81 0 0 1-2.82 2.81z" fill="#dee5e7"/><path d="M466.13 419.38h-2.19a2.81 2.81 0 1 1 0-5.63h2.19a2.81 2.81 0 1 1 0 5.63z" fill="#b4bdbd"/><path d="M463.94 431.26a2.81 2.81 0 0 1-2.81-2.81v-11.88a2.81 2.81 0 0 1 5.63 0v11.88a2.81 2.81 0 0 1-2.82 2.81z" fill="#dee5e7"/><path d="M476.46 419.38h-2.19a2.81 2.81 0 1 1 0-5.63h2.19a2.81 2.81 0 0 1 0 5.63z" fill="#b4bdbd"/><path d="M474.28 431.26a2.81 2.81 0 0 1-2.81-2.81v-11.88a2.81 2.81 0 0 1 5.63 0v11.88a2.81 2.81 0 0 1-2.82 2.81z" fill="#dee5e7"/><path d="M435.13 450.48h-2.19a2.81 2.81 0 1 1 0-5.63h2.19a2.81 2.81 0 1 1 0 5.63z" fill="#b4bdbd"/><path d="M432.94 450.48a2.81 2.81 0 0 1-2.81-2.81v-11.88a2.81 2.81 0 1 1 5.63 0v11.88a2.81 2.81 0 0 1-2.82 2.81z" fill="#dee5e7"/><path d="M445.46 450.48h-2.19a2.81 2.81 0 0 1 0-5.63h2.19a2.81 2.81 0 0 1 0 5.63z" fill="#b4bdbd"/><path d="M443.27 450.48a2.81 2.81 0 0 1-2.81-2.81v-11.88a2.81 2.81 0 1 1 5.63 0v11.88a2.81 2.81 0 0 1-2.82 2.81z" fill="#dee5e7"/><path d="M455.8 450.48h-2.19a2.81 2.81 0 0 1 0-5.63h2.19a2.81 2.81 0 1 1 0 5.63z" fill="#b4bdbd"/><path d="M453.61 450.48a2.81 2.81 0 0 1-2.81-2.81v-11.88a2.81 2.81 0 1 1 5.63 0v11.88a2.81 2.81 0 0 1-2.82 2.81z" fill="#dee5e7"/><path d="M466.13 450.48h-2.19a2.81 2.81 0 1 1 0-5.63h2.19a2.81 2.81 0 1 1 0 5.63z" fill="#b4bdbd"/><path d="M463.94 450.48a2.81 2.81 0 0 1-2.81-2.81v-11.88a2.81 2.81 0 1 1 5.63 0v11.88a2.81 2.81 0 0 1-2.82 2.81z" fill="#dee5e7"/><path d="M476.46 450.48h-2.19a2.81 2.81 0 1 1 0-5.63h2.19a2.81 2.81 0 0 1 0 5.63z" fill="#b4bdbd"/><path d="M474.28 450.48a2.81 2.81 0 0 1-2.81-2.81v-11.88a2.81 2.81 0 1 1 5.63 0v11.88a2.81 2.81 0 0 1-2.82 2.81z" fill="#dee5e7"/><rect x="429.15" y="421.45" width="53.68" height="21.33" rx="1.91" ry="1.91" fill="#313637"/><rect x="425.4" y="421.45" width="53.68" height="21.33" rx="1.91" ry="1.91" fill="#545859"/><path d="M429.23 421.45a3.83 3.83 0 0 0-3.83 3.83v10.51h37.72a8.19 8.19 0 0 0 8.19-8.19v-6.15z" fill="#636564"/><rect x="430.52" y="424.21" width="20.47" height="6.72" rx=".35" ry=".35" fill="#c4cbcc"/><rect x="430.52" y="432" width="16.1" height="2.6" rx=".19" ry=".19" fill="#c4cbcc"/><path d="M435.13 464.39h-2.19a2.81 2.81 0 1 1 0-5.63h2.19a2.81 2.81 0 1 1 0 5.63z" fill="#b4bdbd"/><path d="M432.94 476.27a2.81 2.81 0 0 1-2.81-2.81v-11.88a2.81 2.81 0 0 1 5.63 0v11.88a2.81 2.81 0 0 1-2.82 2.81z" fill="#dee5e7"/><path d="M445.46 464.39h-2.19a2.81 2.81 0 0 1 0-5.63h2.19a2.81 2.81 0 0 1 0 5.63z" fill="#b4bdbd"/><path d="M443.27 476.27a2.81 2.81 0 0 1-2.81-2.81v-11.88a2.81 2.81 0 0 1 5.63 0v11.88a2.81 2.81 0 0 1-2.82 2.81z" fill="#dee5e7"/><path d="M455.8 464.39h-2.19a2.81 2.81 0 0 1 0-5.63h2.19a2.81 2.81 0 1 1 0 5.63z" fill="#b4bdbd"/><path d="M453.61 476.27a2.81 2.81 0 0 1-2.81-2.81v-11.88a2.81 2.81 0 0 1 5.63 0v11.88a2.81 2.81 0 0 1-2.82 2.81z" fill="#dee5e7"/><path d="M466.13 464.39h-2.19a2.81 2.81 0 1 1 0-5.63h2.19a2.81 2.81 0 1 1 0 5.63z" fill="#b4bdbd"/><path d="M463.94 476.27a2.81 2.81 0 0 1-2.81-2.81v-11.88a2.81 2.81 0 0 1 5.63 0v11.88a2.81 2.81 0 0 1-2.82 2.81z" fill="#dee5e7"/><path d="M476.46 464.39h-2.19a2.81 2.81 0 1 1 0-5.63h2.19a2.81 2.81 0 0 1 0 5.63z" fill="#b4bdbd"/><path d="M474.28 476.27a2.81 2.81 0 0 1-2.81-2.81v-11.88a2.81 2.81 0 0 1 5.63 0v11.88a2.81 2.81 0 0 1-2.82 2.81z" fill="#dee5e7"/><path d="M435.13 495.49h-2.19a2.81 2.81 0 1 1 0-5.63h2.19a2.81 2.81 0 0 1 0 5.63z" fill="#b4bdbd"/><path d="M432.94 495.49a2.81 2.81 0 0 1-2.81-2.81V480.8a2.81 2.81 0 0 1 5.63 0v11.88a2.81 2.81 0 0 1-2.82 2.81z" fill="#dee5e7"/><path d="M445.46 495.49h-2.19a2.81 2.81 0 0 1 0-5.63h2.19a2.81 2.81 0 0 1 0 5.63z" fill="#b4bdbd"/><path d="M443.27 495.49a2.81 2.81 0 0 1-2.81-2.81V480.8a2.81 2.81 0 0 1 5.63 0v11.88a2.81 2.81 0 0 1-2.82 2.81z" fill="#dee5e7"/><path d="M455.8 495.49h-2.19a2.81 2.81 0 0 1 0-5.63h2.19a2.81 2.81 0 1 1 0 5.63z" fill="#b4bdbd"/><path d="M453.61 495.49a2.81 2.81 0 0 1-2.81-2.81V480.8a2.81 2.81 0 0 1 5.63 0v11.88a2.81 2.81 0 0 1-2.82 2.81z" fill="#dee5e7"/><path d="M466.13 495.49h-2.19a2.81 2.81 0 0 1 0-5.63h2.19a2.81 2.81 0 1 1 0 5.63z" fill="#b4bdbd"/><path d="M463.94 495.49a2.81 2.81 0 0 1-2.81-2.81V480.8a2.81 2.81 0 0 1 5.63 0v11.88a2.81 2.81 0 0 1-2.82 2.81z" fill="#dee5e7"/><path d="M476.46 495.49h-2.19a2.81 2.81 0 0 1 0-5.63h2.19a2.81 2.81 0 0 1 0 5.63z" fill="#b4bdbd"/><path d="M474.28 495.49a2.81 2.81 0 0 1-2.81-2.81V480.8a2.81 2.81 0 0 1 5.63 0v11.88a2.81 2.81 0 0 1-2.82 2.81z" fill="#dee5e7"/><rect x="429.15" y="466.46" width="53.68" height="21.33" rx="1.91" ry="1.91" fill="#313637"/><rect x="425.4" y="466.46" width="53.68" height="21.33" rx="1.91" ry="1.91" fill="#545859"/><path d="M429.23 466.46a3.83 3.83 0 0 0-3.83 3.83v10.51h37.72a8.19 8.19 0 0 0 8.19-8.19v-6.15z" fill="#636564"/><rect x="430.52" y="469.22" width="20.47" height="6.72" rx=".35" ry=".35" fill="#c4cbcc"/><rect x="430.52" y="477.01" width="16.1" height="2.6" rx=".19" ry=".19" fill="#c4cbcc"/><path d="M724.06 340h-4.77a3.94 3.94 0 0 1-3.93-3.93v-36.4a3.94 3.94 0 0 1 3.93-3.94h4.77a1.63 1.63 0 0 1 0 3.25h-4.77a.68.68 0 0 0-.68.68v36.4a.68.68 0 0 0 .68.68h4.77a1.63 1.63 0 0 1 0 3.25z" fill="#ebeff0"/><rect x="711.99" y="303.89" width="9.96" height="29.48" rx=".96" ry=".96" fill="#00abca"/><rect x="718.29" y="303.89" width="3.66" height="29.48" rx=".58" ry=".58" fill="#0095ae"/><rect x="710.77" y="301.05" width="12.4" height="9.45" rx=".61" ry=".61" fill="#5bc1d4"/><path d="M722 301h-3.66v9.45H722a1.22 1.22 0 0 0 1.22-1.22v-7A1.22 1.22 0 0 0 722 301z" fill="#00abca"/><rect x="710.77" y="325.27" width="12.4" height="9.45" rx=".61" ry=".61" fill="#5bc1d4"/><path d="M722 325.27h-3.66v9.45H722a1.22 1.22 0 0 0 1.22-1.22v-7a1.22 1.22 0 0 0-1.22-1.23z" fill="#00abca"/><path d="M739 340h-4.77a3.94 3.94 0 0 1-3.93-3.93v-36.4a3.94 3.94 0 0 1 3.93-3.94H739a1.63 1.63 0 1 1 0 3.25h-4.77a.68.68 0 0 0-.68.68v36.4a.68.68 0 0 0 .68.68H739a1.63 1.63 0 0 1 0 3.25z" fill="#ebeff0"/><rect x="726.89" y="303.89" width="9.96" height="29.48" rx=".96" ry=".96" fill="#00abca"/><rect x="733.19" y="303.89" width="3.66" height="29.48" rx=".58" ry=".58" fill="#0095ae"/><rect x="725.67" y="301.05" width="12.4" height="9.45" rx=".61" ry=".61" fill="#5bc1d4"/><path d="M736.85 301h-3.66v9.45h3.66a1.22 1.22 0 0 0 1.22-1.22v-7a1.22 1.22 0 0 0-1.22-1.23z" fill="#00abca"/><rect x="725.67" y="325.27" width="12.4" height="9.45" rx=".61" ry=".61" fill="#5bc1d4"/><path d="M736.85 325.27h-3.66v9.45h3.66a1.22 1.22 0 0 0 1.22-1.22v-7a1.22 1.22 0 0 0-1.22-1.23z" fill="#00abca"/><path d="M753.85 340h-4.77a3.94 3.94 0 0 1-3.93-3.93v-36.4a3.94 3.94 0 0 1 3.93-3.94h4.77a1.63 1.63 0 0 1 0 3.25h-4.77a.68.68 0 0 0-.68.68v36.4a.68.68 0 0 0 .68.68h4.77a1.63 1.63 0 0 1 0 3.25z" fill="#ebeff0"/><rect x="741.79" y="303.89" width="9.96" height="29.48" rx=".96" ry=".96" fill="#00abca"/><rect x="748.09" y="303.89" width="3.66" height="29.48" rx=".58" ry=".58" fill="#0095ae"/><rect x="740.57" y="301.05" width="12.4" height="9.45" rx=".61" ry=".61" fill="#5bc1d4"/><path d="M751.75 301h-3.66v9.45h3.66a1.22 1.22 0 0 0 1.22-1.22v-7a1.22 1.22 0 0 0-1.22-1.23z" fill="#00abca"/><rect x="740.57" y="325.27" width="12.4" height="9.45" rx=".61" ry=".61" fill="#5bc1d4"/><path d="M751.75 325.27h-3.66v9.45h3.66a1.22 1.22 0 0 0 1.22-1.22v-7a1.22 1.22 0 0 0-1.22-1.23z" fill="#00abca"/><path d="M709.16 340h-4.77a3.94 3.94 0 0 1-3.94-3.93v-36.4a3.94 3.94 0 0 1 3.94-3.94h4.77a1.63 1.63 0 1 1 0 3.25h-4.77a.68.68 0 0 0-.68.68v36.4a.68.68 0 0 0 .68.68h4.77a1.63 1.63 0 0 1 0 3.25z" fill="#ebeff0"/><rect x="697.09" y="303.89" width="9.96" height="29.48" rx=".96" ry=".96" fill="#00abca"/><rect x="703.4" y="303.89" width="3.66" height="29.48" rx=".58" ry=".58" fill="#0095ae"/><rect x="695.87" y="301.05" width="12.4" height="9.45" rx=".61" ry=".61" fill="#5bc1d4"/><path d="M707.05 301h-3.65v9.45h3.66a1.22 1.22 0 0 0 1.22-1.22v-7a1.22 1.22 0 0 0-1.23-1.23z" fill="#00abca"/><rect x="695.87" y="325.27" width="12.4" height="9.45" rx=".61" ry=".61" fill="#5bc1d4"/><path d="M707.05 325.27h-3.65v9.45h3.66a1.22 1.22 0 0 0 1.22-1.22v-7a1.22 1.22 0 0 0-1.23-1.23z" fill="#00abca"/><path d="M715.76 242.71h-18.88a2.81 2.81 0 1 1 0-5.63h18.88a2.81 2.81 0 1 1 0 5.63zM755.78 242.71h-18.87a2.81 2.81 0 1 1 0-5.63h18.88a2.81 2.81 0 0 1 0 5.63zM715.76 255h-18.88a2.81 2.81 0 1 1 0-5.63h18.88a2.81 2.81 0 1 1 0 5.63zM755.78 255h-18.87a2.81 2.81 0 1 1 0-5.63h18.88a2.81 2.81 0 1 1 0 5.63zM715.76 267.26h-18.88a2.81 2.81 0 1 1 0-5.63h18.88a2.81 2.81 0 1 1 0 5.63zM755.78 267.26h-18.87a2.81 2.81 0 1 1 0-5.63h18.88a2.81 2.81 0 1 1 0 5.63zM715.76 279.53h-18.88a2.81 2.81 0 1 1 0-5.63h18.88a2.81 2.81 0 1 1 0 5.63zM755.78 279.53h-18.87a2.81 2.81 0 1 1 0-5.63h18.88a2.81 2.81 0 1 1 0 5.63z" fill="#dee5e7"/><path d="M749.22 242.71h-18.88a2.81 2.81 0 1 1 0-5.63h18.88a2.81 2.81 0 0 1 0 5.63zM749.22 255h-18.88a2.81 2.81 0 1 1 0-5.63h18.88a2.81 2.81 0 0 1 0 5.63zM749.22 267.26h-18.88a2.81 2.81 0 1 1 0-5.63h18.88a2.81 2.81 0 0 1 0 5.63zM749.22 279.53h-18.88a2.81 2.81 0 1 1 0-5.63h18.88a2.81 2.81 0 0 1 0 5.63z" fill="#b4bdbd"/><rect x="707.64" y="230.55" width="37.38" height="55.5" rx="2.45" ry="2.45" fill="#313637"/><rect x="703.89" y="230.55" width="37.38" height="55.5" rx="2.45" ry="2.45" fill="#545859"/><path d="M708.8 230.55a4.91 4.91 0 0 0-4.91 4.91v42h20.38a9.34 9.34 0 0 0 9.34-9.34v-37.57z" fill="#636564"/><rect x="709.25" y="237.36" width="20.47" height="6.72" rx=".35" ry=".35" fill="#c4cbcc"/><rect x="709.25" y="245.16" width="16.1" height="2.6" rx=".19" ry=".19" fill="#c4cbcc"/><rect x="709.25" y="252.93" width="16.1" height="2.6" rx=".19" ry=".19" fill="#c4cbcc"/><rect x="709.25" y="256.72" width="16.1" height="2.6" rx=".19" ry=".19" fill="#c4cbcc"/><rect x="709.25" y="260.51" width="12.35" height="2.6" rx=".17" ry=".17" fill="#c4cbcc"/><rect x="556.71" y="70.97" width="49.7" height="18.13" rx="4.53" ry="4.53" fill="#eb6e17"/><path d="M558.62 82.62a1.88 1.88 0 0 1-1.86-1.69v-.9a9 9 0 0 1 5.7-8.39 1.87 1.87 0 0 1 1.4 3.48 5.28 5.28 0 0 0-3.4 4.88v.53a1.87 1.87 0 0 1-1.68 2.05z" fill="#fbd9ca"/><path d="M557.37 83.39a9.05 9.05 0 0 0 8.4 5.7h31.57a9.05 9.05 0 0 0 8.4-5.7z" fill="#ea630d"/><path d="M606.41 80a9.06 9.06 0 0 0-9.07-9h-.15a9.06 9.06 0 1 0 0 18.13h.15a9.06 9.06 0 0 0 9.07-9.13z" fill="#e25913"/><path d="M612.35 81.91h-14.54a1.88 1.88 0 1 1 0-3.75h14.53a1.88 1.88 0 1 1 0 3.75z" fill="#ebeff0"/><path d="M596 80.54a1.85 1.85 0 0 0 1.77 1.37h14.53a1.85 1.85 0 0 0 1.77-1.37z" fill="#bfc7c7"/><rect x="566.05" y="74.4" width="14.01" height="6.13" rx=".6" ry=".6" fill="#f9ba4f"/><rect x="556.71" y="45.37" width="49.7" height="18.13" rx="4.53" ry="4.53" fill="#eb6e17"/><path d="M558.62 57a1.88 1.88 0 0 1-1.86-1.69v-.9a9 9 0 0 1 5.7-8.39 1.87 1.87 0 0 1 1.4 3.48 5.28 5.28 0 0 0-3.35 4.91v.53a1.87 1.87 0 0 1-1.7 2.06z" fill="#fbd9ca"/><path d="M557.37 57.79a9.05 9.05 0 0 0 8.4 5.7h31.57a9.05 9.05 0 0 0 8.4-5.7z" fill="#ea630d"/><path d="M606.41 54.43a9.06 9.06 0 0 0-9.06-9.06h-.15a9.06 9.06 0 1 0 0 18.13h.15a9.06 9.06 0 0 0 9.06-9.07z" fill="#e25913"/><path d="M612.35 56.31h-14.54a1.88 1.88 0 1 1 0-3.75h14.53a1.88 1.88 0 1 1 0 3.75z" fill="#ebeff0"/><path d="M596 54.94a1.85 1.85 0 0 0 1.77 1.37h14.53a1.85 1.85 0 0 0 1.77-1.37z" fill="#bfc7c7"/><rect x="566.05" y="48.8" width="14.01" height="6.13" rx=".6" ry=".6" fill="#f9ba4f"/><rect x="556.71" y="19.77" width="49.7" height="18.13" rx="4.53" ry="4.53" fill="#eb6e17"/><path d="M558.62 31.42a1.88 1.88 0 0 1-1.86-1.69v-.9a9 9 0 0 1 5.7-8.39 1.87 1.87 0 0 1 1.4 3.48 5.28 5.28 0 0 0-3.32 5.44 1.88 1.88 0 0 1-1.68 2.05z" fill="#fbd9ca"/><path d="M557.37 32.19a9.05 9.05 0 0 0 8.4 5.7h31.57a9.05 9.05 0 0 0 8.4-5.7z" fill="#ea630d"/><path d="M606.41 28.83a9.06 9.06 0 0 0-9.06-9.06h-.15a9.06 9.06 0 1 0 0 18.13h.15a9.06 9.06 0 0 0 9.06-9.07z" fill="#e25913"/><path d="M612.35 30.71h-14.54a1.88 1.88 0 1 1 0-3.75h14.53a1.88 1.88 0 1 1 0 3.75z" fill="#ebeff0"/><path d="M596 29.34a1.85 1.85 0 0 0 1.77 1.37h14.53a1.85 1.85 0 0 0 1.77-1.37z" fill="#bfc7c7"/><rect x="566.05" y="23.2" width="14.01" height="6.13" rx=".6" ry=".6" fill="#f9ba4f"/><path d="M707.64 123a1.87 1.87 0 0 1-1.87-1.87v-9.31a9.4 9.4 0 0 0-9.39-9.39 1.87 1.87 0 0 1 0-3.75 13.15 13.15 0 0 1 13.14 13.14v9.31a1.87 1.87 0 0 1-1.88 1.87zM719.09 102.47h-2.85a1.87 1.87 0 0 1 0-3.75h2.85a1.88 1.88 0 0 1 0 3.75z" fill="#e1dfde"/><path d="M718.91 105.28h36.7q-1.69-4.77-3.71-9.38h-33z" fill="#eb6e17"/><path d="M753.85 100.59h-34.94v4.69h36.7q-.84-2.36-1.76-4.69z" fill="#e75c10"/><path d="M712.33 126.23v-5.07H703v5.07a16 16 0 0 0 16 16h44.2c-.2-3.16-.51-6.28-.92-9.38h-43.37a6.58 6.58 0 0 1-6.58-6.62z" fill="#eb6e17"/><path d="M718.91 137.85a16 16 0 0 1-16-16v4.34a16 16 0 0 0 16 16h44.2c-.09-1.45-.21-2.9-.35-4.34z" fill="#e75c10"/><path d="M696.38 94.75a1.87 1.87 0 0 1-1.87-1.87V73.11a1.88 1.88 0 1 1 3.75 0v19.76a1.87 1.87 0 0 1-1.88 1.88zM701.84 97a1.88 1.88 0 0 1-1.33-3.2l14-14a1.88 1.88 0 0 1 2.65 2.65l-14 14a1.87 1.87 0 0 1-1.32.55zM690.92 97a1.87 1.87 0 0 1-1.33-.55l-14-14a1.88 1.88 0 0 1 2.65-2.65l14 14a1.88 1.88 0 0 1-1.33 3.2z" fill="#fff"/><path d="M385.86 157.93a1.87 1.87 0 0 1-1.34-.56 74.912 74.912 0 0 1-4.3-4.77l-5.12-6.21A1.88 1.88 0 0 1 378 144l5.12 6.21c1.28 1.56 2.66 3.08 4.07 4.52a1.87 1.87 0 0 1-1.34 3.19z" fill="#e1dfde"/><path d="M492.49 205.75H464.7a16.66 16.66 0 0 1-16.64-16.64 7.27 7.27 0 0 0-7.26-7.26h-4.53a75.88 75.88 0 0 1-53.75-22.51l6.68-6.58a66.44 66.44 0 0 0 47.07 19.71h4.53a16.66 16.66 0 0 1 16.64 16.64 7.27 7.27 0 0 0 7.26 7.26h27.8z" fill="#feed50"/><path d="M492.49 201.06H464.7a12 12 0 0 1-11.95-11.95 12 12 0 0 0-11.95-11.95h-4.53a70.74 70.74 0 0 1-50.41-21.11l-3.34 3.29a75.88 75.88 0 0 0 53.75 22.51h4.53a7.27 7.27 0 0 1 7.26 7.26 16.66 16.66 0 0 0 16.64 16.64h27.8z" fill="#ffd90d"/><path d="M376.62 140.19a1.87 1.87 0 0 1-1.87-1.87v-10.67a1.87 1.87 0 1 1 3.75 0v10.67a1.87 1.87 0 0 1-1.88 1.87zM369.67 147.14H359a1.88 1.88 0 0 1 0-3.75h10.67a1.88 1.88 0 0 1 0 3.75zM381.46 142.25a1.88 1.88 0 0 1-1.33-3.2l7.54-7.54a1.88 1.88 0 0 1 2.65 2.65l-7.54 7.54a1.87 1.87 0 0 1-1.32.55zM371.77 142.25a1.87 1.87 0 0 1-1.33-.55l-7.54-7.54a1.88 1.88 0 1 1 2.65-2.65l7.54 7.54a1.87 1.87 0 0 1-1.33 3.2z" fill="#fff"/><path d="M371.73 142.29a1.87 1.87 0 0 1-1.33-.55l-7.54-7.54a1.88 1.88 0 0 1 2.65-2.65l7.54 7.54a1.88 1.88 0 0 1-1.33 3.2zM364.19 159.4a1.88 1.88 0 0 1-1.33-3.2l7.54-7.54a1.88 1.88 0 1 1 2.65 2.65l-7.54 7.54a1.87 1.87 0 0 1-1.32.55z" fill="#fff"/><rect x="585.33" y="546.44" width="2.78" height="81.7" rx=".69" ry=".69" transform="rotate(-90 586.725 587.285)" fill="#9ea6a8"/><rect x="585.33" y="537.44" width="2.78" height="81.7" rx=".69" ry=".69" transform="rotate(-90 586.725 578.295)" fill="#9ea6a8"/><rect x="585.33" y="528.45" width="2.78" height="81.7" rx=".69" ry=".69" transform="rotate(-90 586.725 569.295)" fill="#9ea6a8"/><rect x="585.33" y="519.45" width="2.78" height="81.7" rx=".69" ry=".69" transform="rotate(-90 586.68 560.3)" fill="#9ea6a8"/><rect x="585.33" y="510.46" width="2.78" height="81.7" rx=".69" ry=".69" transform="rotate(-90 586.725 551.305)" fill="#9ea6a8"/><path d="M545.87 543.03v-1.39a.69.69 0 0 1 .69-.69h80.31a.69.69 0 0 1 .69.69v1.39a.69.69 0 0 1-.69.69h-80.3a.7.7 0 0 1-.7-.69zM545.87 534.04v-1.39a.69.69 0 0 1 .69-.69h80.31a.69.69 0 0 1 .69.69v1.39a.69.69 0 0 1-.69.69h-80.3a.7.7 0 0 1-.7-.69z" fill="#9ea6a8"/><rect x="585.33" y="483.47" width="2.78" height="81.7" rx=".69" ry=".69" transform="rotate(-90 586.725 524.315)" fill="#9ea6a8"/><rect x="585.33" y="487.97" width="2.78" height="81.7" rx=".69" ry=".69" transform="rotate(-90 586.725 528.815)" fill="#9ea6a8"/><rect x="585.33" y="496.96" width="2.78" height="81.7" rx=".69" ry=".69" transform="rotate(-90 586.72 537.81)" fill="#9ea6a8"/><rect x="585.33" y="505.96" width="2.78" height="81.7" rx=".69" ry=".69" transform="rotate(-90 586.725 546.805)" fill="#9ea6a8"/><path d="M545.92 556.53v-1.39a.69.69 0 0 1 .69-.69h80.31a.69.69 0 0 1 .69.69v1.39a.69.69 0 0 1-.69.69h-80.35a.7.7 0 0 1-.65-.69z" fill="#9ea6a8"/><rect x="585.33" y="523.95" width="2.78" height="81.7" rx=".69" ry=".69" transform="rotate(-90 586.725 564.795)" fill="#9ea6a8"/><path d="M545.92 592.55v-1.39a.7.7 0 0 1 .7-.7h80.31a.69.69 0 0 1 .69.69v1.4a.69.69 0 0 1-.69.69h-80.32a.69.69 0 0 1-.69-.69z" fill="#9ea6a8"/><rect x="585.33" y="541.94" width="2.78" height="81.7" rx=".69" ry=".69" transform="rotate(-90 586.72 582.79)" fill="#9ea6a8"/><rect x="585.33" y="532.95" width="2.78" height="81.7" rx=".69" ry=".69" transform="rotate(-90 586.685 573.795)" fill="#9ea6a8"/><rect x="585.33" y="487.34" width="2.78" height="73.94" rx=".69" ry=".69" transform="rotate(-90 586.725 524.315)" fill="#cacfd3"/><rect x="585.33" y="491.84" width="2.78" height="73.94" rx=".69" ry=".69" transform="rotate(-90 586.725 528.815)" fill="#cacfd3"/><rect x="585.33" y="496.34" width="2.78" height="73.94" rx=".69" ry=".69" transform="rotate(-90 586.725 533.315)" fill="#cacfd3"/><rect x="585.33" y="500.84" width="2.78" height="73.94" rx=".69" ry=".69" transform="rotate(-90 586.72 537.81)" fill="#cacfd3"/><rect x="585.33" y="505.34" width="2.78" height="73.94" rx=".69" ry=".69" transform="rotate(-90 586.72 542.31)" fill="#cacfd3"/><rect x="585.33" y="509.83" width="2.78" height="73.94" rx=".69" ry=".69" transform="rotate(-90 586.725 546.805)" fill="#cacfd3"/><rect x="585.33" y="514.33" width="2.78" height="73.94" rx=".69" ry=".69" transform="rotate(-90 586.725 551.305)" fill="#cacfd3"/><rect x="585.33" y="518.83" width="2.78" height="73.94" rx=".69" ry=".69" transform="rotate(-90 586.725 555.805)" fill="#cacfd3"/><rect x="585.33" y="523.33" width="2.78" height="73.94" rx=".69" ry=".69" transform="rotate(-90 586.72 560.3)" fill="#cacfd3"/><rect x="585.33" y="527.83" width="2.78" height="73.94" rx=".69" ry=".69" transform="rotate(-90 586.725 564.795)" fill="#cacfd3"/><rect x="585.33" y="532.32" width="2.78" height="73.94" rx=".69" ry=".69" transform="rotate(-90 586.725 569.295)" fill="#cacfd3"/><rect x="585.33" y="536.82" width="2.78" height="73.94" rx=".69" ry=".69" transform="rotate(-90 586.725 573.795)" fill="#cacfd3"/><rect x="585.33" y="541.32" width="2.78" height="73.94" rx=".69" ry=".69" transform="rotate(-90 586.725 578.295)" fill="#cacfd3"/><rect x="585.33" y="545.82" width="2.78" height="73.94" rx=".69" ry=".69" transform="rotate(-90 586.72 582.79)" fill="#cacfd3"/><rect x="585.33" y="550.32" width="2.78" height="73.94" rx=".69" ry=".69" transform="rotate(-90 586.725 587.285)" fill="#cacfd3"/><rect x="585.33" y="554.81" width="2.78" height="73.94" rx=".69" ry=".69" transform="rotate(-90 586.725 591.785)" fill="#cacfd3"/><rect x="567.08" y="485.44" width="7.16" height="16.8" rx="1.79" ry="1.79" transform="rotate(-90 570.66 493.84)" fill="#d7800a"/><rect x="580.99" y="485.44" width="7.16" height="16.8" rx="1.79" ry="1.79" transform="rotate(-90 584.57 493.84)" fill="#d7800a"/><rect x="594.9" y="485.44" width="7.16" height="16.8" rx="1.79" ry="1.79" transform="rotate(-90 598.48 493.84)" fill="#d7800a"/><rect x="608.81" y="485.44" width="7.16" height="16.8" rx="1.79" ry="1.79" transform="rotate(-90 612.39 493.84)" fill="#d7800a"/><rect x="554.03" y="498.5" width="23.62" height="7.16" rx="1.79" ry="1.79" transform="rotate(90 565.835 502.075)" fill="#ec9700"/><path d="M567.42 490.65a3.57 3.57 0 0 1 2 3.19v16.46a3.57 3.57 0 0 1-2 3.19z" fill="#d7800a"/><rect x="542.8" y="521.24" width="46.08" height="7.16" rx="1.79" ry="1.79" transform="rotate(90 565.84 524.82)" fill="#fbc13a"/><rect x="543.7" y="523.03" width="41.89" height="3.58" rx=".89" ry=".89" transform="rotate(90 564.64 524.82)" fill="#fee8c3"/><rect x="567.94" y="498.5" width="23.62" height="7.16" rx="1.79" ry="1.79" transform="rotate(90 579.745 502.075)" fill="#ec9700"/><path d="M581.33 490.65a3.57 3.57 0 0 1 2 3.19v16.46a3.57 3.57 0 0 1-2 3.19z" fill="#d7800a"/><rect x="556.71" y="521.24" width="46.08" height="7.16" rx="1.79" ry="1.79" transform="rotate(90 579.75 524.82)" fill="#fbc13a"/><rect x="557.61" y="523.03" width="41.89" height="3.58" rx=".89" ry=".89" transform="rotate(90 578.55 524.82)" fill="#fee8c3"/><rect x="581.85" y="498.5" width="23.62" height="7.16" rx="1.79" ry="1.79" transform="rotate(90 593.655 502.075)" fill="#ec9700"/><path d="M595.24 490.65a3.57 3.57 0 0 1 2 3.19v16.46a3.57 3.57 0 0 1-2 3.19z" fill="#d7800a"/><rect x="570.62" y="521.24" width="46.08" height="7.16" rx="1.79" ry="1.79" transform="rotate(90 593.66 524.82)" fill="#fbc13a"/><rect x="571.52" y="523.03" width="41.89" height="3.58" rx=".89" ry=".89" transform="rotate(90 592.46 524.82)" fill="#fee8c3"/><rect x="595.76" y="498.5" width="23.62" height="7.16" rx="1.79" ry="1.79" transform="rotate(90 607.565 502.075)" fill="#ec9700"/><path d="M609.15 490.65a3.57 3.57 0 0 1 2 3.19v16.46a3.57 3.57 0 0 1-2 3.19z" fill="#d7800a"/><rect x="584.53" y="521.24" width="46.08" height="7.16" rx="1.79" ry="1.79" transform="rotate(90 607.565 524.815)" fill="#fbc13a"/><rect x="585.43" y="523.03" width="41.89" height="3.58" rx=".89" ry=".89" transform="rotate(90 606.37 524.82)" fill="#fee8c3"/><rect x="554.25" y="524.32" width="67.47" height="67.47" rx="1.45" ry="1.45" transform="rotate(-90 587.985 558.055)" fill="#586364"/><rect x="551.73" y="524.32" width="67.47" height="67.47" rx="1.45" ry="1.45" transform="rotate(-90 585.465 558.055)" fill="#7b888b"/><rect x="553.43" y="526.02" width="64.06" height="64.06" rx="16" ry="16" transform="rotate(-90 585.465 558.055)" fill="#5c6e71"/><path d="M616.29 525.74a1.49 1.49 0 0 1 1.49 1.49v61.65a1.49 1.49 0 0 1-1.49 1.49h-61.65a1.49 1.49 0 0 1-1.49-1.49v-61.65a1.49 1.49 0 0 1 1.49-1.49zm0-1.42h-61.65a2.91 2.91 0 0 0-2.91 2.91v61.65a2.91 2.91 0 0 0 2.91 2.91h61.65a2.91 2.91 0 0 0 2.91-2.91v-61.65a2.91 2.91 0 0 0-2.91-2.91z" fill="#586364"/><path d="M571.41 557.73a22.77 22.77 0 0 1-12.34-6.35 3 3 0 0 1-.72-3.13 28.8 28.8 0 0 1 4.46-8 3 3 0 0 1 4.53-.28l8.18 8.18.23-.22a22.77 22.77 0 0 1-4.23-13.22 3 3 0 0 1 1.7-2.72 28.64 28.64 0 0 1 9.26-2.57 2.73 2.73 0 0 1 3 2.72V544h.32a22.77 22.77 0 0 1 6.35-12.34 3 3 0 0 1 3.13-.72 28.79 28.79 0 0 1 8 4.46 3 3 0 0 1 .28 4.53l-8.18 8.18.22.23a22.77 22.77 0 0 1 13.22-4.23 3 3 0 0 1 2.72 1.7 28.64 28.64 0 0 1 2.53 8.83 3 3 0 0 1-3 3.41h-11.55v.32a22.77 22.77 0 0 1 12.34 6.35 3 3 0 0 1 .72 3.13 28.79 28.79 0 0 1-4.46 8 3 3 0 0 1-4.53.28L595.4 568l-.23.22a22.77 22.77 0 0 1 4.23 13.22 3 3 0 0 1-1.7 2.72 28.64 28.64 0 0 1-9.26 2.57 2.73 2.73 0 0 1-3-2.72v-11.9h-.32a22.77 22.77 0 0 1-6.35 12.34 3 3 0 0 1-3.13.72 28.8 28.8 0 0 1-8-4.46 3 3 0 0 1-.28-4.53l8.18-8.18-.22-.23a22.77 22.77 0 0 1-13.24 4.23 3 3 0 0 1-2.72-1.7 28.64 28.64 0 0 1-2.57-9.26 2.73 2.73 0 0 1 2.72-3h11.89c0-.1.01-.2.01-.31z" fill="#7b888b"/><circle cx="585.46" cy="558.05" r="12.56" fill="#cacfd3"/><circle cx="585.46" cy="558.05" r="9.58" fill="#f5f5f5"/><path fill="#4a5b5e" d="M612.27 588.02l1.83 1.05 1.83-1.05v-2.12l-1.83-1.05-1.83 1.05v2.12zM612.27 530.2l1.83 1.05 1.83-1.05v-2.11l-1.83-1.06-1.83 1.06v2.11zM555 588.02l1.83 1.05 1.82-1.05v-2.12l-1.82-1.05-1.83 1.05v2.12zM555 530.2l1.83 1.05 1.82-1.05v-2.11l-1.82-1.06-1.83 1.06v2.11z"/><path d="M1187.94 456.84a4.24 4.24 0 0 1-4.24-4.24v-26.33a4.24 4.24 0 0 1 8.48 0v26.33a4.24 4.24 0 0 1-4.24 4.24z" fill="#4babb0"/><rect x="1181.3" y="418.14" width="12.65" height="18.74" rx="1.08" ry="1.08" fill="#7b888b"/><path d="M1191.78 418.14h-3.19v18.74h3.19a2.17 2.17 0 0 0 2.17-2.17v-14.4a2.17 2.17 0 0 0-2.17-2.17z" fill="#616f71"/><path d="M1191.34 319.41h-19.77v-28.19a25.17 25.17 0 0 0-25.18-25.22H1088a25.17 25.17 0 0 0-25.17 25.17v28.19h-62.41l67.05-288A25.61 25.61 0 0 0 1042.52 0h-47.27a40.44 40.44 0 0 0-39.39 31.27l-85.4 366.78a24.53 24.53 0 0 0 23.89 30.09h168.47v160.1a25.17 25.17 0 0 0 25.18 25.17h58.4a25.17 25.17 0 0 0 25.17-25.17V428.15h21.28a23 23 0 0 0 23-23v-61.21a24.53 24.53 0 0 0-24.51-24.53z" fill="#b8bfbf"/><path d="M1157.76 291.22v28.19h13.8v-28.19a25.17 25.17 0 0 0-25.17-25.22h-13.8a25.17 25.17 0 0 1 25.17 25.22zM1053.67 31.42l-67.05 288h13.8l67.05-288A25.61 25.61 0 0 0 1042.52 0h-13.8a25.61 25.61 0 0 1 24.95 31.42zM1191.34 319.41h-13.8a24.53 24.53 0 0 1 24.53 24.53v61.19a23 23 0 0 1-23 23h13.8a23 23 0 0 0 23-23v-61.19a24.53 24.53 0 0 0-24.53-24.53zM1157.76 588.24a25.17 25.17 0 0 1-25.17 25.17h13.8a25.17 25.17 0 0 0 25.17-25.17V428.15h-13.8z" fill="#9aacad"/><path d="M1152.21 319.55h-19.77v-28.19a25.17 25.17 0 0 0-25.17-25.17h-58.4a25.17 25.17 0 0 0-25.17 25.17v28.19h-62.4l67.05-288A25.61 25.61 0 0 0 1003.4.14h-47.28a40.44 40.44 0 0 0-39.39 31.27L831.34 398.2a24.53 24.53 0 0 0 23.89 30.09h168.47v160.09a25.17 25.17 0 0 0 25.17 25.17h58.4a25.17 25.17 0 0 0 25.17-25.17V428.29h21.28a23 23 0 0 0 23-23v-61.2a24.53 24.53 0 0 0-24.51-24.54z" fill="#fff"/><path d="M1041.11 502.61h-13.25a1.51 1.51 0 0 1 0-3h13.25a3.32 3.32 0 0 0 2.36-1l10-10a6.31 6.31 0 0 1 4.49-1.86h20.29a1.51 1.51 0 1 1 0 3h-20.29a3.32 3.32 0 0 0-2.36 1l-10 10a6.31 6.31 0 0 1-4.49 1.86z" fill="#b8bfbf"/><path d="M1128.55 502.61h-13.25a6.31 6.31 0 0 1-4.5-1.86l-10-10a3.32 3.32 0 0 0-2.36-1h-20.29a1.51 1.51 0 0 1 0-3h20.29a6.31 6.31 0 0 1 4.5 1.86l10 10a3.36 3.36 0 0 0 2.36 1h13.25a1.51 1.51 0 0 1 0 3zM1041.11 423.71h-13.25a1.51 1.51 0 0 1 0-3h13.25a3.32 3.32 0 0 0 2.36-1l10-10a6.31 6.31 0 0 1 4.49-1.86h20.29a1.51 1.51 0 1 1 0 3h-20.29a3.32 3.32 0 0 0-2.36 1l-10 10a6.31 6.31 0 0 1-4.49 1.86z" fill="#b8bfbf"/><path d="M1128.55 423.71h-13.25a6.31 6.31 0 0 1-4.5-1.86l-10-10a3.32 3.32 0 0 0-2.36-1h-20.29a1.51 1.51 0 0 1 0-3h20.29a6.31 6.31 0 0 1 4.5 1.86l10 10a3.36 3.36 0 0 0 2.36 1h13.25a1.51 1.51 0 0 1 0 3zM1098.5 339.75h-20.29a1.51 1.51 0 0 1 0-3h20.29a3.32 3.32 0 0 0 2.36-1l10-10a6.4 6.4 0 0 1 4.5-1.86h13.25a1.51 1.51 0 0 1 0 3h-13.25a3.36 3.36 0 0 0-2.36 1l-10 10a6.32 6.32 0 0 1-4.5 1.86z" fill="#b8bfbf"/><path d="M1078.21 339.75h-20.29a6.31 6.31 0 0 1-4.49-1.86l-10-10a3.32 3.32 0 0 0-2.36-1h-13.25a1.51 1.51 0 0 1 0-3h13.25a6.31 6.31 0 0 1 4.49 1.86l10 10a3.32 3.32 0 0 0 2.36 1h20.29a1.51 1.51 0 0 1 0 3z" fill="#b8bfbf"/><path d="M1003.26 7.55a18 18 0 0 1 15.26 8.45 18.69 18.69 0 0 1 2.2 14.28L953.8 317.7l-1.25 5.38a3.16 3.16 0 0 0 3.08 3.88h73.28a2.21 2.21 0 0 0 2.21-2.21v-33.53a17.62 17.62 0 0 1 17.62-17.62h58.4a17.62 17.62 0 0 1 17.62 17.62v33.53A2.21 2.21 0 0 0 1127 327h25.11a17 17 0 0 1 17 17v61.19a15.47 15.47 0 0 1-15.47 15.47H1127a2.21 2.21 0 0 0-2.21 2.21v165.37a17.62 17.62 0 0 1-17.62 17.62h-58.4a17.62 17.62 0 0 1-17.62-17.62V422.81a2.21 2.21 0 0 0-2.21-2.21H855.61a17.58 17.58 0 0 1-12.27-4.71 16.94 16.94 0 0 1-4.79-16.12L923.94 33A32.89 32.89 0 0 1 956 7.55zm0-7.55H956a40.44 40.44 0 0 0-39.39 31.27l-85.4 366.78a24.53 24.53 0 0 0 23.89 30.09h168.47v160.1a25.17 25.17 0 0 0 25.17 25.17h58.4a25.17 25.17 0 0 0 25.17-25.17V428.15h21.28a23 23 0 0 0 23-23v-61.21a24.53 24.53 0 0 0-24.53-24.53h-19.76v-28.19a25.17 25.17 0 0 0-25.17-25.22h-58.4a25.17 25.17 0 0 0-25.17 25.17v28.19h-62.41l67.05-288A25.61 25.61 0 0 0 1003.26 0z" fill="#e7edf0"/><path d="M1027.31 567.27a3.75 3.75 0 0 1-3.75-3.75v-5.78a3.75 3.75 0 1 1 7.5 0v5.78a3.75 3.75 0 0 1-3.75 3.75zm0-20.31a3.75 3.75 0 0 1-3.75-3.75V511a3.75 3.75 0 1 1 7.5 0v32.2a3.75 3.75 0 0 1-3.75 3.8zM837 417.67a3.75 3.75 0 0 1-3.26-1.89 24.43 24.43 0 0 1-2.21-5.13 3.75 3.75 0 1 1 7.19-2.15 16.91 16.91 0 0 0 1.53 3.55 3.75 3.75 0 0 1-3.25 5.62zm-2.19-15a3.75 3.75 0 0 1-3.66-4.6l7-29.92a3.75 3.75 0 0 1 7.31 1.7l-7 29.92a3.75 3.75 0 0 1-3.61 2.89zm192.46-93.87a3.75 3.75 0 0 1-3.75-3.75v-4.65a3.75 3.75 0 0 1 7.5 0v4.6a3.75 3.75 0 0 1-3.71 3.78zm.6-18.83a3.76 3.76 0 0 1-3.65-4.63A25.22 25.22 0 0 1 1041.8 267a3.75 3.75 0 0 1 2.07 7.21 17.71 17.71 0 0 0-12.32 12.85 3.75 3.75 0 0 1-3.65 2.94zM886.29 181.7a3.75 3.75 0 0 1-3.66-4.6l13.22-56.79a3.75 3.75 0 1 1 7.31 1.7l-13.22 56.79a3.75 3.75 0 0 1-3.65 2.9zm18.88-81.09a3.76 3.76 0 0 1-3.66-4.6l2.91-12.48a3.75 3.75 0 0 1 7.31 1.7l-2.91 12.48a3.75 3.75 0 0 1-3.65 2.91zm17-70.61a3.75 3.75 0 0 1-3.46-5.19A40.36 40.36 0 0 1 951 .3a3.75 3.75 0 0 1 .91 7.45 32.84 32.84 0 0 0-26.33 20 3.75 3.75 0 0 1-3.45 2.25z" fill="#fff"/><path d="M866 408.49a6 6 0 0 1-5.88-7.41l13.4-57.57a6 6 0 0 1 11.76 2.74l-13.4 57.57a6 6 0 0 1-5.88 4.67zm26.25-4.67l13.4-57.57a6 6 0 0 0-11.76-2.74l-13.4 57.57a6 6 0 1 0 11.76 2.74zm20.38 0l13.4-57.57a6 6 0 0 0-11.76-2.74l-13.4 57.57a6 6 0 1 0 11.76 2.74z" fill="#9aacad"/><path d="M883.8 401.08l13.4-57.57a6 6 0 0 1 4.25-4.41c-.1 0-.18-.07-.28-.1a6 6 0 0 0-7.25 4.51l-13.4 57.57a6 6 0 0 0 5.88 7.41 6 6 0 0 0 1.64-.25 6 6 0 0 1-4.24-7.16zM863.42 401.08l13.4-57.57a6 6 0 0 1 4.25-4.41c-.1 0-.18-.07-.28-.1a6 6 0 0 0-7.25 4.51l-13.4 57.57a6 6 0 0 0 5.88 7.41 6 6 0 0 0 1.64-.25 6 6 0 0 1-4.24-7.16zM904.18 401.08l13.41-57.57a6 6 0 0 1 4.25-4.41c-.1 0-.18-.07-.28-.1a6 6 0 0 0-7.25 4.51l-13.4 57.57a6 6 0 0 0 5.88 7.41 6 6 0 0 0 1.64-.25 6 6 0 0 1-4.25-7.16z" fill="#e7edf0"/><path d="M1158.77 468.67h-16a6.88 6.88 0 0 1 0-13.76h16a6.88 6.88 0 1 1 0 13.76z" fill="#7b888b"/><path d="M1136.85 465.22a6.85 6.85 0 0 0 5.93 3.45h16a6.85 6.85 0 0 0 5.93-3.45z" fill="#687a7c"/><path d="M1165.64 461.79a6.88 6.88 0 0 0-6.88-6.88h-.76a6.88 6.88 0 0 0 0 13.76h.75a6.88 6.88 0 0 0 6.89-6.88z" fill="#5f7276"/><path d="M1178.75 466h-19.85a4.24 4.24 0 0 1 0-8.48h19.85a5 5 0 0 0 4.95-4.95 4.24 4.24 0 0 1 8.48 0 13.45 13.45 0 0 1-13.43 13.43z" fill="#4babb0"/><path d="M1187.81 436.87v15.73a13.45 13.45 0 0 1-13.43 13.4h4.37a13.45 13.45 0 0 0 13.43-13.43v-15.7z" fill="#00888a"/><path d="M1057.88 67.52h-17.54a7.55 7.55 0 1 1 0-15.1h17.54a7.55 7.55 0 1 1 0 15.1z" fill="#7b888b"/><path d="M1033.83 63.74a7.52 7.52 0 0 0 6.51 3.79h17.54a7.52 7.52 0 0 0 6.51-3.79z" fill="#687a7c"/><path d="M1065.43 60a7.55 7.55 0 0 0-7.55-7.55h-.82a7.55 7.55 0 0 0 0 15.1h.82a7.55 7.55 0 0 0 7.55-7.55z" fill="#5f7276"/><path d="M1033.35 179.28h-17.54a7.55 7.55 0 1 1 0-15.1h17.54a7.55 7.55 0 0 1 0 15.1z" fill="#7b888b"/><path d="M1009.3 175.5a7.52 7.52 0 0 0 6.51 3.79h17.54a7.52 7.52 0 0 0 6.51-3.79z" fill="#687a7c"/><path d="M1040.9 171.73a7.55 7.55 0 0 0-7.55-7.55h-.82a7.55 7.55 0 1 0 0 15.1h.82a7.55 7.55 0 0 0 7.55-7.55z" fill="#5f7276"/><path d="M1034.88 177h-1.53a5.29 5.29 0 0 1 0-10.57h1.53a18.42 18.42 0 0 0 18.06-14.43l16.27-72.56a11.62 11.62 0 0 0-11.34-14.16 5.29 5.29 0 0 1 0-10.57 22.19 22.19 0 0 1 21.65 27l-16.27 72.56a28.93 28.93 0 0 1-28.37 22.73z" fill="#feed50"/><path d="M1033.35 177h1.52a28.93 28.93 0 0 0 28.39-22.72l16.27-72.56a22.19 22.19 0 0 0-21.65-27 5.29 5.29 0 0 0-5.28 5.28h5.29a16.9 16.9 0 0 1 16.49 20.6l-16.27 72.56a23.8 23.8 0 0 1-23.23 18.6h-6.81a5.29 5.29 0 0 0 5.28 5.24z" fill="#ffd90d"/><rect x="1053.47" y="93.28" width="32.19" height="18.12" rx="3.83" ry="3.83" transform="rotate(-77.36 1069.557 102.352)" fill="#7b888b"/><path d="M1067.71 118.43l3.43.77a3.83 3.83 0 0 0 4.58-2.9l5.37-23.94a3.83 3.83 0 0 0-2.9-4.58l-3.43-.77z" fill="#6a797c"/><path d="M914.77 311.23a28.66 28.66 0 0 1-27.9-35.23l50.7-215.77a28.63 28.63 0 0 1 55.75 13.1l-50.7 215.77a28.65 28.65 0 0 1-27.85 22.13z" fill="#d4dbde"/><path d="M914.77 317.59a35 35 0 0 1-34.09-43l50.7-215.77a35 35 0 1 1 68.14 16L948.81 290.6a34.85 34.85 0 0 1-34.04 26.99zm50.68-273a22.32 22.32 0 0 0-21.68 17.18L893.06 277.5a22.27 22.27 0 1 0 43.36 10.19l50.7-215.77a22.27 22.27 0 0 0-21.68-27.37z" fill="#d4dbde"/><path d="M914.77 311.23a28.66 28.66 0 0 1-27.9-35.23l50.7-215.77a28.63 28.63 0 0 1 55.75 13.1l-50.7 215.77a28.65 28.65 0 0 1-27.85 22.13z" fill="#5bc1d4"/><path d="M959.53 148.53c-16.12 0-16.12-8.48-32.24-8.48a31.72 31.72 0 0 0-8.72 1.09L886.87 276a28.63 28.63 0 1 0 55.75 13.1l34.18-145.45c-4.45 2.35-8.45 4.88-17.27 4.88z" fill="#00a4b3"/><circle cx="927.7" cy="292.25" r="6.63" fill="#98d4df"/><circle cx="908.22" cy="278.91" r="9.81" fill="#98d4df"/><circle cx="933.41" cy="251.29" r="4.77" fill="#98d4df"/><circle cx="913.52" cy="230.74" r="12.33" fill="#98d4df"/><circle cx="943.74" cy="219.6" r="1.72" fill="#98d4df"/><circle cx="943.74" cy="190.04" r="12.2" fill="#98d4df"/><circle cx="931.55" cy="152.53" r="7.95" fill="#98d4df"/><rect x="950.56" y="344.59" width="209.1" height="58.14" rx="2.08" ry="2.08" fill="#c3ced3"/><rect x="948.62" y="344.59" width="209.1" height="58.14" rx="2.08" ry="2.08" fill="#e7edf0"/><rect x="996.59" y="354.1" width="156.13" height="39.12" rx="1.48" ry="1.48" fill="#424341"/><rect x="954.73" y="351.18" width="9.72" height="9.72" rx=".69" ry=".69" fill="#c9d1d5"/><rect x="966.84" y="351.18" width="9.72" height="9.72" rx=".69" ry=".69" fill="#c9d1d5"/><rect x="978.95" y="351.18" width="9.72" height="9.72" rx=".69" ry=".69" fill="#c9d1d5"/><rect x="954.73" y="363.78" width="9.72" height="9.72" rx=".69" ry=".69" fill="#c9d1d5"/><rect x="966.84" y="363.78" width="9.72" height="9.72" rx=".69" ry=".69" fill="#c9d1d5"/><rect x="978.95" y="363.78" width="9.72" height="9.72" rx=".69" ry=".69" fill="#c9d1d5"/><rect x="954.73" y="376.38" width="9.72" height="9.72" rx=".69" ry=".69" fill="#c9d1d5"/><rect x="966.84" y="376.38" width="9.72" height="9.72" rx=".69" ry=".69" fill="#c9d1d5"/><rect x="978.95" y="376.38" width="9.72" height="9.72" rx=".69" ry=".69" fill="#c9d1d5"/><rect x="953.35" y="351.18" width="9.72" height="9.72" rx=".69" ry=".69" fill="#fff"/><rect x="965.45" y="351.18" width="9.72" height="9.72" rx=".69" ry=".69" fill="#fff"/><rect x="977.56" y="351.18" width="9.72" height="9.72" rx=".69" ry=".69" fill="#fff"/><rect x="953.35" y="363.78" width="9.72" height="9.72" rx=".69" ry=".69" fill="#fff"/><rect x="965.45" y="363.78" width="9.72" height="9.72" rx=".69" ry=".69" fill="#fff"/><rect x="977.56" y="363.78" width="9.72" height="9.72" rx=".69" ry=".69" fill="#fff"/><rect x="953.35" y="376.38" width="9.72" height="9.72" rx=".69" ry=".69" fill="#fff"/><rect x="965.45" y="376.38" width="9.72" height="9.72" rx=".69" ry=".69" fill="#fff"/><rect x="977.56" y="376.38" width="9.72" height="9.72" rx=".69" ry=".69" fill="#fff"/><rect x="954.73" y="389.23" width="15.2" height="6.92" rx=".63" ry=".63" fill="#c9d1d5"/><rect x="953.35" y="389.23" width="15.2" height="6.92" rx=".63" ry=".63" fill="#fff"/><rect x="973.47" y="389.23" width="15.2" height="6.92" rx=".63" ry=".63" fill="#c9d1d5"/><rect x="972.08" y="389.23" width="15.2" height="6.92" rx=".63" ry=".63" fill="#fff"/><path d="M1003.38 374.92l1.38-1.24-1.08-1.24.77-6.4 1.41-1.24 1.08 1.24-.77 6.4-1.41 1.24 1.1 1.24-.8 6.4-1.38 1.24-1.1-1.24zm1.87 6.62h6.59l1.1 1.24-1.41 1.24h-6.62l-1-1.24zm6.64-15.39h1.74l-.25 2-6.23 13.07h-1.74l.22-2zm-4.41-2.84h6.59l1.1 1.24-1.41 1.24h-6.59l-1.08-1.24zm5.4 11.61l1.38-1.24-1.1-1.19.8-6.45 1.41-1.24 1.08 1.24-.77 6.4-1.41 1.24 1.1 1.24-.8 6.4-1.38 1.24-1.1-1.24zM1021.33 384h-4.27l-1-1.24 1.38-1.24h4.19l1.1 1.24zm2.23-18.23h-1.85l-1.08-1.24 1.38-1.24h4.33zm1.9 6.64l-1.41 1.24 1.1 1.24-.8 6.4-1.38 1.24-1.1-1.24.8-6.4 1.38-1.24-1.07-1.24.77-6.4 2.78-2.48zm-2.29 10.34l1.38-1.24h4.19l1.1 1.24-1.41 1.24h-4.27zM1032.31 375.14l1.38-1.24 1.1 1.24-.77 6.18-2.78 2.48zm1.9 6.4h8.05l1.1 1.24L1042 384h-10.53zm1.13-9.1h6.59l1.08 1.24-1.38 1.24H1035l-1.1-1.24zm1.1-9.13h6.56l1.1 1.24-1.41 1.24h-6.59l-1.08-1.24zm6.48 2.73l1.41-1.24 1.08 1.24-.74 6.18-1.41 1.24-1.08-1.24zM1046.95 381.54h8.33l1.1 1.24L1055 384h-8.33l-1.08-1.24zm13.12-17l-1.41 1.24h-9.29l-1.08-1.24 1.38-1.24h9.33zm-10.15 7.89h6.48l1.07 1.24-1.38 1.24h-6.48l-1.1-1.24zm5.21-6.31h3.2l-6.73 6h-1.6l.19-1.65zm1.16 9l1.38-1.24 1.1 1.24-.77 6.18-1.38 1.24-1.1-1.24zM1061.59 372.44h9.41l1.07 1.24-1.38 1.24h-9.43l-1.1-1.24zm8.38-9.13h3.14l-9.84 8.77h-1.65l.19-1.66zm.94 11.83l1.38-1.24 1.1 1.24-.94 7.64L1071 384l-1.08-1.24zm1.3-10.59l1.38-1.24 1.1 1.24-.94 7.64-1.41 1.24-1.07-1.24zM1085.33 382.78l-1.41 1.24h-8.05l-1.08-1.24 1.38-1.24h8.05zm-9.24-10.56l1-8.66 2.18 2.48-.74 6.18-1.41 1.24zm2.37 2.7l-1.1-1.24 1.41-1.24h6.59l1.08 1.24-1.38 1.24zm1.1-9.13l-2.18-2.48h11.77l-2.78 2.48zm4.91 15.52l.77-6.18 1.38-1.24 1.1 1.24-.77 6.18-1.38 1.24zM1090.21 375.14l1.38-1.24 1.1 1.24-.77 6.18-1.38 1.24-1.1-1.24zm.36-2.92l.74-6.18 1.41-1.24 1.08 1.24-.74 6.18-1.41 1.24zm1.24 11.8l-1.07-1.24 1.38-1.24h6.59l1.1 1.24-1.41 1.22zm1.13-9.1l-1.1-1.24 1.41-1.24h6.59l1.08 1.24-1.38 1.24zm1.1-9.13l-1.08-1.24 1.38-1.24h6.59l1.1 1.24-1.41 1.24zm4.91 15.52l.77-6.18 1.38-1.24 1.1 1.24-.77 6.18-1.38 1.24zM1115 365.79h-7.91l-1.08-1.24 1.38-1.24h10.39zm-5.74 9.35l1.38-1.24 1.1 1.24-.94 7.64-1.41 1.24-1.07-1.24zm6-1.46l-1.38 1.24H1112l-1.1-1.24 1.41-1.24h1.9zm.25-.22l-1.08-1.24.74-6.18 2.78-2.48-1 8.66zM1119.16 375.14l1.38-1.24 1.1 1.24-.77 6.18-1.38 1.24-1.1-1.24zm1.1-9.1l1.41-1.24 1.08 1.24-.74 6.18-1.41 1.24-1.07-1.24zm.8 15.5h6.59l1.1 1.24-1.41 1.24h-6.59l-1.08-1.24zm1.13-9.1h6.59l1.08 1.24-1.38 1.24h-6.59l-1.1-1.24zm1.1-9.13h6.59l1.1 1.24-1.41 1.24H1123l-1.08-1.24zm5.38 11.83l1.38-1.24 1.1 1.24-.77 6.18-1.38 1.24-1.1-1.24zm1.1-9.1l1.41-1.24 1.07 1.24-.74 6.18-1.41 1.24-1.08-1.24zM1134 372.22l.74-6.18 1.41-1.24 1.08 1.24-.74 6.18-1.41 1.24zm1.24 11.8l-1.08-1.24 1.38-1.24h6.59l1.1 1.24-1.41 1.24zm1.13-9.1l-1.1-1.24 1.41-1.24h6.59l1.08 1.24-1.38 1.24zm1.1-9.13l-1.08-1.24 1.38-1.24h6.59l1.1 1.24-1.41 1.24zm4.91 15.52l.77-6.18 1.38-1.24 1.1 1.24-.77 6.18-1.38 1.24zm1.87-15.28l1.41-1.24 1.08 1.24-.74 6.18-1.41 1.24-1.08-1.24z" fill="#009f2f"/></g></svg>