<svg xmlns="http://www.w3.org/2000/svg" viewBox="0 0 104 108"><defs><clipPath id="a"><path d="M46 54a6 6 0 1 1 6 6 6 6 0 0 1-6-6m-8 0a14 14 0 1 0 14-14 14 14 0 0 0-14 14m-2.84-19.58a26.51 26.51 0 0 1 8.08-4.76 4 4 0 0 0 2.61-3.75V20a2.06 2.06 0 0 1 2.09-2h8.12a2 2 0 0 1 2.09 2v5.5a4 4 0 0 0 2.76 3.8 26.53 26.53 0 0 1 8.66 4.77 4 4 0 0 0 4.53.39l4.68-2.66a2.15 2.15 0 0 1 2.9.74l4.06 6.93a2 2 0 0 1-.77 2.7l-4.5 2.56A4 4 0 0 0 78.52 49a25.93 25.93 0 0 1 0 10 4 4 0 0 0 1.95 4.25L85 65.81a2 2 0 0 1 .77 2.7l-4.06 6.93a2.15 2.15 0 0 1-2.9.73l-4.71-2.65a4 4 0 0 0-4.53.39 26.53 26.53 0 0 1-8.66 4.77 4 4 0 0 0-2.76 3.8V88a2.06 2.06 0 0 1-2.09 2h-8.12a2 2 0 0 1-2.09-2v-5.9a4 4 0 0 0-2.61-3.75 26.51 26.51 0 0 1-8.08-4.76 4 4 0 0 0-4.59-.44l-5.35 3a2.15 2.15 0 0 1-2.9-.73l-4.06-6.93a2 2 0 0 1 .77-2.7l5.52-3.14a4 4 0 0 0 2-4.17 25.93 25.93 0 0 1 0-9 4 4 0 0 0-2-4.17L19 42.19a2 2 0 0 1-.77-2.7l4.06-6.93a2.15 2.15 0 0 1 2.9-.74l5.35 3a4 4 0 0 0 4.59-.44M47.94 10a10.06 10.06 0 0 0-10.09 10v3.24a34.4 34.4 0 0 0-5.66 3.33l-3-1.71a10.15 10.15 0 0 0-13.76 3.64l-4.06 6.93a10 10 0 0 0 3.71 13.7L18.26 51q-.14 1.51-.14 3t.14 3l-3.18 1.81a10 10 0 0 0-3.71 13.7l4.06 6.93a10.15 10.15 0 0 0 13.76 3.65l3-1.71a34.4 34.4 0 0 0 5.66 3.33V88a10 10 0 0 0 10.09 10h8.12a10.06 10.06 0 0 0 10.09-10v-2.75a34.54 34.54 0 0 0 6.29-3.48l2.38 1.36a10.15 10.15 0 0 0 13.76-3.65l4.06-6.93a10 10 0 0 0-3.71-13.7l-2.11-1.2a33.83 33.83 0 0 0 0-7.31l2.11-1.2a10 10 0 0 0 3.71-13.7l-4.06-6.93a10.15 10.15 0 0 0-13.76-3.64l-2.38 1.36a34.54 34.54 0 0 0-6.29-3.48V20a10 10 0 0 0-10.09-10z" fill="none"/></clipPath></defs><title>gear</title><g clip-path="url(#a)" data-name="Layer 1"><path fill="#eb4c4c" d="M0 0h104v108H0z"/></g></svg>