<svg xmlns="http://www.w3.org/2000/svg" viewBox="0 0 108 84"><defs><clipPath id="a"><path d="M61.45 52.57L76 46v13c0 1-1.65 2.6-5.17 4.09A45 45 0 0 1 54 66a44.94 44.94 0 0 1-16.83-2.91C33.65 61.6 32 60 32 59V46l14.55 6.55A18.62 18.62 0 0 0 54 54a18.63 18.63 0 0 0 7.45-1.43m-11.62-7.3L20.34 32l29.49-13.27a12.3 12.3 0 0 1 8.34 0L87.66 32 58.17 45.27A10.75 10.75 0 0 1 54 46a10.77 10.77 0 0 1-4.17-.73m-3.28-33.84L14.76 25.74c-6.34 2.85-6.35 9.67 0 12.52L24 42.42V59c0 9.23 13.65 15 30 15s30-5.77 30-15V42.42l9.24-4.16c6.34-2.85 6.35-9.67 0-12.52L61.45 11.43A18.63 18.63 0 0 0 54 10a18.62 18.62 0 0 0-7.45 1.43" fill="none"/></clipPath></defs><title>graduation-cap</title><g clip-path="url(#a)" data-name="Layer 1"><path fill="#eb4c4c" d="M0 0h108v84H0z"/></g></svg>