<svg xmlns="http://www.w3.org/2000/svg" viewBox="0 0 829.6 829.6"><title>inst</title><g data-name="Layer 1" fill="#83b4d0" stroke="#fff" stroke-miterlimit="10"><circle cx="414.8" cy="423.7" r="104.5"/><path d="M551.3 162h-273a116.08 116.08 0 0 0-116.2 116.2v273a116.08 116.08 0 0 0 116.2 116.2h273a116.08 116.08 0 0 0 116.2-116.2v-273A116.08 116.08 0 0 0 551.3 162zM414.8 584.2a160.5 160.5 0 1 1 160.5-160.5 160.55 160.55 0 0 1-160.5 160.5zM583 289a36 36 0 1 1 36-36 36 36 0 0 1-36 36z"/><path d="M605.9.5H223.7C100.4.5.5 100.4.5 223.7v382.2c0 123.3 99.9 223.2 223.2 223.2h382.2c123.3 0 223.2-99.9 223.2-223.2V223.7C829.1 100.4 729.2.5 605.9.5zm117.7 550.7a172.31 172.31 0 0 1-172.3 172.3h-273A172.31 172.31 0 0 1 106 551.2v-273c0-95.1 77.2-172.2 172.3-172.2h273c95.1 0 172.2 77.1 172.3 172.2z"/></g></svg>