<svg xmlns="http://www.w3.org/2000/svg" viewBox="0 0 43.72 63"><defs><clipPath id="a"><path fill="none" d="M0 0h43.72v63H0z"/></clipPath></defs><title>medal</title><g clip-path="url(#a)" data-name="Layer 1"><path d="M30.22 28.58l12.88-5.52L35.58.5H8.14L.62 23.06l12.88 5.52a18 18 0 1 0 16.73 0m-12.3-9.39l-2.66 8-7.2-3.12 5.8-16.59zM19 22.27l1.49 4.3a17.83 17.83 0 0 0-3.09.52zm3.59 4.27l-8.32-24h2.9l6.05 16.35 1.88-.69-5.8-15.7h8.85l7.5 21.57-7.22 3.09-2.6-7-1.83.69 2.3 6.22a18 18 0 0 0-3.68-.53m18-4.59l-3.12 1.34L30.27 2.5h3.87zM9.58 2.5h2.57l.67 1.94-6.59 18.84-3.13-1.34zm12.28 58a16 16 0 1 1 16-16 16 16 0 0 1-16 16" fill="#eb4c4c"/><path d="M30.22 28.58l12.88-5.52L35.58.5H8.14L.62 23.06l12.88 5.52a18 18 0 1 0 16.73 0zm-12.3-9.39l-2.66 8-7.19-3.12 5.8-16.59zM19 22.27l1.49 4.3a17.83 17.83 0 0 0-3.09.52zm3.59 4.27l-8.32-24h2.9l6.05 16.35 1.88-.69-5.8-15.7h8.85l7.5 21.57-7.22 3.09-2.6-7-1.83.69 2.3 6.22a18 18 0 0 0-3.72-.53zm18-4.59l-3.12 1.34-7.2-20.79h3.87zM9.58 2.5h2.57l.67 1.94-6.59 18.84-3.13-1.34zm12.28 58a16 16 0 1 1 16-16 16 16 0 0 1-16 16z" fill="none" stroke="#eb4c4c" stroke-miterlimit="10"/><path d="M21.86 32.5a12 12 0 1 0 12 12 12 12 0 0 0-12-12m0 22a10 10 0 1 1 10-10 10 10 0 0 1-10 10" fill="#eb4c4c"/><path d="M21.86 32.5a12 12 0 1 0 12 12 12 12 0 0 0-12-12zm0 22a10 10 0 1 1 10-10 10 10 0 0 1-10 10z" fill="none" stroke="#eb4c4c" stroke-miterlimit="10"/></g></svg>