<svg xmlns="http://www.w3.org/2000/svg" viewBox="0 0 100 70"><defs><clipPath id="a"><path fill="none" d="M0 0h100v70H0z"/></clipPath></defs><title>money</title><g clip-path="url(#a)" fill="#eb4c4c" data-name="Layer 1"><path d="M82 48.48V3a2.77 2.77 0 0 0-2.71-3H3.53C1.86 0 0 1.36 0 3v45.48A3.94 3.94 0 0 0 3.53 52h75.76C81 52 82 50.16 82 48.48M61.13 45H21.69A15.15 15.15 0 0 0 7 30.33v-9.14A15.16 15.16 0 0 0 21.71 6.06V6h39.4v.06A15.16 15.16 0 0 0 76 21.2v9.12A15.16 15.16 0 0 0 61.13 45M76 15.14a9.09 9.09 0 0 1-8.83-9.08V6H76zM15.66 6v.06A9.09 9.09 0 0 1 7 15.13V6zM7 36.39A9.09 9.09 0 0 1 15.63 45H7zM67.19 45A9.09 9.09 0 0 1 76 36.38V45z"/><path d="M91 57.58V12.12a3 3 0 1 0-6 0V55H12.62a3 3 0 1 0 0 6h75.76c1.67 0 2.62-1.75 2.62-3.42"/><path d="M97 18.18a3 3 0 0 0-3 3V64H21.71a3 3 0 1 0 0 6h75.76c1.68 0 2.53-1.66 2.53-3.33V21.21a3 3 0 0 0-3-3M41.41 12.12A13.64 13.64 0 1 0 55 25.76a13.65 13.65 0 0 0-13.59-13.64m0 21.21A7.58 7.58 0 1 1 49 25.76a7.58 7.58 0 0 1-7.58 7.57"/></g></svg>