<svg xmlns="http://www.w3.org/2000/svg" viewBox="0 0 43.64 47.22"><defs><clipPath id="a"><path fill="none" d="M0 0h43.64v47.22H0z"/></clipPath></defs><title>present</title><g clip-path="url(#a)" data-name="Layer 1"><path d="M7.28 47.22h29.09a3.83 3.83 0 0 0 3.83-3.83V24.85a3.82 3.82 0 0 0 3.44-3.79v-6.38a3.83 3.83 0 0 0-3.83-3.83h-7.27A6.53 6.53 0 0 0 34.9 6a6 6 0 0 0-6.19-6C25.08 0 23 2.68 21.82 5.54 20.64 2.69 18.57 0 14.93 0a6 6 0 0 0-6.19 6 6.53 6.53 0 0 0 2.36 4.87H3.83A3.83 3.83 0 0 0 0 14.68v6.38a3.82 3.82 0 0 0 3.45 3.79v18.54a3.83 3.83 0 0 0 3.83 3.83m-.77-3.83v-18.5h13.78v19.27h-13a.77.77 0 0 1-.77-.77m29.86.77h-13V24.89h13.76v18.5a.77.77 0 0 1-.77.77m4.21-29.48v6.38a.77.77 0 0 1-.77.77H23.35v-7.92h16.47a.77.77 0 0 1 .77.77M28.71 3.06A3 3 0 0 1 31.84 6a3.79 3.79 0 0 1-1.93 3 12.79 12.79 0 0 1-6.35 1.77c.44-2.71 1.72-7.73 5.15-7.73m-13.78 0c3.43 0 4.71 5 5.15 7.73A12.79 12.79 0 0 1 13.73 9a3.79 3.79 0 0 1-1.93-3 3 3 0 0 1 3.13-2.91m-11.87 18v-6.41a.77.77 0 0 1 .77-.77h16.46v7.91H3.83a.77.77 0 0 1-.76-.77" fill="#eb4c4c"/></g></svg>