<svg xmlns="http://www.w3.org/2000/svg" viewBox="0 0 90 90.03"><defs><clipPath id="a"><path fill="none" d="M0 0h90v90.03H0z"/></clipPath></defs><title>quality-sign</title><g clip-path="url(#a)" data-name="Layer 1"><path d="M44.78 0a2 2 0 0 0-.91.34L39 3.67l-5.84-1.19a2 2 0 0 0-2.09.84l-3.25 5L22 9.42A2 2 0 0 0 20.41 11l-1.12 5.81-5 3.25a2 2 0 0 0-.84 2.09L14.66 28l-3.31 4.91a2 2 0 0 0 0 2.25L14.66 40l-1.19 5.81a2 2 0 0 0 .84 2.09l2.81 1.84L.31 75.92a2 2 0 0 0 2.09 3l13.16-2.62 3.5 12.22a2 2 0 0 0 3.66.5l14.62-24.35 1.66-.35 4.91 3.31a1.88 1.88 0 0 0 2.25 0L51 64.32l1.63.34L67.28 89a2 2 0 0 0 3.66-.5l3.5-12.22 13.16 2.63a2 2 0 0 0 2.09-3L72.88 49.73l2.78-1.81a2 2 0 0 0 .84-2.09L75.31 40l3.31-4.87a2 2 0 0 0 0-2.25L75.31 28l1.19-5.81a2 2 0 0 0-.84-2.09l-5-3.25-1.1-5.85A2 2 0 0 0 68 9.42l-5.84-1.13-3.25-5a2 2 0 0 0-2.09-.84L51 3.67 46.12.35A2 2 0 0 0 44.78 0M45 4.42l4.47 3.06a2 2 0 0 0 1.53.31l5.25-1.12 3 4.53a2 2 0 0 0 1.31.88l5.34 1 1 5.34a2 2 0 0 0 .88 1.31l4.53 3L71.19 28a2 2 0 0 0 .31 1.56L74.56 34l-3.06 4.45a2 2 0 0 0-.31 1.55l1.13 5.28-4.53 3a2 2 0 0 0-.87 1.31l-1 5.34-5.34 1a2 2 0 0 0-1.31.88l-3 4.53L51 60.2a2 2 0 0 0-1.56.31L45 63.57l-4.47-3.06A2 2 0 0 0 39 60.2l-5.28 1.13-3-4.53a2 2 0 0 0-1.31-.87l-5.34-1-1-5.34a2 2 0 0 0-.87-1.31l-4.53-3L18.78 40a2 2 0 0 0-.31-1.56L15.41 34l3.06-4.47a2 2 0 0 0 .31-1.53l-1.12-5.3 4.53-3a2 2 0 0 0 .88-1.31l1-5.34 5.34-1a2 2 0 0 0 1.31-.87l3-4.53L39 7.79a2 2 0 0 0 1.56-.31zM45 10a24 24 0 1 0 24 24 24 24 0 0 0-24-24m0 4a20 20 0 1 1-20 20 20 20 0 0 1 20-20m11.88 8.6l-2.06 2.19-13 13.87L35 32.6l-2.25-2-4 4.5 2.25 2 9 8 2.19 1.9 2-2.13 15-16 2.06-2.19zm13.43 30.57L83.78 74.1 73.41 72a2 2 0 0 0-2.34 1.41L68.34 83 57.81 65.48a2 2 0 0 0 1.09-.81l3.25-5 5.85-1.1A2 2 0 0 0 69.56 57zm-50.62 0l.72 3.83A2 2 0 0 0 22 58.57l5.81 1.13 3.25 5a2 2 0 0 0 1.09.81L21.66 83l-2.72-9.56A2 2 0 0 0 16.59 72L6.22 74.1z" fill="#eb4c4c"/></g></svg>