<svg xmlns="http://www.w3.org/2000/svg" viewBox="0 0 272.13 159.33"><title>vk</title><path d="M226.06 78.12s35.86-50.58 39.42-67.2c1.19-5.94-1.43-9.26-7.6-9.26h-31.11c-7.12 0-9.74 3.09-11.87 7.6 0 0-16.82 35.83-37.28 58.42-6.57 7.3-9.91 9.5-13.54 9.5-2.92 0-4.27-2.44-4.27-9V10.45c0-8.07-.95-10.45-7.6-10.45h-49.87c-3.8 0-6.17 2.21-6.17 5.22 0 7.6 11.64 9.32 11.64 29.92v42.5c0 8.55-.48 11.87-4.51 11.87-10.69.01-36.1-36.79-50.3-78.59C50.1 2.38 47 0 38.94 0H7.84C3.32 0 0 3.09 0 7.6c0 8.31 9.74 46.78 48 98.31 25.64 34.67 59.36 53.43 89.76 53.43 18.52 0 23-3.09 23-10.92v-26.6c0-6.65 2.61-9.5 6.41-9.5 4.27 0 11.82 1.37 29.44 18.76 20.9 19.95 22.32 28.26 33.72 28.26h34.91c3.56 0 6.89-1.66 6.89-7.6 0-7.84-10.21-21.85-25.88-38.47-6.41-8.55-16.86-17.81-20.18-22.08-4.76-4.99-3.34-7.84-.01-13.07z" fill="#83b4d0" data-name="Layer 1"/></svg>